SplineFontDB: 3.2
FontName: CPRMGeologyRegular
FullName: CPRM Geology Regular
FamilyName: CPRM Geology
Weight: Regular
Copyright: Copyright (c) 2022, CPRM
Version: 001.000
ItalicAngle: 0
UnderlinePosition: -100
UnderlineWidth: 50
Ascent: 800
Descent: 200
InvalidEm: 0
sfntRevision: 0x00010000
LayerCount: 2
Layer: 0 0 "Back" 1
Layer: 1 0 "Fore" 0
XUID: [1021 151 -1074695341 10945]
StyleMap: 0x0000
FSType: 0
OS2Version: 4
OS2_WeightWidthSlopeOnly: 0
OS2_UseTypoMetrics: 1
CreationTime: 1645135244
ModificationTime: 1649345330
PfmFamily: 17
TTFWeight: 400
TTFWidth: 5
LineGap: 90
VLineGap: 0
Panose: 2 0 5 9 0 0 0 0 0 0
OS2TypoAscent: 800
OS2TypoAOffset: 0
OS2TypoDescent: -200
OS2TypoDOffset: 0
OS2TypoLinegap: 90
OS2WinAscent: 799
OS2WinAOffset: 0
OS2WinDescent: 0
OS2WinDOffset: 0
HheadAscent: 799
HheadAOffset: 0
HheadDescent: 0
HheadDOffset: 0
OS2SubXSize: 650
OS2SubYSize: 700
OS2SubXOff: 0
OS2SubYOff: 140
OS2SupXSize: 650
OS2SupYSize: 700
OS2SupXOff: 0
OS2SupYOff: 480
OS2StrikeYSize: 49
OS2StrikeYPos: 258
OS2CapHeight: 725
OS2XHeight: 649
OS2Vendor: 'PfEd'
OS2CodePages: 00000001.00000000
OS2UnicodeRanges: 00000003.00000000.00000000.00000000
DEI: 91125
LangName: 1033 "" "" "" "FontForge 2.0 : CPRM Geology Regular : 25-2-2022"
Encoding: UnicodeBmp
UnicodeInterp: none
NameList: AGL For New Fonts
DisplaySize: -48
AntiAlias: 1
FitToEm: 0
WinInfo: 0 14 9
BeginPrivate: 7
BlueValues 16 [85 303 554 688]
BlueScale 10 0.00416667
BlueShift 2 13
StdHW 4 [40]
StdVW 4 [42]
StemSnapH 10 [15 27 40]
StemSnapV 28 [13 20 24 29 33 37 42 50 54]
EndPrivate
BeginChars: 65537 189

StartChar: exclam
Encoding: 33 33 0
Width: 1000
GlyphClass: 1
Flags: MW
HStem: 282.947 34.0518 413 37.999 440 29<755 982>
LayerCount: 2
Fore
SplineSet
756 469 m 1xa0
 982 469 l 1xa0
 981.333007812 405.666992188 961.666015625 360 922.999023438 332 c 0
 883.666015625 303.333007812 838.333007812 287.333007812 787 284 c 0
 781 283.333007812 770 283 754 283 c 0
 751.9296875 282.96484375 749.849609375 282.947265625 747.758789062 282.947265625 c 0
 710.129882812 282.947265625 669.209960938 288.631835938 624.999023438 300 c 0
 570.999023438 314 525.666015625 332.333007812 488.999023438 355 c 0
 426.999023438 393.666992188 362.666015625 413 295.999023438 413 c 0
 282.666015625 413 268.999023438 412.333007812 254.999023438 411 c 0
 173.666015625 403 100.666015625 361.333007812 35.9990234375 286 c 1
 16.9990234375 314 l 1
 79.666015625 389.333007812 154.999023438 433.666015625 242.999023438 446.999023438 c 0
 260.999023438 449.666015625 278.666015625 450.999023438 295.999023438 450.999023438 c 0xc0
 366.666015625 449.666015625 431.999023438 430.666015625 491.999023438 393.999023438 c 0
 523.33203125 374.666015625 560.33203125 357.999023438 602.999023438 343.999023438 c 0
 630.999023438 334.666015625 677.666015625 325.999023438 742.999023438 317.999023438 c 0
 748.999023438 317.33203125 754.666015625 316.999023438 759.999023438 316.999023438 c 0
 800.666015625 317.666015625 837.333007812 325.333007812 870 340 c 0
 908 356 933 388.333007812 945 437 c 1
 755 440 l 1
 756 469 l 1xa0
EndSplineSet
Validated: 524289
EndChar

StartChar: quotedbl
Encoding: 34 34 1
Width: 1000
GlyphClass: 1
Flags: MW
HStem: 304.999 33.999 434.998 38 461.999 29.001
LayerCount: 2
Fore
SplineSet
244 491 m 1xa0
 245.001953125 461.999023438 l 1xa0
 55.001953125 458.999023438 l 1
 67.001953125 410.33203125 90.8349609375 378.165039062 126.501953125 362.498046875 c 0
 162.168945312 346.831054688 200.001953125 338.998046875 240.001953125 338.998046875 c 0
 291.334960938 338.998046875 341.834960938 347.498046875 391.501953125 364.498046875 c 0
 441.168945312 381.498046875 480.001953125 398.665039062 508.001953125 415.998046875 c 0
 569.334960938 453.998046875 634.66796875 472.998046875 704.000976562 472.998046875 c 0
 815.333984375 472.998046875 908.333984375 427.331054688 983.000976562 335.998046875 c 1
 965.000976562 307.998046875 l 1
 899.66796875 383.998046875 826.66796875 425.665039062 746.000976562 432.998046875 c 0
 731.333984375 434.331054688 715.333984375 434.998046875 698.000976562 434.998046875 c 0xc0
 634.000976562 434.998046875 571.66796875 415.665039062 511.000976562 376.998046875 c 0
 477.66796875 355.665039062 435.66796875 338.33203125 385.000976562 324.999023438 c 0
 334.333984375 311.666015625 288.333984375 304.999023438 247.000976562 304.999023438 c 0
 236.333984375 304.999023438 224.666992188 305.33203125 212 305.999023438 c 0
 162 308.666015625 117.333007812 324.333007812 78 353 c 0
 38.6669921875 381.666992188 18.6669921875 427.666992188 18 491 c 1
 244 491 l 1xa0
EndSplineSet
Validated: 524289
EndChar

StartChar: numbersign
Encoding: 35 35 2
Width: 1000
GlyphClass: 1
Flags: MW
HStem: 298 31<56.001 56.001 56.001 245.001> 314.999 38.001 450 34<226.334 268.001 213.001 271.334>
LayerCount: 2
Fore
SplineSet
984 452 m 1x60
 908.666992188 360.666992188 815.666992188 314.999023438 705 314.999023438 c 0x60
 637 315.666015625 571.666992188 334.999023438 509 372.999023438 c 0
 477.666992188 391.666015625 440.333984375 408.333007812 397.000976562 423 c 0
 343.000976562 441 293.66796875 450 249.000976562 450 c 0
 203.66796875 450 163.16796875 442 127.500976562 426 c 0
 91.833984375 410 68.0009765625 377.666992188 56.0009765625 329 c 1
 246.000976562 327 l 1
 245.000976562 298 l 1
 19.0009765625 298 l 1xa0
 19.66796875 362 39.0009765625 407.666992188 77.0009765625 435 c 0
 122.333984375 467.666992188 179.000976562 484 247.000976562 484 c 0
 289.000976562 484 334.66796875 477.666992188 384.000976562 465 c 0
 433.333984375 452.333007812 476.000976562 434.333007812 512.000976562 411 c 0
 571.333984375 372.333007812 635.333984375 353 704.000976562 353 c 0
 805.333984375 353 892.666992188 395.666992188 966 481 c 1
 984 452 l 1x60
EndSplineSet
Validated: 524289
EndChar

StartChar: dollar
Encoding: 36 36 3
Width: 1000
GlyphClass: 1
Flags: MW
HStem: 308 29.002 325.002 38 459.002 34.999
LayerCount: 2
Fore
SplineSet
755 308 m 1xa0
 753.997070312 337.001953125 l 1xa0
 943.997070312 339.001953125 l 1
 931.997070312 389.001953125 906.997070312 422.001953125 868.997070312 438.001953125 c 0
 836.330078125 452.001953125 799.330078125 459.001953125 757.997070312 459.001953125 c 2
 741.997070312 459.001953125 l 2
 702.6640625 459.001953125 656.331054688 450.001953125 602.998046875 432.001953125 c 0
 555.665039062 416.001953125 518.33203125 399.668945312 490.999023438 383.001953125 c 0
 427.666015625 344.334960938 361.999023438 325.001953125 293.999023438 325.001953125 c 0
 276.666015625 325.668945312 259.666015625 327.001953125 242.999023438 329.001953125 c 0
 156.33203125 339.668945312 80.6650390625 384.001953125 15.998046875 462.001953125 c 1
 34.998046875 491.001953125 l 1
 96.3310546875 419.001953125 169.331054688 377.334960938 253.998046875 366.001953125 c 0
 268.665039062 364.001953125 283.33203125 363.001953125 297.999023438 363.001953125 c 0x60
 366.666015625 364.334960938 429.999023438 383.66796875 487.999023438 421.000976562 c 0
 521.999023438 443.000976562 567.666015625 461.66796875 624.999023438 477.000976562 c 0
 667.666015625 488.333984375 710.333007812 494.000976562 753 494.000976562 c 0
 763.666992188 494.000976562 775 493.66796875 787 493.000976562 c 0
 839.666992188 490.333984375 885 474.333984375 923 445.000976562 c 0
 961 416.333984375 980.333007812 370.666992188 981 308 c 1
 755 308 l 1xa0
EndSplineSet
Validated: 524289
EndChar

StartChar: percent
Encoding: 37 37 4
Width: 1000
GlyphClass: 1
Flags: MW
HStem: 318.001 37.999 452.001 34.999
VStem: 951 33<299 301>
LayerCount: 2
Fore
SplineSet
951 299 m 1
 947 369 920.666992188 413.000976562 872 431.000976562 c 0
 834.666992188 445.000976562 795.333984375 452.000976562 754.000976562 452.000976562 c 0
 707.333984375 452.000976562 657.666992188 443.000976562 605 425.000976562 c 0
 559.666992188 409.66796875 522.666992188 393.000976562 494 375.000976562 c 0
 432.666992188 337.000976562 367.333984375 318.000976562 298.000976562 318.000976562 c 0
 280.000976562 318.000976562 262.333984375 319.333984375 245.000976562 322.000976562 c 0
 156.333984375 335.333984375 81.0009765625 379.666992188 19.0009765625 455 c 1
 38.0009765625 484 l 1
 98.66796875 412.666992188 171.66796875 371 257.000976562 359 c 0
 271.000976562 357 285.000976562 356 299.000976562 356 c 0
 365.66796875 356 429.66796875 375.333007812 491.000976562 414 c 0
 528.333984375 437.333007812 573.666992188 456 627 470 c 0
 671 481.333007812 714 487 756 487 c 0
 765.333007812 487 776.333007812 486.666992188 789 486 c 0
 840.333007812 483.333007812 885.666015625 467 924.999023438 437 c 0
 963.666015625 408.333007812 983.333007812 363 984 301 c 1
 951 299 l 1
EndSplineSet
Validated: 524289
EndChar

StartChar: ampersand
Encoding: 38 38 5
Width: 1000
GlyphClass: 1
Flags: MW
HStem: 379 44<10 288 10 288 624 874>
VStem: 288 40<487 487 487 544> 580 44<379 379>
LayerCount: 2
Fore
SplineSet
329 246 m 1
 289 246 l 1
 288 379 l 1
 10 379 l 1
 10 423 l 1
 288 423 l 1
 288 544 l 1
 347 544 l 1
 460 302 l 1
 564 544 l 1
 623 544 l 1
 624 423 l 1
 874 423 l 1
 874 481 l 1
 981 403 l 1
 874 321 l 1
 874 379 l 1
 624 379 l 1
 625 246 l 1
 580 246 l 1
 580 487 l 1
 486 246 l 1
 438 246 l 1
 328 487 l 1
 329 246 l 1
EndSplineSet
Validated: 1
EndChar

StartChar: quotesingle
Encoding: 39 39 6
Width: 1000
GlyphClass: 1
Flags: MW
HStem: 323 40<356 359.667> 373 40<10 10> 457 42<561.999 563.331>
VStem: 248 38.998 628 41<322 322>
LayerCount: 2
Fore
SplineSet
248 413 m 1
 242.998046875 471.000976562 l 2
 242.998046875 482.333984375 244.331054688 491.666992188 246.998046875 499 c 1
 287.998046875 499 l 1
 287.331054688 491 286.998046875 479.666992188 286.998046875 465 c 0
 286.998046875 450.333007812 289.998046875 433 295.998046875 413 c 0
 305.998046875 379.666992188 329.331054688 363 365.998046875 363 c 0
 401.331054688 363 428.331054688 380.666992188 446.998046875 416 c 0
 465.665039062 452 489.998046875 477 519.998046875 491 c 0
 531.331054688 496.333007812 543.6640625 499 556.997070312 499 c 0
 569.6640625 499 583.331054688 496.333007812 597.998046875 491 c 0
 634.665039062 477.666992188 657.33203125 455.666992188 665.999023438 425 c 0
 668.666015625 417 670.333007812 413 671 413 c 2
 880 412 l 1
 880 454 l 1
 982 392 l 1
 880 325 l 1
 880 375 l 1
 676 373 l 1
 672 373 l 1
 672 355 671 338 669 322 c 1
 628 322 l 1
 634 376 l 2
 634 404 622.666992188 426.333007812 600 443 c 0
 587.333007812 452.333007812 574.666015625 457 561.999023438 457 c 1
 523.999023438 442 l 2
 519.999023438 438.666992188 515.33203125 433 509.999023438 425 c 0
 507.33203125 421.666992188 500.665039062 413 489.998046875 399 c 0
 458.665039062 357.666992188 421.33203125 333 377.999023438 325 c 0
 370.666015625 323.666992188 363.333007812 323 356 323 c 0
 321.333007812 324.333007812 292.333007812 341 269 373 c 1
 10 373 l 1
 10 413 l 1
 248 412 l 1
 248 413 l 1
EndSplineSet
Validated: 524289
EndChar

StartChar: parenleft
Encoding: 40 40 7
Width: 1000
GlyphClass: 1
Flags: MW
HStem: 256 60<17 58>
LayerCount: 2
Fore
SplineSet
950 516 m 1
 984 516 l 1
 854 315 l 1
 983 315 l 1
 984 257 l 1
 17 256 l 1
 17 316 l 1
 58 316 l 1
 187 516 l 1
 220 516 l 1
 91 316 l 1
 153 316 l 1
 283 516 l 1
 317 516 l 1
 187 316 l 1
 250 316 l 1
 380 516 l 1
 414 516 l 1
 284 316 l 1
 347 316 l 1
 477 516 l 1
 510 516 l 1
 381 316 l 1
 453 316 l 1
 583 516 l 1
 617 516 l 1
 487 316 l 1
 569 315 l 1
 699 516 l 1
 733 516 l 1
 603 315 l 1
 695 315 l 1
 825 516 l 1
 858 516 l 1
 729 315 l 1
 821 315 l 1
 950 516 l 1
EndSplineSet
Validated: 1
EndChar

StartChar: parenright
Encoding: 41 41 8
Width: 1000
GlyphClass: 1
Flags: MW
HStem: 231 40<403.001 403.001> 375 50<526.001 883.002 526.001 568.002> 529 41<403.002 403.002 403.002 418.333>
VStem: 353.001 50 526.001 42.001
LayerCount: 2
Fore
SplineSet
354 709 m 1
 403.001953125 709 l 1
 403.001953125 570 l 1
 454.334960938 566.666992188 492.501953125 551 517.501953125 523 c 0
 542.501953125 495 559.668945312 462 569.001953125 424 c 1
 883.001953125 425 l 1
 883.001953125 477 l 1
 979.001953125 404 l 1
 883.001953125 331 l 1
 883.001953125 375 l 1
 568.001953125 375 l 1
 561.334960938 339 545.16796875 307 519.500976562 279 c 0
 493.833984375 251 455.000976562 235 403.000976562 231 c 1
 402.000976562 90 l 1
 353.000976562 88 l 1
 353.000976562 280 l 1
 369.66796875 274 387.000976562 271 405.000976562 271 c 0
 423.000976562 271 442.333984375 277 463.000976562 289 c 0
 497.66796875 309 518.66796875 338 526.000976562 376 c 1
 17.0009765625 375 l 1
 17.0009765625 422 l 1
 526.000976562 425 l 1
 522.000976562 451.666992188 508.16796875 475.666992188 484.500976562 497 c 0
 460.833984375 518.333007812 433.666992188 529 403 529 c 0
 382.333007812 526.333007812 366 523.333007812 354 520 c 1
 354 709 l 1
EndSplineSet
Validated: 524289
EndChar

StartChar: asterisk
Encoding: 42 42 9
Width: 1000
GlyphClass: 1
Flags: MW
HStem: 223.998 45.999 388.997 28 535.997 46.0029
VStem: 148 51.999 468.999 29 771.999 73.001
LayerCount: 2
Fore
SplineSet
469 582 m 1
 468.999023438 660.997070312 l 1
 435.999023438 660.997070312 l 1
 482.999023438 703.997070312 l 1
 530.999023438 660.997070312 l 1
 497.999023438 660.997070312 l 1
 497.999023438 580.997070312 l 1
 586.666015625 577.6640625 664.833007812 560.497070312 732.5 529.497070312 c 0
 800.166992188 498.497070312 837.666992188 460.997070312 845 416.997070312 c 1
 931 416.997070312 l 1
 931 448.997070312 l 1
 973 402.997070312 l 1
 931 356.997070312 l 1
 931 388.997070312 l 1
 845 388.997070312 l 1
 837.666992188 344.997070312 800.166992188 307.330078125 732.5 275.997070312 c 0
 664.833007812 244.6640625 586.666015625 227.331054688 497.999023438 223.998046875 c 1
 497.999023438 144.998046875 l 1
 530.999023438 144.998046875 l 1
 482.999023438 101.998046875 l 1
 435.999023438 144.998046875 l 1
 468.999023438 144.998046875 l 1
 468.999023438 223.998046875 l 1
 363.666015625 224.665039062 285.333007812 241.83203125 234 275.499023438 c 0
 182.666992188 309.166015625 154 346.999023438 148 388.999023438 c 1
 68 388.999023438 l 1
 68 356.999023438 l 1
 27 402.999023438 l 1
 68 448.999023438 l 1
 68 416.999023438 l 1
 148 416.999023438 l 1
 153.333007812 458.999023438 181.833007812 496.83203125 233.5 530.499023438 c 0
 285.166992188 564.166015625 363.666992188 581.333007812 469 582 c 1
485.999023438 535.997070312 m 0
 407.33203125 535.997070312 339.999023438 522.997070312 283.999023438 496.997070312 c 0
 227.999023438 470.997070312 199.999023438 439.6640625 199.999023438 402.997070312 c 0
 199.999023438 366.330078125 227.999023438 334.997070312 283.999023438 308.997070312 c 0
 339.999023438 282.997070312 407.33203125 269.997070312 485.999023438 269.997070312 c 0
 564.666015625 269.997070312 631.999023438 282.997070312 687.999023438 308.997070312 c 0
 743.999023438 334.997070312 771.999023438 366.330078125 771.999023438 402.997070312 c 0
 771.999023438 439.6640625 743.999023438 470.997070312 687.999023438 496.997070312 c 0
 631.999023438 522.997070312 564.666015625 535.997070312 485.999023438 535.997070312 c 0
EndSplineSet
Validated: 524289
EndChar

StartChar: plus
Encoding: 43 43 10
Width: 1000
GlyphClass: 1
Flags: MW
HStem: 161.998 42.002 385 29<81.001 153.001 81.001 81.001 853 922> 607.998 42
VStem: 19.002 61.999 471.001 28 922 62.001
LayerCount: 2
Fore
SplineSet
502 608 m 2
 499.000976562 607.998046875 l 1
 499.000976562 529.998046875 l 1
 531.000976562 529.998046875 l 1
 485.000976562 487.998046875 l 1
 439.000976562 529.998046875 l 1
 471.000976562 529.998046875 l 1
 471.000976562 607.998046875 l 1
 359.66796875 604.665039062 268.000976562 584.83203125 196.000976562 548.499023438 c 0
 124.000976562 512.166015625 85.333984375 467.333007812 80.0009765625 414 c 1
 153.000976562 414 l 1
 153.000976562 446 l 1
 194.000976562 400 l 1
 153.000976562 353 l 1
 153.000976562 385 l 1
 81.0009765625 385 l 1
 89.0009765625 333.666992188 128.66796875 291.5 200.000976562 258.5 c 0
 271.333984375 225.5 361.666992188 207.333007812 471 204 c 1
 471 280 l 1
 439 280 l 1
 485 321 l 1
 531 280 l 1
 499 280 l 1
 499 204 l 1
 502 204 l 2
 618.666992188 204 715.666992188 220.833007812 793 254.5 c 0
 870.333007812 288.166992188 913.333007812 331.666992188 922 385 c 1
 853 385 l 1
 853 353 l 1
 811 400 l 1
 853 446 l 1
 853 414 l 1
 923 414 l 1
 917.666992188 469.333007812 876 515.5 798 552.5 c 0
 720 589.5 621.333007812 608 502 608 c 2
502.000976562 649.998046875 m 0
 642.66796875 649.998046875 758.16796875 626.165039062 848.500976562 578.498046875 c 0
 938.833984375 530.831054688 984.000976562 471.998046875 984.000976562 401.998046875 c 0
 984.000976562 331.998046875 938.833984375 274.498046875 848.500976562 229.498046875 c 0
 758.16796875 184.498046875 642.66796875 161.998046875 502.000976562 161.998046875 c 0
 360.66796875 161.998046875 244.834960938 184.498046875 154.501953125 229.498046875 c 0
 64.1689453125 274.498046875 19.001953125 331.998046875 19.001953125 401.998046875 c 0
 19.001953125 471.998046875 64.1689453125 530.831054688 154.501953125 578.498046875 c 0
 244.834960938 626.165039062 360.66796875 649.998046875 502.000976562 649.998046875 c 0
EndSplineSet
Validated: 524289
EndChar

StartChar: comma
Encoding: 44 44 11
Width: 1000
GlyphClass: 1
Flags: MW
HStem: 148 21G<103 280 103 103>
LayerCount: 2
Fore
SplineSet
307 535 m 1
 131 535 l 1
 219 679 l 1
 307 535 l 1
420 335 m 1
 244 335 l 1
 332 479 l 1
 420 335 l 1
586 544 m 1
 410 544 l 1
 498 688 l 1
 586 544 l 1
739 331 m 1
 562 331 l 1
 650 474 l 1
 739 331 l 1
842 543 m 1
 666 543 l 1
 754 687 l 1
 842 543 l 1
280 148 m 1
 103 148 l 1
 191 292 l 1
 280 148 l 1
866 140 m 1
 690 140 l 1
 778 284 l 1
 866 140 l 1
591 140 m 1
 414 140 l 1
 502 283 l 1
 591 140 l 1
EndSplineSet
Validated: 1
EndChar

StartChar: hyphen
Encoding: 45 45 12
Width: 1000
GlyphClass: 1
Flags: MW
HStem: 141 13<145 294 145 322 425 574 721 870> 328 13<283 433 283 460 570 719> 534 13<145 294 145 322 425 574 721 870>
LayerCount: 2
Fore
SplineSet
870 154 m 1
 796 285 l 1
 721 154 l 1
 870 154 l 1
898 141 m 1
 693 141 l 1
 796 308 l 1
 898 141 l 1
574 154 m 1
 500 285 l 1
 425 154 l 1
 574 154 l 1
602 141 m 1
 397 141 l 1
 500 308 l 1
 602 141 l 1
294 154 m 1
 220 285 l 1
 145 154 l 1
 294 154 l 1
322 141 m 1
 117 141 l 1
 220 308 l 1
 322 141 l 1
719 341 m 1
 644 472 l 1
 570 341 l 1
 719 341 l 1
747 328 m 1
 542 328 l 1
 644 495 l 1
 747 328 l 1
433 341 m 1
 358 472 l 1
 283 341 l 1
 433 341 l 1
460 328 m 1
 255 328 l 1
 358 495 l 1
 460 328 l 1
870 547 m 1
 796 678 l 1
 721 547 l 1
 870 547 l 1
898 534 m 1
 693 534 l 1
 796 701 l 1
 898 534 l 1
574 547 m 1
 500 678 l 1
 425 547 l 1
 574 547 l 1
602 534 m 1
 397 534 l 1
 500 701 l 1
 602 534 l 1
294 547 m 1
 220 678 l 1
 145 547 l 1
 294 547 l 1
322 534 m 1
 117 534 l 1
 220 701 l 1
 322 534 l 1
EndSplineSet
Validated: 1
EndChar

StartChar: period
Encoding: 46 46 13
Width: 1000
GlyphClass: 1
Flags: MW
HStem: 143 49.0029 562.003 49.9971 569.001 20G 685 20G<498.002 498.002>
VStem: 120.002 70 808.002 70.0664
LayerCount: 2
Fore
SplineSet
428 144 m 1xdc
 426.001953125 144.002929688 l 1
 352.001953125 153.3359375 287.668945312 174.668945312 233.001953125 208.001953125 c 1
 229.001953125 211.001953125 l 1
 113.001953125 198.001953125 l 1
 133.001953125 316.001953125 l 2
 132.334960938 318.001953125 132.001953125 319.334960938 132.001953125 320.001953125 c 0
 124.668945312 338.668945312 120.668945312 357.668945312 120.001953125 377.001953125 c 0
 120.001953125 414.334960938 133.334960938 449.66796875 160.001953125 483.000976562 c 2
 162.001953125 486.000976562 l 1
 156.001953125 589.000976562 l 1xbc
 260.001953125 561.000976562 l 1
 266.001953125 565.000976562 l 1
 313.334960938 588.333984375 366.334960938 603.666992188 425.001953125 611 c 1
 428.001953125 611 l 1
 498.001953125 705 l 1
 560.001953125 612 l 1
 564.001953125 612 l 1
 645.334960938 603.333007812 712.66796875 581.333007812 766.000976562 546 c 1
 884.000976562 564 l 1
 863.000976562 446 l 2
 863.66796875 444 864.334960938 442.666992188 865.001953125 442 c 0
 873.712890625 422.7109375 878.068359375 402.55078125 878.068359375 381.51953125 c 0
 878.068359375 380.017578125 878.045898438 378.510742188 878.000976562 377 c 0
 877.333984375 341.666992188 865.000976562 308 841.000976562 276 c 2
 839.000976562 273 l 1
 851.000976562 168 l 1
 740.000976562 195 l 2
 739.333984375 195 738.666992188 194.333007812 738 193 c 0
 687.333007812 167 630 150.333007812 566 143 c 1
 562 143 l 1
 499 47 l 1
 428 144 l 1xdc
499.501953125 562.002929688 m 0xdc
 416.501953125 562.002929688 344.168945312 543.3359375 282.501953125 506.002929688 c 0
 220.834960938 468.669921875 190.001953125 425.669921875 190.001953125 377.002929688 c 0
 190.001953125 328.3359375 220.834960938 285.3359375 282.501953125 248.002929688 c 0
 344.168945312 210.669921875 416.501953125 192.002929688 499.501953125 192.002929688 c 0
 582.501953125 192.002929688 654.668945312 210.669921875 716.001953125 248.002929688 c 0
 777.334960938 285.3359375 808.001953125 328.3359375 808.001953125 377.002929688 c 0
 808.001953125 425.669921875 777.334960938 468.669921875 716.001953125 506.002929688 c 0
 654.668945312 543.3359375 582.501953125 562.002929688 499.501953125 562.002929688 c 0xdc
EndSplineSet
Validated: 524289
EndChar

StartChar: slash
Encoding: 47 47 14
Width: 1000
GlyphClass: 1
Flags: MW
HStem: 358 83<59 718 59 718> 515 20G<718 718>
LayerCount: 2
Fore
SplineSet
59 441 m 1
 718 441 l 1
 718 535 l 1
 944 400 l 1
 718 265 l 1
 718 358 l 1
 59 358 l 1
 59 441 l 1
EndSplineSet
Validated: 1
EndChar

StartChar: zero
Encoding: 48 48 15
Width: 1000
GlyphClass: 1
Flags: MW
HStem: 339 24<44 736> 433 24<44 44 44 736 17 759> 570 20G<736 736>
VStem: 17 27<363 433 363 457 363 457> 736 23<253 339 339 339 457 543>
LayerCount: 2
Fore
SplineSet
17 457 m 1
 736 457 l 1
 736 590 l 1
 982 398 l 1
 736 205 l 1
 736 339 l 1
 17 339 l 1
 17 457 l 1
44 433 m 1
 44 363 l 1
 759 363 l 1
 759 253 l 1
 947 398 l 1
 759 543 l 1
 759 433 l 1
 44 433 l 1
EndSplineSet
Validated: 1
EndChar

StartChar: one
Encoding: 49 49 16
Width: 1000
GlyphClass: 1
Flags: MW
HStem: 380 41.0967 473.55 20G
LayerCount: 2
Fore
SplineSet
853.138671875 379.223632812 m 1
 15 380 l 1
 15.0146484375 421.096679688 l 1
 852.89453125 421.096679688 l 1
 778.305664062 457.109375 l 1
 778.427734375 493.549804688 l 1
 980.221679688 401.380859375 l 1
 778.305664062 302.315429688 l 1
 778.305664062 336.801757812 l 1
 853.138671875 379.223632812 l 1
EndSplineSet
Validated: 524289
EndChar

StartChar: two
Encoding: 50 50 17
Width: 1000
GlyphClass: 1
Flags: MW
HStem: 281 228<470.999 472.999 470.999 470.999 472.999 474.999 474.999 477.999> 378.999 39 466 20G<763 763>
LayerCount: 2
Fore
SplineSet
833 379 m 1x20
 593.998046875 379 l 1
 588.665039062 347.666992188 575.33203125 323.666992188 553.999023438 307 c 0
 531.999023438 289.666992188 506.666015625 281 477.999023438 281 c 2
 474.999023438 281 l 1
 472.999023438 281 l 1
 470.999023438 281 l 2x80
 470.345703125 280.973632812 469.6875 280.9609375 469.025390625 280.9609375 c 0
 452.798828125 280.9609375 433.95703125 288.807617188 412.5 304.5 c 0
 390.166992188 320.833007812 375.666992188 345.666015625 369 378.999023438 c 1
 52 378.999023438 l 1
 52 417.999023438 l 1
 370 417.999023438 l 1x40
 377.333007812 446.666015625 389.333007812 468.333007812 406 483 c 0
 424.666992188 500.333007812 449 509 479 509 c 0x80
 505.666992188 509 530 500.666992188 552 484 c 0
 570.666992188 470 584.666992188 448 594 418 c 1
 833 418 l 1
 763 452 l 1
 763 486 l 1
 952 400 l 1
 763 308 l 1
 763 340 l 1
 833 379 l 1x20
EndSplineSet
Validated: 524289
EndChar

StartChar: three
Encoding: 51 51 18
Width: 1000
GlyphClass: 1
Flags: MW
HStem: 378 43<15 381 15 382> 492 20G<382 416 416 416 484 519 519 519>
VStem: 382 35 484 35<283 378 283 379 283 379 420 512>
LayerCount: 2
Fore
SplineSet
852 379 m 1
 519 378 l 1
 519 283 l 1
 484 281 l 1
 484 379 l 1
 417 379 l 1
 417 283 l 1
 380 283 l 1
 381 378 l 1
 15 378 l 1
 15 421 l 1
 382 421 l 1
 382 512 l 1
 416 512 l 1
 417 419 l 1
 484 420 l 1
 484 512 l 1
 519 512 l 1
 519 420 l 1
 852 419 l 1
 777 457 l 1
 777 493 l 1
 979 401 l 1
 777 302 l 1
 777 336 l 1
 852 379 l 1
EndSplineSet
Validated: 1
EndChar

StartChar: four
Encoding: 52 52 19
Width: 1000
GlyphClass: 1
Flags: MW
HStem: 659 20G<499 499>
LayerCount: 2
Fore
SplineSet
825 155 m 1
 172 155 l 1
 499 679 l 1
 825 155 l 1
EndSplineSet
Validated: 1
EndChar

StartChar: five
Encoding: 53 53 20
Width: 1000
GlyphClass: 1
Flags: MW
HStem: 200.502 47.5 626 20G
VStem: 102.941 40.958 317.001 41 373.002 41 587.001 41.001 650.638 42.3633 866.001 40.999
LayerCount: 2
Fore
SplineSet
229 646 m 1
 235 624 244.833984375 601.66796875 258.500976562 579.000976562 c 0
 272.16796875 556.333984375 286.500976562 531.333984375 301.500976562 504.000976562 c 0
 316.500976562 476.66796875 329.66796875 449.16796875 341.000976562 421.500976562 c 0
 352.333984375 393.833984375 358.000976562 368.000976562 358.000976562 344.000976562 c 0
 358.000976562 301.333984375 345.333984375 267.333984375 320.000976562 242.000976562 c 0
 294.546875 215.2734375 265.750976562 201.91015625 233.614257812 201.91015625 c 0
 232.083984375 201.91015625 230.545898438 201.940429688 229 202.000976562 c 0
 193 203.333984375 163.333007812 215.666992188 140 239 c 0
 116 263 103.666992188 291.666992188 103 325 c 0
 102.9609375 326.9609375 102.94140625 328.9140625 102.94140625 330.858398438 c 0
 102.94140625 361.97265625 107.9609375 391.01953125 118 418 c 0
 133.333007812 459.333007812 153.833007812 502.333007812 179.5 547 c 0
 205.166992188 591.666992188 221.666992188 624.666992188 229 646 c 1
230.000976562 549.000976562 m 1
 224.66796875 533.000976562 207.668945312 500.001953125 179.001953125 450.001953125 c 0
 155.600585938 408.890625 143.899414062 371.979492188 143.899414062 339.26953125 c 0
 143.899414062 337.500976562 143.93359375 335.745117188 144.001953125 334.001953125 c 0
 144.001953125 311.334960938 152.334960938 291.001953125 169.001953125 273.001953125 c 0
 184.334960938 256.334960938 204.66796875 248.001953125 230.000976562 248.001953125 c 0
 254.000976562 248.001953125 274.333984375 257.001953125 291.000976562 275.001953125 c 0
 308.333984375 293.668945312 317.000976562 314.001953125 317.000976562 336.001953125 c 0
 317.000976562 368.001953125 304.333984375 406.668945312 279.000976562 452.001953125 c 0
 269.000976562 469.334960938 259.333984375 486.16796875 250.000976562 502.500976562 c 0
 240.66796875 518.833984375 234.000976562 534.333984375 230.000976562 549.000976562 c 1
500.001953125 646.001953125 m 1
 506.001953125 624.001953125 515.833984375 601.501953125 529.500976562 578.501953125 c 0
 543.16796875 555.501953125 557.334960938 530.668945312 572.001953125 504.001953125 c 0
 586.668945312 477.334960938 599.668945312 450.001953125 611.001953125 422.001953125 c 0
 622.334960938 394.001953125 628.001953125 368.001953125 628.001953125 344.001953125 c 0
 628.001953125 320.001953125 624.668945312 300.001953125 618.001953125 284.001953125 c 0
 605.334960938 252.668945312 582.334960938 228.668945312 549.001953125 212.001953125 c 0
 534.001953125 204.334960938 518.334960938 200.501953125 502.001953125 200.501953125 c 0
 485.668945312 200.501953125 468.668945312 204.334960938 451.001953125 212.001953125 c 0
 419.001953125 226.001953125 396.334960938 248.334960938 383.001953125 279.001953125 c 0
 376.334960938 294.334960938 373.001953125 314.001953125 373.001953125 338.001953125 c 0
 373.001953125 382.001953125 390.334960938 436.001953125 425.001953125 500.001953125 c 0
 451.001953125 548.001953125 465.001953125 573.334960938 467.001953125 576.001953125 c 0
 481.001953125 600.668945312 492.001953125 624.001953125 500.001953125 646.001953125 c 1
500.000976562 549.001953125 m 1
 494.66796875 534.334960938 487.334960938 518.666992188 478.001953125 502 c 0
 450.668945312 453.333007812 433.168945312 418.333007812 425.501953125 397 c 0
 417.834960938 375.666992188 414.001953125 356.833984375 414.001953125 340.500976562 c 0
 414.001953125 324.16796875 416.334960938 310.834960938 421.001953125 300.501953125 c 0
 425.668945312 290.168945312 431.668945312 281.001953125 439.001953125 273.001953125 c 0
 454.334960938 256.334960938 474.66796875 248.001953125 500.000976562 248.001953125 c 0
 524.000976562 248.001953125 544.333984375 257.001953125 561.000976562 275.001953125 c 0
 578.333984375 293.668945312 587.000976562 314.001953125 587.000976562 336.001953125 c 0
 587.000976562 369.334960938 574.333984375 408.001953125 549.000976562 452.001953125 c 0
 539.000976562 470.001953125 529.333984375 486.834960938 520.000976562 502.501953125 c 0
 510.66796875 518.168945312 504.000976562 533.668945312 500.000976562 549.001953125 c 1
778.000976562 646.000976562 m 1
 784.000976562 624.000976562 793.5 602.169921875 806.5 580.502929688 c 0
 819.5 558.8359375 833.833007812 534.002929688 849.5 506.002929688 c 0
 865.166992188 478.002929688 878.666992188 450.002929688 890 422.002929688 c 0
 901.333007812 394.002929688 907 368.002929688 907 344.002929688 c 0
 907 282.669921875 880.666992188 238.669921875 828 212.002929688 c 0
 812.666992188 204.3359375 796.75 200.502929688 780.25 200.502929688 c 0
 763.75 200.502929688 746.666992188 204.3359375 729 212.002929688 c 0
 697.666992188 225.3359375 675.333984375 247.668945312 662.000976562 279.001953125 c 0
 654.42578125 296.577148438 650.637695312 315.66796875 650.637695312 336.274414062 c 0
 650.637695312 361.001953125 656.091796875 387.911132812 667.000976562 417.001953125 c 0
 685.66796875 468.334960938 712.000976562 521.66796875 746.000976562 577.000976562 c 0
 757.333984375 595.66796875 768.000976562 618.66796875 778.000976562 646.000976562 c 1
779 549.002929688 m 1
 773.666992188 534.3359375 766.000976562 518.669921875 756.000976562 502.002929688 c 0
 732.000976562 460.669921875 715.500976562 427.502929688 706.500976562 402.502929688 c 0
 697.500976562 377.502929688 693.000976562 356.669921875 693.000976562 340.002929688 c 0
 693.000976562 312.002929688 701.333984375 289.669921875 718.000976562 273.002929688 c 0
 734.66796875 256.3359375 755.000976562 248.002929688 779.000976562 248.002929688 c 0
 803.000976562 248.002929688 823.333984375 257.002929688 840.000976562 275.002929688 c 0
 857.333984375 293.669921875 866.000976562 314.002929688 866.000976562 336.002929688 c 0
 866.000976562 367.3359375 853.333984375 406.002929688 828.000976562 452.002929688 c 0
 817.333984375 471.3359375 807.666992188 488.002929688 799 502.002929688 c 0
 789.666992188 518.002929688 783 533.669921875 779 549.002929688 c 1
EndSplineSet
Validated: 524289
EndChar

StartChar: six
Encoding: 54 54 21
Width: 1000
GlyphClass: 1
Flags: MW
HStem: 615 20G
VStem: 86 255.515 373 254.999 659.999 255
LayerCount: 2
Fore
SplineSet
213 635 m 1
 219 612.333007812 228.333007812 590.500976562 241 569.500976562 c 0
 253.666992188 548.500976562 268 523.66796875 284 495.000976562 c 0
 300 466.333984375 313.666992188 438.166992188 325 410.5 c 0
 336.009765625 383.624023438 341.514648438 358.477539062 341.514648438 335.061523438 c 0
 341.514648438 334.373046875 341.509765625 333.685546875 341.5 333 c 0
 341.166992188 309 337.666992188 289 331 273 c 0
 317.666992188 241 295 217 263 201 c 0
 247 193.666992188 230.75 190 214.25 190 c 0
 197.75 190 181 193.666992188 164 201 c 0
 132 215 109.333007812 237.333007812 96 268 c 0
 89.3330078125 283.333007812 86 303 86 327 c 0
 86 367.666992188 103.333007812 421.666992188 138 489 c 0
 149.333007812 510.333007812 163.333007812 536 180 566 c 0
 194.666992188 590.666992188 205.666992188 613.666992188 213 635 c 1
500 635.000976562 m 1
 506 613.000976562 516.166015625 589.8359375 530.499023438 565.502929688 c 0
 544.83203125 541.169921875 559.33203125 516.336914062 573.999023438 491.00390625 c 0
 609.999023438 427.00390625 627.999023438 371.00390625 627.999023438 323.00390625 c 0
 627.999023438 287.00390625 615.33203125 256.336914062 589.999023438 231.00390625 c 0
 564.544921875 204.276367188 536.052734375 190.913085938 504.5234375 190.913085938 c 0
 503.022460938 190.913085938 501.514648438 190.943359375 500 191.00390625 c 0
 464.666992188 192.336914062 434.666992188 204.669921875 410 228.002929688 c 0
 398.666992188 239.3359375 389.666992188 252.668945312 383 268.001953125 c 0
 376.333007812 283.334960938 373 303.334960938 373 328.001953125 c 0
 373 379.334960938 404.333007812 458.66796875 467 566.000976562 c 0
 480.333007812 588.66796875 491.333007812 611.66796875 500 635.000976562 c 1
786.999023438 635.002929688 m 1
 792.999023438 613.002929688 802.665039062 590.669921875 815.998046875 568.002929688 c 0
 856.665039062 499.3359375 883.33203125 449.002929688 895.999023438 417.002929688 c 0
 908.666015625 385.002929688 914.999023438 357.002929688 914.999023438 333.002929688 c 0
 914.999023438 309.002929688 911.666015625 289.002929688 904.999023438 273.002929688 c 0
 892.33203125 241.669921875 869.33203125 217.669921875 835.999023438 201.002929688 c 0
 820.999023438 193.3359375 805.33203125 189.502929688 788.999023438 189.502929688 c 0
 772.666015625 189.502929688 755.666015625 193.3359375 737.999023438 201.002929688 c 0
 705.999023438 215.002929688 683.33203125 237.3359375 669.999023438 268.002929688 c 0
 663.33203125 283.3359375 659.999023438 303.3359375 659.999023438 328.002929688 c 0
 659.999023438 372.002929688 677.33203125 425.669921875 711.999023438 489.002929688 c 0
 739.33203125 539.002929688 753.33203125 564.669921875 753.999023438 566.002929688 c 0
 767.999023438 590.002929688 778.999023438 613.002929688 786.999023438 635.002929688 c 1
EndSplineSet
Validated: 524289
EndChar

StartChar: seven
Encoding: 55 55 22
Width: 1000
GlyphClass: 1
Flags: MW
HStem: 131 22<191 801 191 840> 685 20G<498 498> 685 20G<498 498>
LayerCount: 2
Fore
SplineSet
840 131 m 1xc0
 155 131 l 1
 498 705 l 1
 840 131 l 1xc0
191 153 m 1
 801 153 l 1
 498 659 l 1
 191 153 l 1
EndSplineSet
Validated: 1
EndChar

StartChar: eight
Encoding: 56 56 23
Width: 1000
GlyphClass: 1
Flags: MW
HStem: 148.997 47 392.996 24 613.996 42.999
VStem: 166 7.00488<445.997 454.998> 217 11.001 510.003 13 557.002 10
LayerCount: 2
Fore
SplineSet
231 614 m 1
 125.000976562 617.995117188 l 1
 95.0009765625 616.995117188 l 1
 95.0009765625 656.995117188 l 1
 908.000976562 656.995117188 l 1
 908.000976562 613.995117188 l 1
 879.000976562 613.995117188 l 1
 869.000976562 608.662109375 861.500976562 602.329101562 856.500976562 594.99609375 c 0
 851.500976562 587.663085938 849.000976562 583.663085938 849.000976562 582.99609375 c 1
 849.000976562 586.329101562 847.66796875 583.662109375 845.000976562 574.995117188 c 0
 837.000976562 557.662109375 831.500976562 541.495117188 828.500976562 526.495117188 c 0
 825.500976562 511.495117188 821.66796875 497.328125 817.000976562 483.995117188 c 2
 808.000976562 463.995117188 l 2
 798.66796875 444.662109375 788.000976562 429.329101562 776.000976562 417.99609375 c 1
 908.000976562 416.99609375 l 1
 908.000976562 392.99609375 l 1
 879.000976562 392.99609375 l 2
 876.333984375 390.99609375 873.333984375 388.99609375 870.000976562 386.99609375 c 0
 856.000976562 374.329101562 847.000976562 362.662109375 843.000976562 351.995117188 c 0
 839.000976562 341.328125 835.66796875 331.328125 833.000976562 321.995117188 c 0
 830.333984375 312.662109375 828.166992188 304.329101562 826.5 296.99609375 c 0
 824.833007812 289.663085938 823 282.330078125 821 274.997070312 c 2
 816 259.997070312 l 1
 810 245.997070312 l 2
 806.666992188 235.997070312 800 225.1640625 790 213.497070312 c 0
 780 201.830078125 775.333007812 195.997070312 776 195.997070312 c 2
 908 195.997070312 l 1
 908 148.997070312 l 1
 95 148.997070312 l 1
 95 195.997070312 l 1
 133 195.997070312 l 1
 157 213.330078125 176 244.330078125 190 288.997070312 c 0
 190.666992188 292.330078125 191.333984375 295.163085938 192.000976562 297.49609375 c 0
 192.66796875 299.829101562 195.66796875 311.329101562 201.000976562 331.99609375 c 0
 206.333984375 352.663085938 210.666992188 363.663085938 214 364.99609375 c 0
 216 368.99609375 217 371.663085938 217 372.99609375 c 1
 218 372.99609375 l 1
 218.666992188 376.99609375 220.333984375 379.99609375 223.000976562 381.99609375 c 2
 231.000976562 391.99609375 l 1
 232.000976562 392.99609375 l 1
 95.0009765625 392.99609375 l 1
 95.0009765625 416.99609375 l 1
 133.000976562 416.99609375 l 1
 140.333984375 421.663085938 147.666992188 428.830078125 155 438.497070312 c 0
 162.333007812 448.1640625 166 453.331054688 166 453.998046875 c 2
 166 454.998046875 l 1
 180 477.665039062 190.666992188 508.33203125 198 546.999023438 c 0
 205.333007812 569.666015625 213 587.333007812 221 600 c 1
 221 601 l 1
 225.666992188 607.666992188 229 612 231 614 c 1
150.000976562 195.995117188 m 1
 207.001953125 195.995117188 l 1
 217.001953125 203.328125 227.334960938 214.495117188 238.001953125 229.495117188 c 0
 248.668945312 244.495117188 257.668945312 265.995117188 265.001953125 293.995117188 c 0
 272.334960938 321.995117188 279.334960938 344.995117188 286.001953125 362.995117188 c 1
 287.001953125 362.995117188 l 1
 288.334960938 368.995117188 294.66796875 378.995117188 306.000976562 392.995117188 c 1
 253.000976562 392.995117188 l 1
 244.333984375 387.662109375 236.000976562 379.662109375 228.000976562 368.995117188 c 1
 228.000976562 367.995117188 l 1
 217.333984375 357.328125 208.000976562 330.995117188 200.000976562 288.995117188 c 0
 194.000976562 264.328125 187.833984375 247.495117188 181.500976562 238.495117188 c 0
 175.16796875 229.495117188 171.66796875 223.995117188 171.000976562 221.995117188 c 2
 171.000976562 220.995117188 l 1
 159.000976562 204.995117188 l 1
 150.000976562 195.995117188 l 1
224.001953125 195.995117188 m 1
 295.000976562 195.997070312 l 1
 304.333984375 203.330078125 312.333984375 211.663085938 319.000976562 220.99609375 c 0
 319.66796875 220.99609375 320.000976562 221.329101562 320.000976562 221.99609375 c 0
 331.333984375 236.663085938 340.000976562 254.163085938 346.000976562 274.49609375 c 0
 352.000976562 294.829101562 356.66796875 311.329101562 360.000976562 323.99609375 c 0
 363.333984375 336.663085938 368.000976562 349.663085938 374.000976562 362.99609375 c 1
 375.000976562 362.99609375 l 1
 375.000976562 363.99609375 l 1
 379.66796875 373.99609375 385.66796875 383.663085938 393.000976562 392.99609375 c 1
 327.000976562 392.99609375 l 2
 321.66796875 389.663085938 317.334960938 386.49609375 314.001953125 383.49609375 c 0
 310.668945312 380.49609375 305.168945312 372.663085938 297.501953125 359.99609375 c 0
 289.834960938 347.329101562 284.001953125 332.329101562 280.001953125 314.99609375 c 0
 276.001953125 297.663085938 273.334960938 286.663085938 272.001953125 281.99609375 c 0
 264.668945312 255.329101562 251.668945312 229.662109375 233.001953125 204.995117188 c 1
 224.001953125 195.995117188 l 1
312.000976562 195.997070312 m 1
 382.001953125 195.99609375 l 1
 396.001953125 205.99609375 408.668945312 221.663085938 420.001953125 242.99609375 c 1
 421.001953125 242.99609375 l 1
 421.001953125 243.663085938 421.668945312 245.330078125 423.001953125 247.997070312 c 2
 432.001953125 267.997070312 l 2
 437.334960938 284.6640625 441.834960938 300.6640625 445.501953125 315.997070312 c 0
 449.168945312 331.330078125 456.001953125 349.997070312 466.001953125 371.997070312 c 1
 469.001953125 375.997070312 l 1
 473.001953125 382.997070312 l 1
 481.001953125 392.997070312 l 1
 415.001953125 392.997070312 l 1
 390.334960938 376.330078125 372.334960938 340.997070312 361.001953125 286.997070312 c 0
 356.334960938 263.6640625 346.66796875 241.6640625 332.000976562 220.997070312 c 1
 332.000976562 219.997070312 l 1
 331.333984375 219.997070312 327.333984375 214.997070312 320.000976562 204.997070312 c 2
 312.000976562 195.997070312 l 1
557.001953125 361.99609375 m 1
 557.001953125 363.329101562 563.334960938 373.662109375 576.001953125 392.995117188 c 1
 503.001953125 392.995117188 l 1
 494.334960938 387.662109375 487.001953125 381.329101562 481.001953125 373.99609375 c 2
 474.001953125 363.99609375 l 1
 474.001953125 362.99609375 l 1
 473.001953125 362.99609375 l 1
 465.001953125 347.663085938 457.334960938 325.99609375 450.001953125 297.99609375 c 0
 442.668945312 269.99609375 435.001953125 248.663085938 427.001953125 233.99609375 c 1
 427.001953125 232.99609375 l 2
 425.668945312 231.663085938 422.001953125 225.663085938 416.001953125 214.99609375 c 0
 411.334960938 210.329101562 405.66796875 203.99609375 399.000976562 195.99609375 c 1
 478.000976562 195.99609375 l 1
 482.66796875 199.99609375 487.66796875 204.329101562 493.000976562 208.99609375 c 0
 497.66796875 214.99609375 502.66796875 221.329101562 508.000976562 227.99609375 c 1
 508.000976562 228.99609375 l 1
 520.66796875 247.663085938 530.334960938 270.663085938 537.001953125 297.99609375 c 0
 545.001953125 329.99609375 551.334960938 351.329101562 556.001953125 361.99609375 c 1
 557.001953125 361.99609375 l 1
495.001953125 195.99609375 m 1
 573.00390625 195.995117188 l 1
 585.670898438 206.662109375 596.00390625 218.329101562 604.00390625 230.99609375 c 1
 605.00390625 230.99609375 l 1
 605.00390625 231.99609375 l 1
 614.336914062 246.663085938 622.669921875 265.99609375 630.002929688 289.99609375 c 0
 640.002929688 334.663085938 654.002929688 368.99609375 672.002929688 392.99609375 c 1
 598.002929688 392.99609375 l 1
 591.3359375 388.99609375 583.668945312 382.329101562 575.001953125 372.99609375 c 1
 575.001953125 371.99609375 l 1
 574.334960938 371.99609375 573.334960938 370.99609375 572.001953125 368.99609375 c 2
 572.001953125 367.99609375 l 2
 568.668945312 365.99609375 567.001953125 362.99609375 567.001953125 358.99609375 c 1
 566.001953125 358.99609375 l 1
 556.668945312 340.99609375 549.3359375 317.663085938 544.002929688 288.99609375 c 0
 538.002929688 264.329101562 531.8359375 247.49609375 525.502929688 238.49609375 c 0
 519.169921875 229.49609375 515.669921875 223.99609375 515.002929688 221.99609375 c 2
 515.002929688 220.99609375 l 1
 503.002929688 204.99609375 l 2
 500.3359375 202.329101562 497.668945312 199.329101562 495.001953125 195.99609375 c 1
655.00390625 195.995117188 m 1
 682.336914062 215.328125 696.00390625 232.663085938 696.00390625 247.99609375 c 0
 696.00390625 248.663085938 697.670898438 253.330078125 701.00390625 261.997070312 c 0
 708.336914062 277.997070312 713.836914062 294.330078125 717.50390625 310.997070312 c 0
 721.170898438 327.6640625 727.00390625 345.331054688 735.00390625 363.998046875 c 1
 735.00390625 364.998046875 l 1
 740.336914062 375.665039062 746.669921875 384.998046875 754.002929688 392.998046875 c 1
 693.002929688 392.998046875 l 1
 686.3359375 388.998046875 679.002929688 382.331054688 671.002929688 372.998046875 c 1
 671.002929688 371.998046875 l 1
 661.002929688 361.331054688 653.3359375 344.6640625 648.002929688 321.997070312 c 0
 642.669921875 299.330078125 638.836914062 283.663085938 636.50390625 274.99609375 c 0
 634.170898438 266.329101562 628.00390625 252.662109375 618.00390625 233.995117188 c 1
 618.00390625 232.995117188 l 2
 616.670898438 230.995117188 614.50390625 227.495117188 611.50390625 222.495117188 c 0
 608.50390625 217.495117188 601.336914062 208.662109375 590.00390625 195.995117188 c 1
 655.00390625 195.995117188 l 1
672.00390625 195.997070312 m 2
 759.004882812 195.995117188 l 1
 781.004882812 212.662109375 796.337890625 233.995117188 805.004882812 259.995117188 c 0
 809.004882812 271.995117188 813.004882812 283.328125 817.004882812 293.995117188 c 0
 821.004882812 317.328125 826.337890625 336.828125 833.004882812 352.495117188 c 0
 839.671875 368.162109375 845.004882812 378.329101562 849.004882812 382.99609375 c 0
 853.004882812 387.663085938 855.671875 390.99609375 857.004882812 392.99609375 c 1
 776.004882812 392.99609375 l 1
 764.671875 385.663085938 756.671875 378.663085938 752.004882812 371.99609375 c 0
 745.337890625 362.663085938 737.670898438 343.330078125 729.00390625 313.997070312 c 0
 715.00390625 265.330078125 705.00390625 237.997070312 699.00390625 231.997070312 c 2
 689.00390625 215.997070312 l 1
 681.00390625 205.997070312 l 2
 675.00390625 199.997070312 672.00390625 196.6640625 672.00390625 195.997070312 c 2
190.004882812 481.995117188 m 1
 188.004882812 473.328125 182.337890625 461.6640625 173.004882812 446.997070312 c 1
 173.004882812 445.997070312 l 1
 172.337890625 445.997070312 169.504882812 442.330078125 164.504882812 434.997070312 c 0
 159.504882812 427.6640625 154.671875 421.6640625 150.004882812 416.997070312 c 1
 207.004882812 416.997070312 l 1
 224.337890625 428.997070312 240.337890625 451.330078125 255.004882812 483.997070312 c 2
 261.004882812 498.997070312 l 2
 263.671875 506.997070312 265.671875 515.330078125 267.004882812 523.997070312 c 0
 275.671875 565.997070312 288.671875 595.997070312 306.004882812 613.997070312 c 1
 253.004882812 613.997070312 l 1
 242.337890625 607.997070312 234.837890625 601.1640625 230.504882812 593.497070312 c 0
 226.171875 585.830078125 223.004882812 580.997070312 221.004882812 578.997070312 c 0
 212.337890625 560.330078125 206.337890625 543.163085938 203.004882812 527.49609375 c 0
 199.671875 511.829101562 195.671875 496.662109375 191.004882812 481.995117188 c 1
 190.004882812 481.995117188 l 1
224.004882812 416.998046875 m 1
 295.002929688 416.999023438 l 1
 302.3359375 421.666015625 310.668945312 430.666015625 320.001953125 443.999023438 c 2
 332.001953125 461.999023438 l 2
 342.668945312 481.999023438 350.001953125 501.166015625 354.001953125 519.499023438 c 0
 358.001953125 537.83203125 361.334960938 550.665039062 364.001953125 557.998046875 c 0
 366.668945312 565.331054688 369.668945312 573.498046875 373.001953125 582.498046875 c 0
 376.334960938 591.498046875 383.001953125 601.998046875 393.001953125 613.998046875 c 1
 327.001953125 613.998046875 l 1
 319.668945312 609.998046875 313.8359375 604.998046875 309.502929688 598.998046875 c 0
 305.169921875 592.998046875 302.336914062 589.665039062 301.00390625 588.998046875 c 0
 289.670898438 570.998046875 281.337890625 549.665039062 276.004882812 524.998046875 c 0
 270.671875 500.331054688 263.671875 478.998046875 255.004882812 460.998046875 c 1
 255.004882812 459.998046875 l 1
 246.337890625 443.998046875 239.504882812 433.498046875 234.504882812 428.498046875 c 0
 229.504882812 423.498046875 226.004882812 419.665039062 224.004882812 416.998046875 c 1
312.002929688 416.999023438 m 1
 382.00390625 416.997070312 l 1
 409.336914062 436.997070312 429.669921875 474.6640625 443.002929688 529.997070312 c 0
 446.3359375 543.330078125 451.668945312 559.997070312 459.001953125 579.997070312 c 1
 460.001953125 579.997070312 l 1
 460.001953125 580.6640625 462.501953125 585.331054688 467.501953125 593.998046875 c 0
 472.501953125 602.665039062 477.001953125 609.33203125 481.001953125 613.999023438 c 1
 415.001953125 613.999023438 l 1
 405.668945312 607.999023438 397.668945312 600.666015625 391.001953125 591.999023438 c 0
 377.668945312 571.999023438 367.3359375 543.33203125 360.002929688 505.999023438 c 0
 356.002929688 492.666015625 350.3359375 477.999023438 343.002929688 461.999023438 c 0
 337.669921875 453.33203125 331.669921875 443.33203125 325.002929688 431.999023438 c 0
 319.002929688 425.33203125 314.669921875 420.33203125 312.002929688 416.999023438 c 1
502.00390625 613.997070312 m 1
 492.670898438 607.997070312 484.002929688 599.663085938 476.002929688 588.99609375 c 1
 476.002929688 587.99609375 l 1
 475.002929688 586.99609375 l 1
 465.669921875 570.99609375 458.669921875 552.829101562 454.002929688 532.49609375 c 0
 449.3359375 512.163085938 446.002929688 498.99609375 444.002929688 492.99609375 c 0
 442.002929688 486.99609375 439.8359375 481.49609375 437.502929688 476.49609375 c 0
 435.169921875 471.49609375 434.002929688 468.663085938 434.002929688 467.99609375 c 0
 434.002929688 467.329101562 431.669921875 462.99609375 427.002929688 454.99609375 c 2
 421.002929688 444.99609375 l 2
 413.002929688 433.663085938 405.669921875 424.330078125 399.002929688 416.997070312 c 1
 478.002929688 416.997070312 l 1
 484.002929688 421.6640625 490.3359375 427.997070312 497.002929688 435.997070312 c 0
 503.669921875 443.997070312 506.669921875 447.997070312 506.002929688 447.997070312 c 1
 506.002929688 448.997070312 l 1
 504.002929688 448.330078125 505.3359375 449.997070312 510.002929688 453.997070312 c 1
 510.002929688 454.997070312 l 1
 511.002929688 455.997070312 l 1
 524.3359375 479.330078125 532.8359375 499.830078125 536.502929688 517.497070312 c 0
 540.169921875 535.1640625 543.336914062 548.331054688 546.00390625 556.998046875 c 2
 552.00390625 571.998046875 l 2
 556.00390625 584.665039062 558.670898438 590.998046875 560.00390625 590.998046875 c 0
 560.670898438 594.998046875 562.670898438 597.998046875 566.00390625 599.998046875 c 2
 566.00390625 600.998046875 l 1
 570.00390625 606.331054688 573.336914062 610.6640625 576.00390625 613.997070312 c 1
 502.00390625 613.997070312 l 1
568.002929688 583.99609375 m 2
 566.002929688 578.995117188 l 1
 559.002929688 564.995117188 l 2
 554.3359375 552.328125 550.8359375 539.995117188 548.502929688 527.995117188 c 0
 546.169921875 515.995117188 539.669921875 495.662109375 529.002929688 466.995117188 c 1
 528.002929688 466.995117188 l 1
 524.669921875 458.328125 523.002929688 454.995117188 523.002929688 456.995117188 c 1
 523.002929688 456.328125 521.002929688 452.995117188 517.002929688 446.995117188 c 1
 517.002929688 445.995117188 l 1
 516.3359375 445.995117188 513.502929688 442.328125 508.502929688 434.995117188 c 0
 503.502929688 427.662109375 499.002929688 421.662109375 495.002929688 416.995117188 c 1
 573.002929688 416.995117188 l 1
 587.669921875 427.662109375 602.002929688 446.662109375 616.002929688 473.995117188 c 2
 622.002929688 486.995117188 l 2
 627.3359375 501.662109375 632.3359375 518.662109375 637.002929688 537.995117188 c 0
 641.669921875 557.328125 645.669921875 570.495117188 649.002929688 577.495117188 c 0
 652.3359375 584.495117188 654.502929688 588.828125 655.502929688 590.495117188 c 0
 656.502929688 592.162109375 657.3359375 593.995117188 658.002929688 595.995117188 c 0
 658.669921875 597.995117188 659.669921875 598.995117188 661.002929688 598.995117188 c 1
 661.002929688 599.995117188 l 2
 663.002929688 602.662109375 666.669921875 607.329101562 672.002929688 613.99609375 c 1
 598.002929688 613.99609375 l 1
 587.3359375 607.99609375 577.3359375 597.99609375 568.002929688 583.99609375 c 2
655.002929688 416.995117188 m 1
 671.002929688 428.995117188 683.670898438 444.663085938 693.00390625 463.99609375 c 1
 694.00390625 463.99609375 l 1
 694.00390625 464.663085938 696.336914062 469.99609375 701.00390625 479.99609375 c 0
 706.336914062 493.99609375 712.169921875 512.829101562 718.502929688 536.49609375 c 0
 724.8359375 560.163085938 730.002929688 576.49609375 734.002929688 585.49609375 c 0
 738.002929688 594.49609375 744.669921875 603.99609375 754.002929688 613.99609375 c 1
 693.002929688 613.99609375 l 1
 681.002929688 604.99609375 l 1
 672.002929688 595.99609375 l 2
 660.002929688 580.663085938 649.8359375 555.163085938 641.502929688 519.49609375 c 0
 633.169921875 483.829101562 618.669921875 452.662109375 598.002929688 425.995117188 c 0
 596.669921875 424.662109375 594.002929688 421.662109375 590.002929688 416.995117188 c 1
 655.002929688 416.995117188 l 1
776.00390625 613.99609375 m 1
 768.670898438 609.99609375 759.669921875 601.662109375 749.002929688 588.995117188 c 1
 749.002929688 587.995117188 l 1
 740.3359375 579.328125 732.002929688 557.828125 724.002929688 523.495117188 c 0
 716.002929688 489.162109375 707.3359375 465.329101562 698.002929688 451.99609375 c 0
 688.669921875 438.663085938 684.002929688 431.663085938 684.002929688 430.99609375 c 2
 684.002929688 429.99609375 l 2
 682.002929688 427.99609375 680.002929688 425.829101562 678.002929688 423.49609375 c 0
 676.002929688 421.163085938 674.002929688 418.99609375 672.002929688 416.99609375 c 1
 759.002929688 416.99609375 l 1
 771.002929688 425.663085938 781.3359375 437.663085938 790.002929688 452.99609375 c 1
 791.002929688 452.99609375 l 1
 791.002929688 454.99609375 l 1
 803.669921875 477.663085938 814.336914062 506.163085938 823.00390625 540.49609375 c 0
 831.670898438 574.829101562 838.00390625 591.99609375 842.00390625 591.99609375 c 0
 842.670898438 595.99609375 844.337890625 598.329101562 847.004882812 598.99609375 c 2
 847.004882812 599.99609375 l 1
 852.337890625 607.329101562 855.670898438 611.99609375 857.00390625 613.99609375 c 1
 776.00390625 613.99609375 l 1
EndSplineSet
Validated: 524289
EndChar

StartChar: nine
Encoding: 57 57 24
Width: 1000
GlyphClass: 1
Flags: MW
HStem: 310.742 22.5244
VStem: 290.63 14.3447 363.083 14.2227 435.476 14.2832 589.659 14.3447 660.158 14.3447 745.917 14.2832 822.095 14.3438 894.547 14.2832 966.878 14.3438
LayerCount: 2
Fore
SplineSet
16.0146484375 333.266601562 m 1
 74.67578125 333.276367188 l 1
 119.560546875 340.431640625 164.596679688 357.0546875 209.78515625 383.145507812 c 0
 254.596679688 409.0546875 281.544921875 437.03125 290.629882812 467.07421875 c 1
 304.974609375 466.890625 l 1
 300.993164062 440.969726562 281.053710938 415.262695312 245.155273438 389.768554688 c 0
 209.719726562 364.595703125 170.390625 345.764648438 127.16796875 333.275390625 c 1
 147.005859375 333.275390625 l 1
 192.336914062 340.430664062 237.393554688 357.053710938 282.17578125 383.14453125 c 0
 327.393554688 409.053710938 354.362304688 437.030273438 363.083007812 467.073242188 c 1
 377.305664062 466.889648438 l 1
 373.103515625 440.96875 353.184570312 415.26171875 317.548828125 389.767578125 c 0
 281.8515625 364.594726562 242.54296875 345.763671875 199.622070312 333.274414062 c 1
 219.3984375 333.274414062 l 1
 264.467773438 340.4296875 309.524414062 357.052734375 354.568359375 383.143554688 c 0
 399.524414062 409.052734375 426.493164062 437.029296875 435.475585938 467.072265625 c 1
 449.758789062 466.888671875 l 1
 445.25390625 440.967773438 425.314453125 415.260742188 389.940429688 389.766601562 c 0
 353.981445312 364.59375 314.672851562 345.762695312 272.012695312 333.2734375 c 1
 297.526367188 333.2734375 l 1
 342.509765625 340.428710938 387.557617188 357.051757812 432.66796875 383.142578125 c 0
 477.557617188 409.051757812 488.49609375 437.028320312 497.483398438 467.071289062 c 1
 527.827148438 466.887695312 l 1
 523.27734375 440.966796875 503.348632812 415.259765625 468.041015625 389.765625 c 0
 432.682617188 364.592773438 393.36328125 345.76171875 350.083007812 333.272460938 c 1
 373.705078125 333.272460938 l 1
 418.5703125 340.427734375 463.626953125 357.05078125 508.875976562 383.141601562 c 0
 553.626953125 409.05078125 580.5546875 437.02734375 589.659179688 467.0703125 c 1
 604.00390625 466.88671875 l 1
 600.002929688 440.965820312 580.073242188 415.258789062 544.215820312 389.764648438 c 0
 508.740234375 364.591796875 469.420898438 345.760742188 426.258789062 333.271484375 c 1
 444.204101562 333.271484375 l 1
 489.40234375 340.426757812 534.438476562 357.049804688 579.3125 383.140625 c 0
 624.438476562 409.049804688 651.38671875 437.026367188 660.158203125 467.069335938 c 1
 674.502929688 466.885742188 l 1
 670.16796875 440.96484375 650.23828125 415.2578125 614.713867188 389.763671875 c 0
 578.904296875 364.590820312 539.60546875 345.759765625 496.817382812 333.270507812 c 1
 529.83984375 333.270507812 l 1
 575.280273438 340.42578125 620.336914062 357.048828125 665.009765625 383.139648438 c 0
 709.669921875 409.048828125 736.638671875 437.025390625 745.916992188 467.068359375 c 1
 760.200195312 466.884765625 l 1
 756.06640625 440.963867188 736.147460938 415.256835938 700.443359375 389.762695312 c 0
 664.814453125 364.58984375 625.485351562 345.758789062 582.455078125 333.26953125 c 1
 606.078125 333.26953125 l 1
 651.359375 340.424804688 696.427734375 357.047851562 741.279296875 383.138671875 c 0
 786.426757812 409.047851562 813.365234375 437.0234375 822.094726562 467.067382812 c 1
 836.438476562 466.883789062 l 1
 832.146484375 440.962890625 812.20703125 415.255859375 776.620117188 389.760742188 c 0
 740.873046875 364.587890625 701.543945312 345.756835938 658.6328125 333.267578125 c 1
 678.469726562 333.267578125 l 1
 723.490234375 340.422851562 768.546875 357.045898438 813.639648438 383.13671875 c 0
 858.546875 409.045898438 885.515625 437.022460938 894.546875 467.065429688 c 1
 908.830078125 466.881835938 l 1
 904.276367188 440.9609375 884.336914062 415.25390625 849.01171875 389.759765625 c 0
 813.670898438 364.586914062 774.362304688 345.755859375 731.084960938 333.266601562 c 1
 750.861328125 333.266601562 l 1
 796.287109375 340.421875 841.34375 357.044921875 886.033203125 383.135742188 c 0
 931.344726562 409.044921875 958.29296875 437.021484375 966.877929688 467.064453125 c 1
 981.221679688 466.880859375 l 1
 977.07421875 440.959960938 957.145507812 415.252929688 921.435546875 389.758789062 c 0
 885.8125 364.5859375 846.493164062 345.754882812 803.477539062 333.265625 c 1
 981 332.999023438 l 1
 981 310.475585938 l 1
 16.015625 310.7421875 l 1
 16.015625 333.265625 l 1
 16.0146484375 333.266601562 l 1
EndSplineSet
Validated: 524289
EndChar

StartChar: colon
Encoding: 58 58 25
Width: 1000
GlyphClass: 1
Flags: MW
HStem: 301 15<306 531 306 551 687 912> 365 15<306 306 306 531 687 912 687 687> 422 15<85 311 85 331 466 691> 486 15<85 85 85 311 466 691 466 466>
VStem: 65 20<437 486 437 501 437 501> 286 20<316 365 316 380 316 380> 311 20<437 486 486 486> 446 20<437 486 437 501 437 501> 531 20<316 365 365 365> 667 20<316 365 316 380 316 380> 691 20<437 486 486 486> 912 20<316 365 365 365>
LayerCount: 2
Fore
SplineSet
65 501 m 1
 331 501 l 1
 331 422 l 1
 65 422 l 1
 65 501 l 1
85 486 m 1
 85 437 l 1
 311 437 l 1
 311 486 l 1
 85 486 l 1
446 501 m 1
 711 501 l 1
 711 422 l 1
 446 422 l 1
 446 501 l 1
466 486 m 1
 466 437 l 1
 691 437 l 1
 691 486 l 1
 466 486 l 1
286 380 m 1
 551 380 l 1
 551 301 l 1
 286 301 l 1
 286 380 l 1
306 365 m 1
 306 316 l 1
 531 316 l 1
 531 365 l 1
 306 365 l 1
667 380 m 1
 932 380 l 1
 932 301 l 1
 667 301 l 1
 667 380 l 1
687 365 m 1
 687 316 l 1
 912 316 l 1
 912 365 l 1
 687 365 l 1
EndSplineSet
Validated: 1
EndChar

StartChar: semicolon
Encoding: 59 59 26
Width: 1000
GlyphClass: 1
Flags: MW
HStem: 299 79<284 549 284 549 665 930> 420 79<63 329 63 329 444 709>
LayerCount: 2
Fore
SplineSet
63 499 m 1
 329 499 l 1
 329 420 l 1
 63 420 l 1
 63 499 l 1
444 499 m 1
 709 499 l 1
 709 420 l 1
 444 420 l 1
 444 499 l 1
284 378 m 1
 549 378 l 1
 549 299 l 1
 284 299 l 1
 284 378 l 1
665 378 m 1
 930 378 l 1
 930 299 l 1
 665 299 l 1
 665 378 l 1
EndSplineSet
Validated: 1
EndChar

StartChar: less
Encoding: 60 60 27
Width: 1000
GlyphClass: 1
Flags: MW
HStem: 319 38<17 982 17 982> 381 38<17 394 594 982 17 394> 517 20G<494 494>
LayerCount: 2
Fore
SplineSet
17 419 m 1
 394 419 l 1
 494 537 l 1
 594 419 l 1
 982 419 l 1
 982 381 l 1
 17 381 l 1
 17 419 l 1
17 357 m 1
 982 357 l 1
 982 319 l 1
 17 319 l 1
 17 357 l 1
EndSplineSet
Validated: 1
EndChar

StartChar: equal
Encoding: 61 61 28
Width: 1000
GlyphClass: 1
Flags: MW
HStem: 333 38<18 395 595 983 18 395> 468 20G<495 495>
LayerCount: 2
Fore
SplineSet
18 371 m 1
 395 371 l 1
 495 488 l 1
 595 371 l 1
 983 371 l 1
 983 333 l 1
 18 333 l 1
 18 371 l 1
EndSplineSet
Validated: 1
EndChar

StartChar: greater
Encoding: 62 62 29
Width: 1000
GlyphClass: 1
Flags: MW
HStem: 335 37<19 984 19 396 596 596 596 984> 430 37<19 396 596 984 19 396> 565 20G<496 496>
LayerCount: 2
Fore
SplineSet
19 467 m 1
 396 467 l 1
 496 585 l 1
 596 467 l 1
 984 467 l 1
 984 430 l 1
 19 430 l 1
 19 467 l 1
19 335 m 1
 19 372 l 1
 984 372 l 1
 984 335 l 1
 596 335 l 1
 496 217 l 1
 396 335 l 1
 19 335 l 1
EndSplineSet
Validated: 1
EndChar

StartChar: question
Encoding: 63 63 30
Width: 1000
GlyphClass: 1
Flags: MW
HStem: 83 21G<488 515 488 488> 343 31<15 980 15 412 587 587 587 980> 425 31<15 412 587 980 15 412>
VStem: 488 27<83 83>
LayerCount: 2
Fore
SplineSet
15 456 m 1
 412 456 l 1
 487 555 l 1
 488 719 l 1
 515 719 l 1
 514 556 l 1
 587 456 l 1
 980 456 l 1
 980 425 l 1
 15 425 l 1
 15 456 l 1
15 343 m 1
 15 374 l 1
 980 374 l 1
 980 343 l 1
 587 343 l 1
 514 243 l 1
 515 83 l 1
 488 83 l 1
 487 244 l 1
 412 343 l 1
 15 343 l 1
EndSplineSet
Validated: 1
EndChar

StartChar: at
Encoding: 64 64 31
Width: 1000
GlyphClass: 1
Flags: MW
HStem: 380 38<17 407 17 407 581 982> 529 20G<494 494>
LayerCount: 2
Fore
SplineSet
17 380 m 1
 17 381 l 1
 17 417 l 1
 17 418 l 1
 407 418 l 1
 494 549 l 1
 581 418 l 1
 982 418 l 1
 982 380 l 1
 581 380 l 1
 494 249 l 1
 407 380 l 1
 17 380 l 1
EndSplineSet
Validated: 1
EndChar

StartChar: A
Encoding: 65 65 32
Width: 1000
GlyphClass: 1
Flags: MW
HStem: 331 38<19 396 596 984 19 396> 466 20G<496 496>
LayerCount: 2
Fore
SplineSet
19 369 m 1
 396 369 l 1
 496 486 l 1
 596 369 l 1
 984 369 l 1
 984 331 l 1
 19 331 l 1
 19 369 l 1
563 368 m 1
 496 444 l 1
 429 368 l 1
 563 368 l 1
EndSplineSet
Validated: 1
EndChar

StartChar: B
Encoding: 66 66 33
Width: 1000
GlyphClass: 1
Flags: MW
HStem: 381 38<13 951 13 951> 478 20G<918 956 956 956>
LayerCount: 2
Fore
SplineSet
986 400 m 2
 986 366.666992188 976 334 956 302 c 1
 918 302 l 1
 936.666992188 330 947.666992188 356.333007812 951 381 c 1
 13 381 l 1
 13 419 l 1
 951 419 l 1
 947 445 936 471.333007812 918 498 c 1
 956 498 l 1
 976 466.666992188 986 436 986 406 c 2
 986 400 l 2
EndSplineSet
Validated: 524289
EndChar

StartChar: C
Encoding: 67 67 34
Width: 1000
GlyphClass: 1
Flags: MW
HStem: 342 37.999 342 158.999
VStem: 17 36<259 342 379.999 453 453 453> 944 39<257 342 342 342 380 454 257 454>
LayerCount: 2
Fore
SplineSet
17 453 m 1xb0
 53 453.999023438 l 1
 53 379.999023438 l 1
 334 379.999023438 l 1xb0
 352 415.999023438 373.833007812 445.166015625 399.5 467.499023438 c 0
 425.166992188 489.83203125 459 500.999023438 501 500.999023438 c 0x70
 548.333007812 500.33203125 585.833007812 486.83203125 613.5 460.499023438 c 0
 641.166992188 434.166015625 659.666992188 407.333007812 669 380 c 1
 944 380 l 1
 944 454 l 1
 983 454 l 1
 983 257 l 1
 944 257 l 1
 944 342 l 1
 53 342 l 1
 53 259 l 1
 17 259 l 1
 17 453 l 1xb0
EndSplineSet
Validated: 524289
EndChar

StartChar: D
Encoding: 68 68 35
Width: 1000
GlyphClass: 1
Flags: MW
HStem: 328 35<25 341 658 968 25 341> 328 150<479 499 479 968>
LayerCount: 2
Fore
SplineSet
25 363 m 1x80
 341 363 l 1x80
 358.333007812 397 379 424.666992188 403 446 c 0
 427 467.333007812 459 478 499 478 c 0x40
 544.333007812 477.333007812 580 464.5 606 439.5 c 0
 632 414.5 649.333007812 389 658 363 c 1
 968 363 l 1
 968 328 l 1
 25 328 l 1
 25 363 l 1x80
EndSplineSet
Validated: 524289
EndChar

StartChar: E
Encoding: 69 69 36
Width: 1000
GlyphClass: 1
Flags: MW
HStem: 380 37<156.999 394.999 602.999 844.999>
VStem: 480.999 37
LayerCount: 2
Fore
SplineSet
518 739 m 1
 517.999023438 502 l 1
 565.999023438 493.333007812 594.33203125 465 602.999023438 417 c 1
 844.999023438 417 l 1
 844.999023438 380 l 1
 602.999023438 380 l 1
 594.33203125 331.333007812 565.999023438 302.666015625 517.999023438 293.999023438 c 1
 517.999023438 43.9990234375 l 1
 480.999023438 43.9990234375 l 1
 480.999023438 293.999023438 l 1
 432.999023438 302.666015625 404.33203125 331.333007812 394.999023438 380 c 1
 156.999023438 377 l 1
 156.999023438 417 l 1
 394.999023438 417 l 1
 403.666015625 465 432.333007812 493.333007812 481 502 c 1
 481 739 l 1
 518 739 l 1
EndSplineSet
Validated: 524289
EndChar

StartChar: F
Encoding: 70 70 37
Width: 1000
GlyphClass: 1
Flags: MW
HStem: 75 21G<481 518 481 481> 290 220<389 481 389 481 518 610 389 518> 381 37<175 389 175 389 610 824 610 610> 705 20G<481 518 518 518>
VStem: 389 221<290 332 332 381 290 381 290 510 290 510> 481 37<75 290 75 290 510 725>
LayerCount: 2
Fore
SplineSet
389 510 m 1xd8
 481 510 l 1
 481 725 l 1
 518 725 l 1
 518 510 l 1xd4
 610 510 l 1xd8
 609 418 l 1
 824 418 l 1
 824 381 l 1
 610 381 l 1xb8
 610 290 l 1xd8
 518 290 l 1
 518 75 l 1
 481 75 l 1
 481 290 l 1xd4
 389 290 l 1xd8
 389 332 l 1
 389 381 l 1
 175 381 l 1
 175 418 l 1
 389 418 l 1xb8
 389 510 l 1xd8
EndSplineSet
Validated: 1
EndChar

StartChar: G
Encoding: 71 71 38
Width: 1000
GlyphClass: 1
Flags: MW
HStem: 291 36<426 481 518 574 426 610 518 518> 382 37<175 389 175 389 610 824 610 610> 475 36<426 426 426 481 518 574>
VStem: 389 37<327 337 337 382 382 382 419 475 327 511 327 511> 481 37<76 291 76 291 511 726> 574 36<327 382 291 475>
LayerCount: 2
Fore
SplineSet
389 511 m 1
 481 511 l 1
 481 726 l 1
 518 726 l 1
 518 511 l 1
 610 511 l 1
 609 419 l 1
 824 419 l 1
 824 382 l 1
 610 382 l 1
 610 291 l 1
 518 291 l 1
 518 76 l 1
 481 76 l 1
 481 291 l 1
 389 291 l 1
 389 337 l 1
 389 382 l 1
 175 382 l 1
 175 419 l 1
 389 419 l 1
 389 511 l 1
426 475 m 1
 426 327 l 1
 574 327 l 1
 574 475 l 1
 426 475 l 1
EndSplineSet
Validated: 1
EndChar

StartChar: H
Encoding: 72 72 39
Width: 1000
GlyphClass: 1
Flags: MW
HStem: 382 37<175 362 175 362 637 824>
VStem: 481 37<76 264 76 264 538 726>
LayerCount: 2
Fore
SplineSet
362 419 m 1
 481 538 l 1
 481 726 l 1
 518 726 l 1
 518 538 l 1
 637 419 l 1
 824 419 l 1
 824 382 l 1
 637 382 l 1
 518 264 l 1
 518 76 l 1
 481 76 l 1
 481 264 l 1
 362 382 l 1
 175 382 l 1
 175 419 l 1
 362 419 l 1
EndSplineSet
Validated: 1
EndChar

StartChar: I
Encoding: 73 73 40
Width: 1000
GlyphClass: 1
Flags: MW
HStem: 74 21G<480 518 480 480> 382 37<175 480 175 480 518 824> 704 20G<480 518 518 518>
VStem: 480 38<74 382 74 382 419 724>
LayerCount: 2
Fore
SplineSet
518 724 m 1
 518 419 l 1
 824 419 l 1
 824 382 l 1
 518 382 l 1
 518 74 l 1
 480 74 l 1
 480 382 l 1
 175 382 l 1
 175 419 l 1
 480 419 l 1
 480 724 l 1
 518 724 l 1
EndSplineSet
Validated: 1
EndChar

StartChar: J
Encoding: 74 74 41
Width: 1000
GlyphClass: 1
Flags: MW
HStem: 292.001 217.999 382 37<17 305 17 305 694.001 982.001>
LayerCount: 2
Fore
SplineSet
17 419 m 1x40
 305 419 l 1x40
 313 444.333007812 335.333007812 465.833007812 372 483.5 c 0
 408.666992188 501.166992188 451.333984375 510 500.000976562 510 c 0x80
 548.66796875 510 591.16796875 501.333007812 627.500976562 484 c 0
 663.833984375 466.666992188 686.000976562 445 694.000976562 419 c 1
 982.000976562 419 l 1
 982.000976562 382 l 1
 694.000976562 382 l 1x40
 686.000976562 356.666992188 663.833984375 335.333984375 627.500976562 318.000976562 c 0
 591.16796875 300.66796875 548.66796875 292.000976562 500.000976562 292.000976562 c 0x80
 451.333984375 292.000976562 408.666992188 300.66796875 372 318.000976562 c 0
 335.333007812 335.333984375 313 356.666992188 305 382 c 1
 17 382 l 1
 17 419 l 1x40
EndSplineSet
Validated: 524289
EndChar

StartChar: K
Encoding: 75 75 42
Width: 1000
GlyphClass: 1
Flags: MW
HStem: 196.999 41 513.999 40
VStem: 241 54<355.999 395.999 355.999 407.333> 679.999 54.001
LayerCount: 2
Fore
SplineSet
734 376 m 0
 734 319.333007812 704 273.33203125 644 237.999023438 c 1
 979 237.999023438 l 1
 979 196.999023438 l 1
 488 196.999023438 l 2
 420 196.999023438 361.833007812 214.499023438 313.5 249.499023438 c 0
 265.166992188 284.499023438 241 328.33203125 241 380.999023438 c 0
 241 433.666015625 271.333007812 477.999023438 332 513.999023438 c 1
 14 513.999023438 l 1
 14 553.999023438 l 1
 502 553.999023438 l 2
 566.666992188 551.33203125 621.5 532.83203125 666.5 498.499023438 c 0
 711.5 464.166015625 734 423.333007812 734 376 c 0
488 513.999023438 m 0
 432.666992188 513.999023438 386.666992188 500.999023438 350 474.999023438 c 0
 313.333007812 448.999023438 295 415.999023438 295 375.999023438 c 0
 295 335.999023438 313.333007812 302.999023438 350 276.999023438 c 0
 386.666992188 250.999023438 432.666992188 237.999023438 488 237.999023438 c 0
 543.333007812 237.999023438 589.166015625 250.999023438 625.499023438 276.999023438 c 0
 661.83203125 302.999023438 679.999023438 335.999023438 679.999023438 375.999023438 c 0
 679.999023438 415.999023438 661.83203125 448.999023438 625.499023438 474.999023438 c 0
 589.166015625 500.999023438 543.333007812 513.999023438 488 513.999023438 c 0
EndSplineSet
Validated: 524289
EndChar

StartChar: L
Encoding: 76 76 43
Width: 1000
GlyphClass: 1
Flags: MW
HStem: 593.001 20G
LayerCount: 2
Fore
SplineSet
17 546 m 1
 98.3330078125 590.666992188 191.666015625 613.000976562 296.999023438 613.000976562 c 0
 345.666015625 613.000976562 389.666015625 607.000976562 428.999023438 595.000976562 c 0
 473.666015625 583.66796875 511.666015625 560.500976562 542.999023438 525.500976562 c 0
 574.33203125 490.500976562 608.33203125 454.66796875 644.999023438 418.000976562 c 0
 680.999023438 381.333984375 725.33203125 348.333984375 777.999023438 319.000976562 c 0
 825.999023438 292.333984375 883.999023438 279.000976562 951.999023438 279.000976562 c 2
 965.999023438 279.000976562 l 1
 981.999023438 279.000976562 l 1
 940.666015625 248.333984375 887.333007812 220.666992188 822 196 c 0
 744 166 668.333007812 151 595 151 c 0
 540.333007812 151 491 160 447 178 c 0
 391.666992188 200.666992188 352.333984375 244 329.000976562 308 c 1
 266.333984375 408.666992188 211.666992188 474.666992188 165 506 c 0
 143 520.666992188 120 530 96 534 c 0
 73.3330078125 537.333007812 47 541.333007812 17 546 c 1
EndSplineSet
Validated: 524289
EndChar

StartChar: M
Encoding: 77 77 44
Width: 1000
GlyphClass: 1
Flags: MW
HStem: 145 44.999 574.999 32
LayerCount: 2
Fore
SplineSet
850 250 m 1
 786.666992188 257.333007812 737.165039062 274.165039062 701.498046875 300.498046875 c 0
 665.831054688 326.831054688 636.1640625 355.831054688 612.497070312 387.498046875 c 0
 588.830078125 419.165039062 566.997070312 449.33203125 546.997070312 477.999023438 c 0
 529.6640625 504.666015625 500.831054688 527.499023438 460.498046875 546.499023438 c 0
 420.165039062 565.499023438 370.83203125 574.999023438 312.499023438 574.999023438 c 0
 254.166015625 574.999023438 202.666015625 566.33203125 157.999023438 548.999023438 c 1
 201.999023438 535.666015625 236.666015625 517.666015625 261.999023438 494.999023438 c 0
 287.33203125 472.33203125 321.999023438 420.33203125 365.999023438 338.999023438 c 1
 376.666015625 289.666015625 403.166015625 252.499023438 445.499023438 227.499023438 c 0
 487.83203125 202.499023438 540.999023438 189.999023438 604.999023438 189.999023438 c 0
 644.33203125 189.999023438 686.33203125 195.33203125 730.999023438 205.999023438 c 0
 775.666015625 216.666015625 815.333007812 231.333007812 850 250 c 1
17.998046875 539.999023438 m 1
 99.3310546875 584.666015625 200.665039062 606.999023438 321.998046875 606.999023438 c 0
 355.331054688 606.999023438 391.331054688 600.999023438 429.998046875 588.999023438 c 0
 481.331054688 572.999023438 519.331054688 549.999023438 543.998046875 519.999023438 c 0
 575.331054688 480.666015625 607.998046875 441.999023438 641.998046875 403.999023438 c 0
 688.665039062 351.33203125 732.998046875 318.33203125 774.998046875 304.999023438 c 0
 823.665039062 289.666015625 891.665039062 276.333007812 978.998046875 265 c 1
 951.665039062 244.333007812 896.33203125 218 812.999023438 186 c 0
 741.666015625 158.666992188 662.999023438 145 576.999023438 145 c 0
 536.33203125 145 493.33203125 154 447.999023438 172 c 0
 393.33203125 193.333007812 353.999023438 236.666015625 329.999023438 301.999023438 c 1
 267.33203125 402.666015625 212.665039062 468.666015625 165.998046875 499.999023438 c 0
 143.998046875 514.666015625 120.998046875 523.999023438 96.998046875 527.999023438 c 0
 74.3310546875 531.33203125 47.998046875 535.33203125 17.998046875 539.999023438 c 1
EndSplineSet
Validated: 524289
EndChar

StartChar: N
Encoding: 78 78 45
Width: 1000
GlyphClass: 1
Flags: MW
HStem: 223.001 350.999
LayerCount: 2
Fore
SplineSet
980 404 m 1
 843.333007812 312.666992188 728.66796875 258.000976562 636.000976562 240.000976562 c 0
 578.66796875 228.66796875 527.334960938 223.000976562 482.001953125 223.000976562 c 0
 445.334960938 223.000976562 413.334960938 226.000976562 386.001953125 232.000976562 c 0
 317.334960938 247.333984375 252.66796875 271.666992188 192.000976562 305 c 0
 81.333984375 367 22.333984375 399.333007812 15.0009765625 402 c 1
 100.333984375 458.666992188 201.000976562 505.666992188 317.000976562 543 c 0
 381.66796875 563.666992188 441.66796875 574 497.000976562 574 c 0
 580.333984375 574 661.666992188 554.166992188 741 514.5 c 0
 820.333007812 474.833007812 900 438 980 404 c 1
EndSplineSet
Validated: 524289
EndChar

StartChar: O
Encoding: 79 79 46
Width: 1000
GlyphClass: 1
Flags: MW
HStem: 221 34.999 535.998 36.002
LayerCount: 2
Fore
SplineSet
983 402 m 1
 846.333007812 312 731.666015625 257.333007812 638.999023438 238 c 0
 584.999023438 226.666992188 537.33203125 221 495.999023438 221 c 0
 390.666015625 221 290.333007812 248 195 302 c 0
 77.6669921875 368 18.6669921875 401.166992188 18 401.5 c 1
 94.6669921875 452.5 191.666992188 497.333007812 309 536 c 0
 381 560 449 572 513 572 c 0
 585 572 658.666992188 554 734 518 c 0
 811.333007812 480.666992188 894.333007812 442 983 402 c 1
885 401 m 1
 807 435 741.000976562 465.331054688 687.000976562 491.998046875 c 0
 627.000976562 521.331054688 565.000976562 535.998046875 501.000976562 535.998046875 c 0
 456.333984375 535.998046875 404.666992188 526.331054688 346 506.998046875 c 0
 250 475.665039062 173.333007812 440.498046875 116 401.498046875 c 1
 163.333007812 375.165039062 210.333007812 348.33203125 257 320.999023438 c 0
 331 277.666015625 410.666992188 255.999023438 496 255.999023438 c 0
 528.666992188 255.999023438 567 260.666015625 611 269.999023438 c 0
 687 286.666015625 778.333007812 330.333007812 885 401 c 1
EndSplineSet
Validated: 524289
EndChar

StartChar: P
Encoding: 80 80 47
Width: 1000
GlyphClass: 1
Flags: MW
HStem: 74.999 39.001 644.999 33
VStem: 260 46<144.666 150 142 150.999> 477 64<362.333 380> 706.001 48
LayerCount: 2
Fore
SplineSet
423 125 m 0
 485.666992188 155 546.66796875 190.998046875 606.000976562 232.998046875 c 0
 660.66796875 271.665039062 693.000976562 310.998046875 703.000976562 350.998046875 c 0
 705.000976562 358.998046875 706.000976562 370.331054688 706.000976562 384.998046875 c 0
 706.000976562 433.665039062 667.333984375 485.665039062 590.000976562 540.998046875 c 0
 519.333984375 591.665039062 453.333984375 625.33203125 392.000976562 641.999023438 c 0
 388.000976562 643.33203125 377.66796875 644.33203125 361.000976562 644.999023438 c 0
 349.000976562 645.666015625 339.66796875 642.666015625 333.000976562 635.999023438 c 0
 325.000976562 627.999023438 321.333984375 622.33203125 322.000976562 618.999023438 c 0
 323.333984375 606.999023438 337.000976562 592.666015625 363.000976562 575.999023438 c 0
 392.333984375 557.33203125 426.666992188 531.33203125 466 497.999023438 c 0
 507.333007812 462.666015625 531.333007812 430.333007812 538 401 c 0
 540 392.333007812 541 384 541 376 c 0
 541 369.333007812 540 361 538 351 c 0
 534 330.333007812 504.666992188 301.333007812 450 264 c 0
 400 230 356 197.333007812 318 166 c 0
 310 159.333007812 306 153 306 147 c 0
 306 137 316.333007812 129 337 123 c 0
 357.666992188 117 375 114 389 114 c 0
 403 114 414.333007812 117.666992188 423 125 c 0
422.000976562 82.998046875 m 0
 410.66796875 77.6650390625 402.333007812 74.9990234375 397 74.9990234375 c 0
 388.333007812 74.9990234375 376.833007812 75.9990234375 362.5 77.9990234375 c 0
 348.166992188 79.9990234375 331 85.9990234375 311 95.9990234375 c 0
 289.666992188 105.999023438 276 115.33203125 270 123.999023438 c 0
 263.333007812 133.33203125 260 141.33203125 260 147.999023438 c 0
 260 153.999023438 263.666992188 160.33203125 271 166.999023438 c 0
 295 188.33203125 338 219.999023438 400 261.999023438 c 0
 444.666992188 291.999023438 469.666992188 319.666015625 475 344.999023438 c 0
 476.333007812 351.666015625 477 358.666015625 477 365.999023438 c 0
 477 375.999023438 476 389.666015625 474 406.999023438 c 0
 470 441.666015625 440 476.666015625 384 511.999023438 c 0
 334.666992188 542.666015625 297.333984375 576.333007812 272.000976562 613 c 0
 267.333984375 620.333007812 265.000976562 626.666015625 265.000976562 631.999023438 c 0
 265.66796875 643.999023438 275.66796875 654.666015625 295.000976562 663.999023438 c 0
 314.333984375 673.33203125 332.333984375 677.999023438 349.000976562 677.999023438 c 0
 365.000976562 677.999023438 379.66796875 676.33203125 393.000976562 672.999023438 c 0
 463.000976562 655.666015625 539.66796875 619.333007812 623.000976562 564 c 0
 710.333984375 506 754.000976562 443.666992188 754.000976562 377 c 0
 754.000976562 366.333007812 752.66796875 355.666015625 750.000976562 344.999023438 c 0
 738.000976562 296.33203125 701.333984375 250.665039062 640.000976562 207.998046875 c 0
 574.000976562 162.665039062 501.333984375 120.998046875 422.000976562 82.998046875 c 0
EndSplineSet
Validated: 524289
EndChar

StartChar: Q
Encoding: 81 81 48
Width: 1000
GlyphClass: 1
Flags: MW
HStem: 150 86<279.667 285.665 230.332 347.667> 180 79.001 526.002 86.998 562.001 77.999
VStem: 17 47.998 934.997 47.002
LayerCount: 2
Fore
SplineSet
512 488 m 1x9c
 517.997070312 488.000976562 l 1
 548.6640625 531.333984375 577.331054688 561.666992188 603.998046875 579 c 0
 639.331054688 601.666992188 681.331054688 613 729.998046875 613 c 0
 804.665039062 613 865.33203125 592 911.999023438 550 c 0
 958.666015625 508 981.999023438 452.333007812 981.999023438 383 c 0
 981.999023438 319.666992188 963.999023438 270 927.999023438 234 c 0
 891.999023438 198 846.33203125 180 790.999023438 180 c 0x6c
 749.666015625 180 711.333007812 189.666992188 676 209 c 0
 641.333007812 228.333007812 604.666015625 264.333007812 565.999023438 317 c 1
 559.999023438 317 l 1
 521.999023438 249 485.666015625 204 450.999023438 182 c 0
 417.666015625 160.666992188 374.333007812 150 321 150 c 0
 238.333007812 150 167 176 107 228 c 0
 47 280 17 343.333007812 17 418 c 0
 17 484 40 537.333007812 86 578 c 0
 132 619.333007812 190 640 260 640 c 0
 367.333007812 640 451.333007812 589.333007812 512 488 c 1x9c
581.997070312 358.000976562 m 1
 606.6640625 322.66796875 634.331054688 297.333984375 664.998046875 282.000976562 c 0
 695.665039062 266.66796875 730.665039062 259.000976562 769.998046875 259.000976562 c 0
 821.331054688 259.000976562 861.6640625 271.000976562 890.997070312 295.000976562 c 0
 920.330078125 319.000976562 934.997070312 351.333984375 934.997070312 392.000976562 c 0
 934.997070312 432.66796875 921.330078125 465.334960938 893.997070312 490.001953125 c 0
 867.330078125 514.001953125 832.997070312 526.001953125 790.997070312 526.001953125 c 2
 787.997070312 526.001953125 l 2
 745.997070312 526.001953125 710.997070312 515.668945312 682.997070312 495.001953125 c 0
 653.6640625 474.334960938 619.997070312 428.66796875 581.997070312 358.000976562 c 1
492.997070312 444 m 1
 464.997070312 483.333007812 436.998046875 511.000976562 408.998046875 527.000976562 c 0
 368.331054688 550.333984375 320.998046875 562.000976562 266.998046875 562.000976562 c 0
 204.998046875 562.000976562 155.665039062 547.000976562 118.998046875 517.000976562 c 0
 82.998046875 487.66796875 64.998046875 449.000976562 64.998046875 401.000976562 c 0
 64.998046875 352.333984375 82.998046875 312.666992188 118.998046875 282 c 0
 154.998046875 251.333007812 201.665039062 236 258.998046875 236 c 0x9c
 312.331054688 236 353.6640625 249.666992188 382.997070312 277 c 0
 410.330078125 302.333007812 446.997070312 358 492.997070312 444 c 1
EndSplineSet
Validated: 524289
EndChar

StartChar: R
Encoding: 82 82 49
Width: 1000
GlyphClass: 1
Flags: MW
HStem: 132.997 36.001 298.997 40 472.997 37 555.998 53 608.999 33.999
VStem: 218.996 49.002 693.997 38.001 897.998 49.001
LayerCount: 2
Fore
SplineSet
771 189 m 0
 689 163.666992188 614.329101562 146.997070312 546.99609375 138.997070312 c 0
 513.663085938 134.997070312 482.663085938 132.997070312 453.99609375 132.997070312 c 0
 408.663085938 132.997070312 366.99609375 137.6640625 328.99609375 146.997070312 c 0
 255.663085938 164.997070312 218.99609375 191.6640625 218.99609375 226.997070312 c 2
 218.99609375 227.997070312 l 2
 218.99609375 281.997070312 287.663085938 315.6640625 424.99609375 328.997070312 c 0
 457.663085938 333.6640625 506.330078125 336.997070312 570.997070312 338.997070312 c 0
 652.997070312 340.997070312 693.997070312 361.997070312 693.997070312 401.997070312 c 0
 693.997070312 430.6640625 656.330078125 450.997070312 580.997070312 462.997070312 c 0
 539.6640625 469.6640625 484.331054688 472.997070312 414.998046875 472.997070312 c 2
 376.998046875 472.997070312 l 2
 301.665039062 472.997070312 190.665039062 464.330078125 43.998046875 446.997070312 c 1
 44.998046875 468.997070312 l 1
 116.998046875 480.997070312 l 2
 248.331054688 500.330078125 356.998046875 509.997070312 442.998046875 509.997070312 c 0
 518.331054688 509.997070312 575.331054688 502.997070312 613.998046875 488.997070312 c 0
 692.665039062 460.330078125 731.998046875 430.663085938 731.998046875 399.99609375 c 2
 731.998046875 396.99609375 l 2
 731.998046875 372.99609375 715.665039062 351.663085938 682.998046875 332.99609375 c 0
 662.998046875 321.663085938 633.998046875 313.330078125 595.998046875 307.997070312 c 0
 556.665039062 302.6640625 523.665039062 299.6640625 496.998046875 298.997070312 c 0
 464.331054688 298.330078125 438.331054688 295.997070312 418.998046875 291.997070312 c 0
 318.331054688 278.6640625 267.998046875 258.331054688 267.998046875 230.998046875 c 2
 267.998046875 229.998046875 l 2
 267.998046875 207.998046875 301.665039062 190.665039062 368.998046875 177.998046875 c 0
 400.998046875 171.998046875 431.331054688 168.998046875 459.998046875 168.998046875 c 2
 468.998046875 168.998046875 l 2
 499.665039062 168.998046875 529.998046875 170.998046875 559.998046875 174.998046875 c 0
 625.331054688 183.665039062 690.998046875 198.33203125 756.998046875 218.999023438 c 0
 804.998046875 234.33203125 842.331054688 261.999023438 868.998046875 301.999023438 c 0
 888.331054688 330.666015625 897.998046875 360.333007812 897.998046875 391 c 0
 897.998046875 401 896.331054688 413 892.998046875 427 c 0
 882.998046875 470.333007812 849.665039062 510.333007812 792.998046875 547 c 0
 736.998046875 582.333007812 649.331054688 602.666015625 529.998046875 607.999023438 c 0
 499.998046875 609.33203125 466.665039062 609.999023438 429.998046875 609.999023438 c 0
 411.998046875 609.999023438 393.665039062 609.666015625 374.998046875 608.999023438 c 0
 318.331054688 608.33203125 255.998046875 602.33203125 187.998046875 590.999023438 c 0
 178.665039062 590.33203125 132.665039062 578.665039062 49.998046875 555.998046875 c 1
 51.998046875 581.998046875 l 1
 87.998046875 595.331054688 117.665039062 604.331054688 140.998046875 608.998046875 c 0
 277.665039062 631.665039062 394.998046875 642.998046875 492.998046875 642.998046875 c 0
 571.665039062 642.998046875 636.33203125 636.331054688 686.999023438 622.998046875 c 0
 810.33203125 590.998046875 888.33203125 546.998046875 920.999023438 490.998046875 c 0
 938.33203125 461.665039062 946.999023438 432.33203125 946.999023438 402.999023438 c 0
 946.999023438 373.666015625 938.666015625 343.666015625 921.999023438 312.999023438 c 0
 888.666015625 251.666015625 838.333007812 210.333007812 771 189 c 0
EndSplineSet
Validated: 524289
EndChar

StartChar: S
Encoding: 83 83 50
Width: 1000
GlyphClass: 1
Flags: MW
HStem: 271 58<395 544 381 561 395 753 395 614> 472 55<447 600> 668 20G<418 492 492 492>
LayerCount: 2
Fore
SplineSet
600 472 m 1
 433 472 l 1
 395 329 l 1
 561 329 l 1
 600 472 l 1
753 271 m 1
 614 271 l 1
 582 142 l 1
 509 142 l 1
 544 271 l 1
 381 271 l 1
 347 142 l 1
 272 142 l 1
 305 271 l 1
 172 271 l 1
 177 326 l 1
 321 326 l 1
 361 469 l 1
 226 469 l 1
 231 527 l 1
 375 527 l 1
 418 688 l 1
 492 688 l 1
 447 527 l 1
 614 527 l 1
 655 680 l 1
 659 680 l 1
 728 678 l 1
 686 527 l 1
 807 527 l 1
 801 469 l 1
 670 469 l 1
 631 326 l 1
 758 326 l 1
 753 271 l 1
EndSplineSet
Validated: 1
EndChar

StartChar: T
Encoding: 84 84 51
Width: 1000
GlyphClass: 1
Flags: MW
HStem: 191 36<470.667 509.999 501 506> 381 40<18 646 18 323 365.999 365.999 365.999 642.999 18 685 685 983> 607 20G<647 684 684 684> 607 20G<647 684 684 684>
VStem: 323 42.999 642.999 42.001
LayerCount: 2
Fore
SplineSet
18 381 m 1xec
 18 421 l 1
 646 421 l 1
 647 627 l 1
 684 627 l 1
 685 421 l 1
 983 421 l 1
 983 381 l 1
 685 381 l 1
 684.333007812 349 671.833007812 309.333007812 647.5 262 c 0
 623.166992188 214.666992188 576 191 506 191 c 2
 500 191 l 2
 441.333007812 191 397 209.666992188 367 247 c 0
 337.666992188 284.333007812 323 329 323 381 c 1
 18 381 l 1xec
501 227 m 2
 509.999023438 227 l 2
 563.33203125 227 598.33203125 245 614.999023438 281 c 0
 633.666015625 321.666992188 642.999023438 353.666992188 642.999023438 377 c 2
 642.999023438 381 l 1
 365.999023438 381 l 1
 365.999023438 339 377.33203125 302.833007812 399.999023438 272.5 c 0
 422.666015625 242.166992188 456.333007812 227 501 227 c 2
EndSplineSet
Validated: 524289
EndChar

StartChar: U
Encoding: 85 85 52
Width: 1000
GlyphClass: 1
Flags: MW
HStem: 382 37<18 485 18 485 518 983 18 518> 582 20G<485 517 517 517>
VStem: 485 33<234 382 234 382 234 382>
LayerCount: 2
Fore
SplineSet
18 419 m 1
 485 419 l 1
 485 602 l 1
 517 602 l 1
 518 419 l 1
 983 419 l 1
 983 382 l 1
 518 382 l 1
 518 234 l 1
 485 233 l 1
 485 382 l 1
 18 382 l 1
 18 419 l 1
EndSplineSet
Validated: 1
EndChar

StartChar: V
Encoding: 86 86 53
Width: 1000
GlyphClass: 1
Flags: MW
HStem: 266 30<17 484 516 983 17 484> 505 21G<447 447 554 554> 591 20G<504 504>
VStem: 484 32<296 296>
LayerCount: 2
Fore
SplineSet
484 296 m 1
 486 519 l 1
 447 505 l 1
 504 611 l 1
 554 505 l 1
 515 516 l 1
 516 296 l 1
 983 296 l 1
 983 266 l 1
 17 266 l 1
 17 296 l 1
 484 296 l 1
EndSplineSet
Validated: 1
EndChar

StartChar: W
Encoding: 87 87 54
Width: 1000
GlyphClass: 1
Flags: MW
HStem: 381 37<53 944 53 944> 472 20G<53 53 944 982 982 982>
VStem: 17 36<297 381 418 491 491 491> 944 38<296 381 381 381 418 492 296 492>
LayerCount: 2
Fore
SplineSet
17 491 m 1
 53 492 l 1
 53 418 l 1
 944 418 l 1
 944 492 l 1
 982 492 l 1
 982 296 l 1
 944 296 l 1
 944 381 l 1
 53 381 l 1
 53 297 l 1
 17 297 l 1
 17 491 l 1
EndSplineSet
Validated: 1
EndChar

StartChar: X
Encoding: 88 88 55
Width: 1000
GlyphClass: 1
Flags: MW
HStem: 287 37<53 944 53 982 17 944> 487 20G<53 53 944 982 982 982>
VStem: 17 36<324 506 506 506> 944 38<324 507 287 507>
LayerCount: 2
Fore
SplineSet
17 506 m 1
 53 507 l 1
 53 324 l 1
 944 324 l 1
 944 507 l 1
 982 507 l 1
 982 287 l 1
 17 287 l 1
 17 506 l 1
EndSplineSet
Validated: 1
EndChar

StartChar: Y
Encoding: 89 89 56
Width: 1000
GlyphClass: 1
Flags: MW
HStem: 73 22<433 487> 340 116<809 834> 390 22<207 487 207 487 511 809> 703 21<434 487 434 558 511 511 511 558>
VStem: 184 23<341 390 412 456> 487 24<95 390 95 390 412 703> 809 25<340 390 390 390 412 456 340 456>
LayerCount: 2
Fore
SplineSet
184 456 m 1xde
 207 456 l 1xde
 207 412 l 1
 487 412 l 1
 487 703 l 1
 434 703 l 1
 434 724 l 1
 558 724 l 1
 558 703 l 1
 511 703 l 1
 511 412 l 1
 809 412 l 1xbe
 809 456 l 1
 834 456 l 1
 834 340 l 1
 809 340 l 1xde
 809 390 l 1
 511 390 l 1
 511 95 l 1
 558 95 l 1
 558 72 l 1
 433 73 l 1
 433 95 l 1
 487 95 l 1
 487 390 l 1
 207 390 l 1xbe
 207 341 l 1
 184 341 l 1
 184 456 l 1xde
EndSplineSet
Validated: 1
EndChar

StartChar: Z
Encoding: 90 90 57
Width: 1000
GlyphClass: 1
Flags: MW
HStem: 278.999 40 472.999 36.001
VStem: 315.999 41 635.999 43.001
LayerCount: 2
Fore
SplineSet
983 319 m 1
 982.999023438 278.999023438 l 1
 17.9990234375 278.999023438 l 1
 17.9990234375 318.999023438 l 1
 315.999023438 318.999023438 l 1
 316.666015625 349.666015625 329.333007812 389.333007812 354 438 c 0
 378 485.333007812 425.333007812 509 496 509 c 0
 558 509 604 490 634 452 c 0
 663.333007812 415.333007812 678.333007812 371 679 319 c 1
 983 319 l 1
635.999023438 318.999023438 m 1
 635.999023438 360.999023438 624.665039062 396.999023438 601.998046875 426.999023438 c 0
 578.665039062 457.666015625 541.665039062 472.999023438 490.998046875 472.999023438 c 0
 441.665039062 472.999023438 406.33203125 453.999023438 384.999023438 415.999023438 c 0
 366.33203125 382.666015625 356.999023438 354.666015625 356.999023438 331.999023438 c 0
 356.999023438 327.999023438 357.33203125 323.666015625 357.999023438 318.999023438 c 1
 635.999023438 318.999023438 l 1
650.998046875 506.999023438 m 1
 772.998046875 493.999023438 l 1
 752.998046875 470.999023438 l 1
 698.998046875 475.999023438 l 1
 817.998046875 362.999023438 l 1
 796.998046875 339.999023438 l 1
 639.998046875 493.999023438 l 1
 650.998046875 506.999023438 l 1
349.998046875 506.999023438 m 1
 361.998046875 493.999023438 l 1
 203.998046875 339.999023438 l 1
 182.998046875 362.999023438 l 1
 301.998046875 475.999023438 l 1
 247.998046875 470.999023438 l 1
 227.998046875 493.999023438 l 1
 349.998046875 506.999023438 l 1
EndSplineSet
Validated: 524289
EndChar

StartChar: bracketleft
Encoding: 91 91 58
Width: 1000
GlyphClass: 1
Flags: MW
HStem: 269 40<18 442 505 983 18 442> 480 21G
LayerCount: 2
Fore
SplineSet
169 494 m 1
 177 500 l 1
 331 343 l 1
 315 324 l 1
 198 443 l 1
 206 389 l 1
 188 375 l 1
 169 494 l 1
832 479 m 1
 793 365 l 1
 778 382 l 1
 795 434 l 1
 659 336 l 1
 647 358 l 1
 826 486 l 1
 832 479 l 1
983 309 m 1
 983 269 l 1
 18 269 l 1
 18 309 l 1
 442 309 l 1
 206 519 l 1
 270 519 l 1
 473 337 l 1
 732 512 l 1
 798 512 l 1
 505 309 l 1
 983 309 l 1
EndSplineSet
Validated: 1
EndChar

StartChar: backslash
Encoding: 92 92 59
Width: 1000
GlyphClass: 1
Flags: MW
HStem: 314 40<18 492 495 983 18 492>
LayerCount: 2
Fore
SplineSet
983 354 m 1
 983 314 l 1
 18 314 l 1
 18 354 l 1
 492 354 l 1
 391 459 l 1
 612 460 l 1
 495 354 l 1
 983 354 l 1
EndSplineSet
Validated: 1
EndChar

StartChar: bracketright
Encoding: 93 93 60
Width: 1000
GlyphClass: 1
Flags: MW
HStem: 328 40<18 391 613 983 18 391> 446 27
VStem: 391 30<369 446 369 473 369 473> 580 33<368 446>
LayerCount: 2
Fore
SplineSet
983 368 m 1
 983 328 l 1
 18 328 l 1
 18 368 l 1
 391 368 l 1
 391 473 l 1
 612 474 l 1
 613 368 l 1
 983 368 l 1
421 446 m 1
 421 369 l 1
 580 369 l 1
 580 446 l 1
 421 446 l 1
EndSplineSet
Validated: 1
EndChar

StartChar: asciicircum
Encoding: 94 94 61
Width: 1000
GlyphClass: 1
Flags: MW
HStem: 288 40<16 981 16 981> 359 40<16 389 419 578 611 981 16 389> 477 27<419 419 419 578>
VStem: 389 30<399 477 399 504 399 504> 578 33<399 477>
LayerCount: 2
Fore
SplineSet
981 288 m 1
 16 288 l 1
 16 328 l 1
 981 328 l 1
 981 288 l 1
981 399 m 1
 981 359 l 1
 16 359 l 1
 16 399 l 1
 389 399 l 1
 389 504 l 1
 610 504 l 1
 611 399 l 1
 981 399 l 1
419 477 m 1
 419 399 l 1
 578 399 l 1
 578 477 l 1
 419 477 l 1
EndSplineSet
Validated: 1
EndChar

StartChar: underscore
Encoding: 95 95 62
Width: 1000
GlyphClass: 1
Flags: MW
HStem: 290 40<17 982 17 982> 361 40<17 390 612 982 17 390> 361 145<390 611 390 982>
LayerCount: 2
Fore
SplineSet
982 401 m 1xc0
 982 361 l 1
 17 361 l 1
 17 401 l 1
 390 401 l 1xc0
 390 506 l 1
 611 506 l 1xa0
 612 401 l 1
 982 401 l 1xc0
982 290 m 1
 17 290 l 1
 17 330 l 1
 982 330 l 1
 982 290 l 1
EndSplineSet
Validated: 1
EndChar

StartChar: grave
Encoding: 96 96 63
Width: 1000
GlyphClass: 1
Flags: MW
HStem: 323 40<17 390 612 982 17 390> 323 145<390 390 390 982>
LayerCount: 2
Fore
SplineSet
982 363 m 1x80
 982 323 l 1
 17 323 l 1
 17 363 l 1
 390 363 l 1x80
 390 468 l 1x40
 611 469 l 1
 612 363 l 1
 982 363 l 1x80
EndSplineSet
Validated: 1
EndChar

StartChar: a
Encoding: 97 97 64
Width: 1000
GlyphClass: 1
Flags: MW
HStem: 324 40<17 188 410 590 812 983 17 188> 442 27
VStem: 188 33<365 442 365 470 365 470> 380 30<365 442 442 442> 590 30<365 442 365 469 365 469> 780 32<365 442 442 442>
LayerCount: 2
Fore
SplineSet
380 442 m 1
 221 442 l 1
 221 365 l 1
 380 365 l 1
 380 442 l 1
620 442 m 1
 620 365 l 1
 780 365 l 1
 780 442 l 1
 620 442 l 1
983 364 m 1
 983 324 l 1
 17 324 l 1
 17 364 l 1
 188 364 l 1
 188 470 l 1
 410 469 l 1
 410 364 l 1
 590 364 l 1
 590 469 l 1
 812 470 l 1
 812 364 l 1
 983 364 l 1
EndSplineSet
Validated: 1
EndChar

StartChar: b
Encoding: 98 98 65
Width: 1000
GlyphClass: 1
Flags: MW
HStem: 295 40<16 981 16 981> 361 40<16 187 219 378 409 588 619 778 811 981 16 187> 479 28
VStem: 187 32<401 479 401 507 401 507> 378 31<401 479 479 479> 588 31<401 479> 778 33<401 479>
LayerCount: 2
Fore
SplineSet
378 479 m 1
 219 479 l 1
 219 401 l 1
 378 401 l 1
 378 479 l 1
619 479 m 1
 619 401 l 1
 778 401 l 1
 778 479 l 1
 619 479 l 1
981 401 m 1
 981 361 l 1
 16 361 l 1
 16 401 l 1
 187 401 l 1
 187 507 l 1
 409 506 l 1
 409 401 l 1
 588 401 l 1
 589 506 l 1
 810 507 l 1
 811 401 l 1
 981 401 l 1
981 295 m 1
 16 295 l 1
 16 335 l 1
 981 335 l 1
 981 295 l 1
EndSplineSet
Validated: 1
EndChar

StartChar: c
Encoding: 99 99 66
Width: 1000
GlyphClass: 1
Flags: MW
HStem: 317 164<448 452 452 469.003> 378 47<596.004 852 594 852.004 596.004 596.004> 475 20G<777.004 777.004>
LayerCount: 2
Fore
SplineSet
852 425 m 1x40
 777.00390625 458 l 1
 777.00390625 495 l 1
 979.00390625 402 l 1
 777.00390625 303 l 1
 777.00390625 338 l 1
 852.00390625 378 l 1
 596.00390625 378 l 1x60
 587.336914062 360.666992188 569.669921875 346.166992188 543.002929688 334.5 c 0
 516.3359375 322.833007812 486.002929688 317 452.002929688 317 c 0x80
 417.3359375 317 386.668945312 322.666992188 360.001953125 334 c 0
 333.334960938 345.333007812 315.66796875 360 307.000976562 378 c 1x40
 14.0009765625 377 l 1
 14.0009765625 422 l 1
 309.000976562 424 l 1
 330.333984375 462 376.666992188 481 448 481 c 2
 452 481 l 2x80
 524 481 571.333007812 462.333007812 594 425 c 1
 852 425 l 1x40
EndSplineSet
Validated: 524289
EndChar

StartChar: d
Encoding: 100 100 67
Width: 1000
GlyphClass: 1
Flags: MW
HStem: 290 23<320 555 320 578> 382 40<16 294 16 294 320 555 16 320 578 778 778 852> 474 20G<778 778> 482 26<320 320 320 555>
VStem: 294 26<313 382 313 382 313 382 422 482> 555 23<313 382 290 382 422 482 482 482>
LayerCount: 2
Fore
SplineSet
16 422 m 1xec
 294 422 l 1
 294 508 l 1
 578 508 l 1xdc
 578 422 l 1
 852 422 l 1
 778 457 l 1
 778 494 l 1
 979 402 l 1
 778 304 l 1
 778 338 l 1
 852 382 l 1
 778 382 l 1
 578 382 l 1
 578 290 l 1
 294 290 l 1
 294 382 l 1
 16 382 l 1
 16 422 l 1xec
320 482 m 1
 320 422 l 1
 555 422 l 1
 555 482 l 1
 320 482 l 1
320 382 m 1
 320 313 l 1
 555 313 l 1
 555 382 l 1
 320 382 l 1
EndSplineSet
Validated: 1
EndChar

StartChar: e
Encoding: 101 101 68
Width: 1000
GlyphClass: 1
Flags: MW
HStem: 183.005 23.9951 388.005 27 454.005 20G 602.004 27
VStem: 385 33.001
LayerCount: 2
Fore
SplineSet
639 207 m 1
 640.997070312 183.004882812 l 1
 628.997070312 183.004882812 610.330078125 183.337890625 584.997070312 184.004882812 c 0
 559.6640625 184.671875 533.831054688 187.004882812 507.498046875 191.004882812 c 0
 481.165039062 195.004882812 457.33203125 201.004882812 435.999023438 209.004882812 c 0
 414.666015625 217.004882812 401.333007812 228.004882812 396 242.004882812 c 0
 388.666992188 262.004882812 385 279.671875 385 295.004882812 c 0
 385 326.337890625 400.666992188 347.337890625 432 358.004882812 c 0
 479.333007812 373.337890625 524 381.670898438 566 383.00390625 c 0
 578 383.670898438 587.666992188 385.337890625 595 388.004882812 c 1
 522 388.004882812 l 1
 518 388.004882812 l 1
 99 388.004882812 l 1
 98 324.004882812 l 1
 0 401.004882812 l 1
 100 474.004882812 l 1
 99 415.004882812 l 1
 548 415.004882812 l 1
 595 415.004882812 l 1
 587 417.004882812 577.333007812 418.671875 566 420.004882812 c 0
 552 421.337890625 533.666992188 423.337890625 511 426.004882812 c 0
 488.333007812 428.671875 466.666015625 434.004882812 445.999023438 442.004882812 c 0
 425.33203125 450.004882812 409.33203125 462.004882812 397.999023438 478.004882812 c 0
 391.33203125 487.337890625 387.999023438 499.004882812 387.999023438 513.004882812 c 0
 387.999023438 522.337890625 389.666015625 532.670898438 392.999023438 544.00390625 c 0
 398.33203125 562.00390625 411.33203125 576.336914062 431.999023438 587.00390625 c 0
 453.33203125 598.336914062 476.999023438 607.336914062 502.999023438 614.00390625 c 0
 524.999023438 619.336914062 550.666015625 623.336914062 579.999023438 626.00390625 c 0
 601.999023438 628.00390625 617.999023438 629.00390625 627.999023438 629.00390625 c 2
 636.999023438 629.00390625 l 1
 634.999023438 602.00390625 l 1
 624.999023438 601.336914062 608.666015625 600.169921875 585.999023438 598.502929688 c 0
 563.33203125 596.8359375 540.33203125 593.668945312 516.999023438 589.001953125 c 0
 493.666015625 584.334960938 472.666015625 577.334960938 453.999023438 568.001953125 c 0
 436.666015625 559.334960938 426.333007812 546.66796875 423 530.000976562 c 0
 422.333007812 526.66796875 422 523.66796875 422 521.000976562 c 0
 424.666992188 502.333984375 432 489.000976562 444 481.000976562 c 0
 460 470.333984375 479.666992188 462.666992188 503 458 c 0
 525.666992188 452.666992188 548.333984375 449.166992188 571.000976562 447.5 c 0
 593.66796875 445.833007812 609.66796875 442.333007812 619.000976562 437 c 0
 631.000976562 430.333007812 639.000976562 423 643.000976562 415 c 1
 1000.00097656 415 l 1
 1000.00097656 388 l 1
 642.000976562 388 l 1
 634.66796875 376 622.000976562 368 604.000976562 364 c 0
 586.000976562 360 564.500976562 357 539.500976562 355 c 0
 514.500976562 353 491.66796875 348.833007812 471.000976562 342.5 c 0
 450.333984375 336.166992188 435.000976562 326.666992188 425.000976562 314 c 0
 420.333984375 308 418.000976562 300.666992188 418.000976562 292 c 0
 418.000976562 282 421.000976562 270 427.000976562 256 c 0
 436.333984375 234 468.666992188 221.333007812 524 218 c 0
 578 214 616.333007812 210.333007812 639 207 c 1
EndSplineSet
Validated: 524289
EndChar

StartChar: f
Encoding: 102 102 69
Width: 1000
GlyphClass: 1
Flags: MW
HStem: 177.94 38.0586 363.001 27 536.501 37.6426
VStem: 339.372 46.6289 529.014 48.8779
LayerCount: 2
Fore
SplineSet
577.891601562 465.420898438 m 0
 577.891601562 434.481445312 557.262695312 409.338867188 516.000976562 389.998046875 c 1
 917.000976562 389.998046875 l 1
 917.000976562 409.998046875 l 1
 982.000976562 376.998046875 l 1
 917.000976562 343.998046875 l 1
 917.000976562 362.998046875 l 1
 459.000976562 362.998046875 l 2
 454.333984375 362.331054688 452.333984375 362.331054688 453.000976562 362.998046875 c 1
 435.000976562 354.331054688 419.333984375 344.331054688 406.000976562 332.998046875 c 0
 392.66796875 321.665039062 386.000976562 306.665039062 386.000976562 287.998046875 c 0
 386.66796875 262.665039062 402.500976562 244.33203125 433.500976562 232.999023438 c 0
 464.500976562 221.666015625 497.66796875 215.999023438 533.000976562 215.999023438 c 1
 526.000976562 178.999023438 l 1
 520.82421875 178.29296875 514.040039062 177.940429688 505.647460938 177.940429688 c 0
 482.541992188 177.940429688 459.657226562 181.283203125 436.994140625 187.969726562 c 0
 414.331054688 194.65625 396.333984375 203.333007812 383.000976562 214 c 0
 353.915039062 235.498046875 339.372070312 259.63671875 339.372070312 286.416015625 c 0
 339.372070312 313.1953125 352.58203125 338.723632812 379.000976562 363.000976562 c 1
 17.0009765625 363.000976562 l 1
 17.0009765625 390.000976562 l 1
 418.000976562 390.000976562 l 1
 435.948242188 401.5390625 453.76953125 410.256835938 471.4609375 416.154296875 c 0
 509.830078125 428.943359375 529.013671875 446.407226562 529.013671875 468.544921875 c 0
 529.013671875 477.962890625 525.008789062 487.78125 516.999023438 498 c 0
 497.666015625 522.666992188 469.999023438 535.333984375 433.999023438 536.000976562 c 0
 427.33203125 536.000976562 418.665039062 536.16796875 407.998046875 536.500976562 c 0
 397.331054688 536.833984375 388.331054688 537.000976562 380.998046875 537.000976562 c 1
 386.998046875 573.000976562 l 1
 426.610351562 574.143554688 l 2
 432.869140625 574.143554688 438.83203125 573.953125 444.499023438 573.572265625 c 0
 453.813476562 572.946289062 469.98046875 569.755859375 493.000976562 564.000976562 c 2
 506.000976562 559.000976562 l 2
 541.100585938 545.500976562 563.767578125 522.333984375 574.000976562 489.5 c 0
 576.595703125 481.17578125 577.892578125 473.149414062 577.891601562 465.420898438 c 0
EndSplineSet
Validated: 524289
EndChar

StartChar: g
Encoding: 103 103 70
Width: 1000
GlyphClass: 1
Flags: MW
HStem: 84 21G<349 349> 262 43 376 45<40 553 40 553> 455 21G 491 42
VStem: 305 44<85 262 84 305 84 305 533 709 709 709> 553 44<304 375 263 376 263 376>
LayerCount: 2
Fore
SplineSet
349 533 m 1
 597 533 l 1
 597 422 l 1
 870 422 l 1
 871 475 l 1
 963 402 l 1
 870 329 l 1
 870 375 l 1
 597 375 l 1
 597 263 l 1
 349 262 l 1
 349 84 l 1
 305 85 l 1
 305 305 l 1
 553 304 l 1
 553 376 l 1
 40 376 l 1
 40 421 l 1
 553 421 l 1
 552 490 l 1
 305 491 l 1xee
 305 709 l 1
 349 710 l 1xf6
 349 533 l 1
EndSplineSet
Validated: 1
EndChar

StartChar: h
Encoding: 104 104 71
Width: 1000
GlyphClass: 1
Flags: MW
HStem: 382 36<12 525 12 526 12 525 583 897> 526 20G<276 334 334 334>
LayerCount: 2
Fore
SplineSet
897 418 m 1
 898 462 l 1
 984 401.5 l 1
 897 337 l 1
 897 382 l 1
 582 382 l 1
 333 254 l 1
 277 254 l 1
 526 382 l 1
 12 382 l 1
 12 418 l 1
 525 418 l 1
 276 546 l 1
 334 546 l 1
 583 418 l 1
 897 418 l 1
EndSplineSet
Validated: 524289
EndChar

StartChar: i
Encoding: 105 105 72
Width: 1000
GlyphClass: 1
Flags: MW
HStem: 201 26<54 126 54 139 278 350 502 574 727 798> 562 27<200 200 200 272 424 496 424 424 648 720 648 648 872 944 872 872>
LayerCount: 2
Fore
SplineSet
184 589 m 1
 308 589 l 1
 139 201 l 1
 15 201 l 1
 184 589 l 1
200 562 m 1
 54 227 l 1
 126 227 l 1
 272 562 l 1
 200 562 l 1
409 589 m 1
 532 589 l 1
 363 201 l 1
 239 201 l 1
 409 589 l 1
424 562 m 1
 278 227 l 1
 350 227 l 1
 496 562 l 1
 424 562 l 1
633 589 m 1
 756 589 l 1
 587 201 l 1
 463 201 l 1
 633 589 l 1
648 562 m 1
 502 227 l 1
 574 227 l 1
 720 562 l 1
 648 562 l 1
857 589 m 1
 980 589 l 1
 811 201 l 1
 687 201 l 1
 857 589 l 1
872 562 m 1
 727 227 l 1
 798 227 l 1
 944 562 l 1
 872 562 l 1
EndSplineSet
Validated: 1
EndChar

StartChar: j
Encoding: 106 106 73
Width: 1000
GlyphClass: 1
Flags: MW
HStem: 573 20G<186 310 310 310 411 534 534 534 635 758 758 758 859 982 982 982>
LayerCount: 2
Fore
SplineSet
186 593 m 1
 310 593 l 1
 141 205 l 1
 17 205 l 1
 186 593 l 1
411 593 m 1
 534 593 l 1
 365 205 l 1
 241 205 l 1
 411 593 l 1
635 593 m 1
 758 593 l 1
 589 205 l 1
 465 205 l 1
 635 593 l 1
859 593 m 1
 982 593 l 1
 813 205 l 1
 689 205 l 1
 859 593 l 1
EndSplineSet
Validated: 1
EndChar

StartChar: k
Encoding: 107 107 74
Width: 1000
GlyphClass: 1
Flags: MW
HStem: 222 40<16 440 503 981 16 440> 452 20G<204 268 268 268>
VStem: 469 23<414 635>
LayerCount: 2
Fore
SplineSet
981 262 m 1
 981 222 l 1
 16 222 l 1
 16 262 l 1
 440 262 l 1
 204 472 l 1
 268 472 l 1
 471 290 l 1
 730 465 l 1
 796 465 l 1
 503 262 l 1
 981 262 l 1
494 635 m 1
 492 414 l 1
 539 414 l 1
 475 326 l 1
 422 414 l 1
 469 414 l 1
 469 635 l 1
 494 635 l 1
EndSplineSet
Validated: 1
EndChar

StartChar: l
Encoding: 108 108 75
Width: 1000
GlyphClass: 1
Flags: MW
HStem: 213 41<16 440 503 981 16 440> 607 20G<479 479> 607 20G<479 479>
VStem: 460 25<317 538>
LayerCount: 2
Fore
SplineSet
981 254 m 1x90
 981 213 l 1
 16 213 l 1
 16 254 l 1
 440 254 l 1
 204 464 l 1
 268 464 l 1
 471 281 l 1
 730 456 l 1
 796 456 l 1
 503 254 l 1
 981 254 l 1x90
460 317 m 1
 462 538 l 1
 415 538 l 1
 479 627 l 1xd0
 532 538 l 1
 485 538 l 1
 485 317 l 1
 460 317 l 1
EndSplineSet
Validated: 1
EndChar

StartChar: m
Encoding: 109 109 76
Width: 1000
GlyphClass: 1
Flags: MW
HStem: 307 156<291 620 291 620 384 620 384 620 476 479 476 476 569 572 569 569 427 664 427 661 427 757 427 754>
LayerCount: 2
Fore
SplineSet
982 350 m 1
 938 307 l 1
 894 351 l 1
 849 307 l 1
 846 307 l 1
 801 351 l 1
 757 307 l 1
 754 307 l 1
 709 351 l 1
 664 307 l 1
 661 307 l 1
 616 351 l 1
 572 307 l 1
 569 307 l 1
 524 351 l 1
 479 307 l 1
 476 307 l 1
 432 351 l 1
 387 307 l 1
 384 307 l 1
 339 351 l 1
 294 307 l 1
 291 307 l 1
 247 351 l 1
 202 307 l 1
 199 307 l 1
 154 351 l 1
 109 307 l 1
 106 307 l 1
 62 351 l 1
 17 307 l 1
 17 332 l 1
 65 378 l 1
 107 336 l 1
 149 378 l 1
 157 378 l 1
 200 336 l 1
 242 378 l 1
 250 378 l 1
 292 336 l 1
 334 378 l 1
 342 378 l 1
 385 336 l 1
 427 378 l 1
 427 463 l 1
 620 463 l 1
 620 378 l 1
 662 336 l 1
 704 378 l 1
 712 378 l 1
 754 336 l 1
 797 378 l 1
 805 378 l 1
 847 336 l 1
 889 378 l 1
 897 378 l 1
 939 336 l 1
 982 378 l 1
 982 350 l 1
EndSplineSet
Validated: 1
EndChar

StartChar: n
Encoding: 110 110 77
Width: 1000
GlyphClass: 1
Flags: MW
HStem: 297 24<18 40 67 195 223 351 378 506 534 662 688 816 843 983 18 40> 471 23<18 132 18 983 159 159 159 287 315 315 315 443 470 470 470 598 626 626 626 754 780 780 780 908 934 934 934 983>
LayerCount: 2
Fore
SplineSet
843 321 m 1
 983 321 l 1
 983 297 l 1
 18 297 l 1
 18 321 l 1
 40 321 l 1
 132 471 l 1
 18 471 l 1
 18 494 l 1
 983 494 l 1
 983 471 l 1
 934 471 l 1
 843 321 l 1
195 321 m 1
 287 471 l 1
 159 471 l 1
 67 321 l 1
 195 321 l 1
351 321 m 1
 443 471 l 1
 315 471 l 1
 223 321 l 1
 351 321 l 1
506 321 m 1
 598 471 l 1
 470 471 l 1
 378 321 l 1
 506 321 l 1
662 321 m 1
 754 471 l 1
 626 471 l 1
 534 321 l 1
 662 321 l 1
816 321 m 1
 908 471 l 1
 780 471 l 1
 688 321 l 1
 816 321 l 1
EndSplineSet
Validated: 1
EndChar

StartChar: o
Encoding: 111 111 78
Width: 1000
GlyphClass: 1
Flags: MW
HStem: 85 21G<410 410> 243 16<338 378 307 402 338 338 442 482> 369 24<442 806 442 442> 409 24<45 45> 543 16<338 378 442 442 442 482> 697 20G<410 410>
VStem: 14 31<393 409 393 433 393 433> 378 24<259 259 433 543 543 543> 418 24<259 369 259 393 433 543> 806 23<344 369 369 369 433 457>
LayerCount: 2
Fore
SplineSet
378 433 m 1
 378 543 l 1
 307 543 l 1
 410 717 l 1
 513 543 l 1
 442 543 l 1
 442 433 l 1
 806 433 l 1
 806 504 l 1
 979 401 l 1
 806 298 l 1
 806 369 l 1
 442 369 l 1
 442 259 l 1
 513 259 l 1
 410 85 l 1
 307 259 l 1
 378 259 l 1
 379 370 l 1
 14 369 l 1
 14 433 l 1
 378 433 l 1
402 410 m 1
 45 409 l 1
 45 393 l 1
 402 394 l 1
 402 243 l 1
 338 243 l 1
 410 116 l 1
 482 243 l 1
 418 243 l 1
 418 393 l 1
 829 393 l 1
 829 344 l 1
 932 401 l 1
 829 457 l 1
 829 409 l 1
 418 410 l 1
 418 559 l 1
 482 559 l 1
 410 685 l 1
 338 559 l 1
 402 559 l 1
 402 410 l 1
EndSplineSet
Validated: 1
EndChar

StartChar: p
Encoding: 112 112 79
Width: 1000
GlyphClass: 1
Flags: MW
HStem: 84 21G<410 410> 368 64<14 378 442 806> 696 20G<410 410>
VStem: 378 64<258 368 432 542>
LayerCount: 2
Fore
SplineSet
378 432 m 1
 378 542 l 1
 307 542 l 1
 410 716 l 1
 513 542 l 1
 442 542 l 1
 442 432 l 1
 806 432 l 1
 806 503 l 1
 979 401.5 l 1
 806 297 l 1
 806 368 l 1
 442 368 l 1
 442 258 l 1
 513 258 l 1
 410 84 l 1
 307 258 l 1
 378 258 l 1
 379 369 l 1
 14 368 l 1
 14 432 l 1
 378 432 l 1
EndSplineSet
Validated: 524289
EndChar

StartChar: q
Encoding: 113 113 80
Width: 1000
GlyphClass: 1
Flags: MW
HStem: 267 13<437 472 411 491 437 437 526 560> 374 20<526 834 526 526> 408 20<163 472 163 491 526 834> 488 21G<163 163 834 834> 522 13<437 472 526 526 526 560>
VStem: 143 20<346 374 313 394 428 455 455 455> 472 19<267 375 428 522 522 522> 506 20<280 374 280 394 428 522> 834 20<353 374 374 374 428 449>
LayerCount: 2
Fore
SplineSet
472 428 m 1
 472 522 l 1
 411 522 l 1
 499 668 l 1
 586 522 l 1
 526 522 l 1xef80
 526 428 l 1
 834 428 l 1
 834 488 l 1
 981 401 l 1
 834 313 l 1
 834 374 l 1
 526 374 l 1
 526 280 l 1
 586 280 l 1
 499 133 l 1
 411 280 l 1
 472 280 l 1
 472 375 l 1
 163 374 l 1
 163 313 l 1
 16 401 l 1
 163 488 l 1
 163 428 l 1
 472 428 l 1
491 408 m 1
 143 408 l 1
 143 455 l 1
 49 401 l 1
 143 346 l 1
 143 394 l 1
 492 395 l 1
 491 267 l 1
 437 267 l 1
 499 160 l 1
 560 267 l 1
 506 267 l 1
 506 394 l 1
 854 394 l 1
 854 353 l 1
 942 401 l 1
 854 449 l 1
 854 408 l 1
 506 408 l 1
 506 535 l 1
 560 535 l 1
 499 642 l 1
 437 535 l 1
 491 535 l 1
 491 408 l 1
EndSplineSet
Validated: 1
EndChar

StartChar: r
Encoding: 114 114 81
Width: 1000
GlyphClass: 1
Flags: MW
HStem: 374 54<162 471 525 833> 488 21G<162 162 833 833>
VStem: 471 54<280 374 280 375 280 375 428 522>
LayerCount: 2
Fore
SplineSet
471 428 m 1
 471 522 l 1
 410 522 l 1
 498 668 l 1
 585 522 l 1
 525 522 l 1
 525 428 l 1
 833 428 l 1
 833 488 l 1
 980 401 l 1
 833 313 l 1
 833 374 l 1
 525 374 l 1
 525 280 l 1
 585 280 l 1
 498 133 l 1
 410 280 l 1
 471 280 l 1
 471 375 l 1
 162 374 l 1
 162 313 l 1
 15 401 l 1
 162 488 l 1
 162 428 l 1
 471 428 l 1
EndSplineSet
Validated: 1
EndChar

StartChar: s
Encoding: 115 115 82
Width: 1000
GlyphClass: 1
Flags: MW
HStem: 433 43<26 967 524 967 524 524>
VStem: 489 35<339 433>
LayerCount: 2
Fore
SplineSet
967 476 m 1
 967 433 l 1
 524 433 l 1
 524 339 l 1
 558 339 l 1
 507 275 l 1
 454 339 l 1
 489 339 l 1
 490 434 l 1
 26 433 l 1
 26 476 l 1
 967 476 l 1
EndSplineSet
Validated: 1
EndChar

StartChar: t
Encoding: 116 116 83
Width: 1000
GlyphClass: 1
Flags: MW
HStem: 300 44<523 966 25 25> 482 20G<506 506>
VStem: 489 34<343 437>
LayerCount: 2
Fore
SplineSet
966 300 m 1
 25 300 l 1
 25 344 l 1
 489 343 l 1
 488 437 l 1
 453 437 l 1
 506 502 l 1
 557 437 l 1
 523 437 l 1
 523 344 l 1
 966 344 l 1
 966 300 l 1
EndSplineSet
Validated: 1
EndChar

StartChar: u
Encoding: 117 117 84
Width: 1000
GlyphClass: 1
Flags: MW
HStem: 456 43<31 972 31 972>
VStem: 475 34<299 393 299 393 299 393>
LayerCount: 2
Fore
SplineSet
31 456 m 1
 31 499 l 1
 972 499 l 1
 972 456 l 1
 494 457 l 1
 544 393 l 1
 509 393 l 1
 509 299 l 1
 475 298 l 1
 475 393 l 1
 440 393 l 1
 492 457 l 1
 31 456 l 1
EndSplineSet
Validated: 1
EndChar

StartChar: v
Encoding: 118 118 85
Width: 1000
GlyphClass: 1
Flags: MW
HStem: 374 55<160 493 493 831 493 495> 629 20G<468 523 523 523>
VStem: 465 55<155 239 155 239>
LayerCount: 2
Fore
SplineSet
493 429 m 1
 413 565 l 1
 468 565 l 1
 468 649 l 1
 523 649 l 1
 523 565 l 1
 578 565 l 1
 495 429 l 1
 831 428 l 1
 831 489 l 1
 978 401 l 1
 831 314 l 1
 831 374 l 1
 495 374 l 1
 575 239 l 1
 520 239 l 1
 520 155 l 1
 465 155 l 1
 465 239 l 1
 410 239 l 1
 493 374 l 1
 160 374 l 1
 160 314 l 1
 13 401 l 1
 160 489 l 1
 160 428 l 1
 493 429 l 1
EndSplineSet
Validated: 1
EndChar

StartChar: w
Encoding: 119 119 86
Width: 1000
GlyphClass: 1
Flags: MW
HStem: 153 20<477 505 477 518 464 505> 238 16<439 464 518 545 518 518> 374 20<164 490 164 164 492 492 492 835> 408 20<165 490 492 836> 468 20G<165 165 836 836> 547 17<439 464 409 477 439 439 518 545> 629 20<477 477 477 505>
VStem: 145 20<428 455 455 455> 464 13<173 173 173 238 238 238 564 629> 505 13<173 238 153 254 564 629 629 629> 836 20<428 449>
LayerCount: 2
Fore
SplineSet
490 374 m 1
 164 374 l 1
 165 313 l 1
 18 401 l 1
 165 488 l 1
 165 428 l 1
 490 428 l 1
 409 564 l 1
 464 564 l 1
 464 649 l 1
 518 649 l 1
 518 564 l 1
 573 564 l 1
 492 428 l 1
 836 428 l 1
 836 488 l 1
 983 401 l 1
 836 313 l 1
 835 374 l 1
 492 374 l 1
 573 238 l 1
 518 238 l 1
 518 153 l 1
 464 153 l 1
 464 238 l 1
 409 238 l 1
 490 374 l 1
145 394 m 1
 856 394 l 1
 856 353 l 1
 944 401 l 1
 856 449 l 1
 856 408 l 1
 145 408 l 1
 145 455 l 1
 51 401 l 1
 145 346 l 1
 145 394 l 1
477 629 m 1
 477 547 l 1
 439 547 l 1
 491 454 l 1
 545 547 l 1
 505 547 l 1
 505 629 l 1
 477 629 l 1
477 173 m 1
 505 173 l 1
 505 254 l 1
 545 254 l 1
 491 348 l 1
 439 254 l 1
 477 254 l 1
 477 173 l 1
EndSplineSet
Validated: 1
EndChar

StartChar: x
Encoding: 120 120 87
Width: 1000
GlyphClass: 1
Flags: MW
HStem: 284 31<423 456 423 456 429 456 500 528 580 608 664 691 739 765 765 983> 479 30<18 231 231 257 18 231 290 317 290 290 361 388 361 361 441 468 441 441 525 552 525 525>
LayerCount: 2
Fore
SplineSet
664 315 m 1
 691 315 l 1
 552 479 l 1
 525 479 l 1
 664 315 l 1
580 315 m 1
 608 315 l 1
 468 479 l 1
 441 479 l 1
 580 315 l 1
500 315 m 1
 528 315 l 1
 388 479 l 1
 361 479 l 1
 500 315 l 1
429 315 m 1
 456 315 l 1
 317 479 l 1
 290 479 l 1
 429 315 l 1
18 509 m 1
 231 509 l 1
 574 509 l 1
 739 315 l 1
 983 315 l 1
 983 284 l 1
 765 284 l 1
 427 284 l 1
 423 284 l 1
 257 479 l 1
 18 479 l 1
 18 509 l 1
EndSplineSet
Validated: 1
EndChar

StartChar: y
Encoding: 121 121 88
Width: 1000
GlyphClass: 1
Flags: MW
HStem: 266.997 21 273.997 21 468.998 20G 476.998 21G 525.999 21
LayerCount: 2
Fore
SplineSet
836 404 m 1x08
 843.001953125 378.999023438 l 1
 858.334960938 386.33203125 875.66796875 394.999023438 895.000976562 404.999023438 c 1
 892.000976562 415.999023438 l 1
 879.333984375 420.666015625 863.666992188 426.333007812 845 433 c 1
 836 404 l 1x08
642.001953125 391.999023438 m 1
 666.002929688 312.999023438 l 1
 675.3359375 315.666015625 686.668945312 318.999023438 700.001953125 322.999023438 c 1
 727.001953125 412.999023438 l 1
 706.001953125 484.999023438 l 1
 692.668945312 489.666015625 682.668945312 492.999023438 676.001953125 494.999023438 c 1
 642.001953125 391.999023438 l 1
497.002929688 525.999023438 m 1
 489.002929688 525.999023438 l 1
 451.002929688 407.999023438 l 1
 486.002929688 287.999023438 l 1
 502.002929688 287.999023438 l 1
 536.002929688 392.999023438 l 1
 497.002929688 525.999023438 l 1
261.002929688 387.999023438 m 1
 278.002929688 329.998046875 l 1
 290.669921875 325.331054688 303.002929688 320.998046875 315.002929688 316.998046875 c 1
 346.002929688 408.998046875 l 1
 319.002929688 495.998046875 l 1
 309.002929688 492.665039062 299.3359375 489.33203125 290.002929688 485.999023438 c 1
 261.002929688 387.999023438 l 1
144.002929688 422.998046875 m 1
 92.0029296875 396.998046875 l 1
 92.0029296875 394.998046875 l 1
 109.3359375 390.998046875 127.3359375 385.665039062 146.002929688 378.998046875 c 1
 152.002929688 396.998046875 l 1
 144.002929688 422.998046875 l 1
244.002929688 403.998046875 m 1
 227.002929688 461.99609375 l 1
 212.3359375 455.99609375 196.3359375 448.663085938 179.002929688 439.99609375 c 1
 167.002929688 396.99609375 l 1
 175.002929688 368.99609375 l 1
 183.669921875 365.663085938 192.502929688 362.330078125 201.502929688 358.997070312 c 0
 210.502929688 355.6640625 219.3359375 352.331054688 228.002929688 348.998046875 c 1
 244.002929688 403.998046875 l 1
437.002929688 403.99609375 m 1
 403.001953125 516.99609375 l 2
 402.334960938 516.99609375 399.001953125 516.329101562 393.001953125 514.99609375 c 1
 359.001953125 396.99609375 l 1
 388.001953125 297.99609375 l 2
 390.668945312 297.329101562 393.3359375 296.829101562 396.002929688 296.49609375 c 0
 398.669921875 296.163085938 401.669921875 295.663085938 405.002929688 294.99609375 c 2
 437.002929688 403.99609375 l 1
629.001953125 403.99609375 m 1
 596.001953125 515.99609375 l 1
 586.001953125 516.99609375 l 1
 551.001953125 396.99609375 l 1
 581.001953125 294.99609375 l 1
 587.001953125 295.663085938 592.668945312 296.663085938 598.001953125 297.99609375 c 1
 629.001953125 403.99609375 l 1
821.001953125 403.99609375 m 1
 808.000976562 446.99609375 l 1
 800.000976562 449.663085938 792.333984375 452.49609375 785.000976562 455.49609375 c 0
 777.66796875 458.49609375 770.334960938 461.329101562 763.001953125 463.99609375 c 1
 743.001953125 396.99609375 l 1
 759.001953125 343.99609375 l 1
 775.001953125 349.99609375 791.668945312 356.663085938 809.001953125 363.99609375 c 1
 821.001953125 403.99609375 l 1
904.000976562 408.99609375 m 2
 904.66796875 408.99609375 905.669921875 409.663085938 907.002929688 410.99609375 c 1
 906.3359375 410.99609375 905.668945312 411.163085938 905.001953125 411.49609375 c 0
 904.334960938 411.829101562 903.66796875 411.99609375 903.000976562 411.99609375 c 1
 904.000976562 408.99609375 l 2
826.002929688 371.99609375 m 1
 826.669921875 371.99609375 827.334960938 372.163085938 828.001953125 372.49609375 c 0
 828.668945312 372.829101562 829.3359375 372.99609375 830.002929688 372.99609375 c 1
 828.002929688 378.99609375 l 1
 826.002929688 371.99609375 l 1
724.000976562 330.99609375 m 1
 732.66796875 333.663085938 740.66796875 336.329101562 748.000976562 338.99609375 c 1
 737.000976562 376.99609375 l 1
 724.000976562 330.99609375 l 1
611.000976562 299.995117188 m 1
 625.000976562 302.662109375 640.000976562 305.995117188 656.000976562 309.995117188 c 1
 637.000976562 376.995117188 l 1
 611.000976562 299.995117188 l 1
519.000976562 288.995117188 m 1
 535.000976562 289.662109375 550.66796875 290.995117188 566.000976562 292.995117188 c 1
 543.000976562 369.995117188 l 1
 519.000976562 288.995117188 l 1
414.000976562 293.995117188 m 1
 432.66796875 291.328125 451.333984375 289.662109375 470.000976562 288.995117188 c 1
 443.000976562 381.995117188 l 1
 414.000976562 293.995117188 l 1
334 310.99609375 m 1
 349.333007812 306.329101562 364.666992188 302.663085938 380 299.99609375 c 1
 354 381.99609375 l 1
 334 310.99609375 l 1
247.000976562 340.997070312 m 1
 257.66796875 336.997070312 263.66796875 334.997070312 265.000976562 334.997070312 c 1
 255.000976562 367.997070312 l 1
 247.000976562 340.997070312 l 1
162.000976562 431.997070312 m 1
 160.66796875 431.330078125 159.000976562 430.6640625 157.000976562 429.997070312 c 2
 159.000976562 421.997070312 l 1
 162.000976562 431.997070312 l 1
266.000976562 476.998046875 m 1x18
 258.66796875 474.331054688 249.333984375 470.665039062 238.000976562 465.998046875 c 1
 250.000976562 423.998046875 l 1
 266.000976562 476.998046875 l 1x18
380 511.999023438 m 1
 362 507.999023438 345 503.666015625 329 498.999023438 c 1
 351 423.999023438 l 1
 380 511.999023438 l 1
472 524.999023438 m 1
 454.666992188 524.33203125 437 522.666015625 419 519.999023438 c 1
 445 430.999023438 l 1
 472 524.999023438 l 1
577 519 m 1
 555 522.333007812 533.666992188 524.333007812 513 525 c 1
 545 419 l 1
 577 519 l 1
657 500 m 1
 638.333007812 505.333007812 620.666992188 510 604 514 c 1
 633 419 l 1
 657 500 l 1
744.000976562 471 m 1
 737.333984375 473.666992188 729.000976562 476.666992188 719.000976562 480 c 1
 733.000976562 433 l 1
 744.000976562 471 l 1
831.000976562 439 m 2
 829.000976562 439.666992188 827.333984375 440.333007812 826.000976562 441 c 1
 829.000976562 430 l 1
 831.000976562 439 l 2
767.000976562 316.999023438 m 1
 799.001953125 328.999023438 l 1
 786.334960938 323.666015625 775.66796875 319.666015625 767.000976562 316.999023438 c 1
691.001953125 293.999023438 m 1
 682.001953125 291.998046875 l 1
 685.334960938 292.665039062 688.334960938 293.33203125 691.001953125 293.999023438 c 1
397.001953125 272.998046875 m 1
 398.001953125 272.998046875 l 1
 397.001953125 272.998046875 l 1
287.001953125 298.998046875 m 1
 294.334960938 296.998046875 301.001953125 294.998046875 307.001953125 292.998046875 c 1
 287.001953125 298.998046875 l 1
100.001953125 367.998046875 m 1
 139.001953125 352.998046875 l 1
 123.001953125 359.665039062 110.001953125 364.665039062 100.001953125 367.998046875 c 1
219.001953125 488.998046875 m 1x28
 190.001953125 476.998046875 l 1x18
 202.001953125 482.331054688 211.668945312 486.331054688 219.001953125 488.998046875 c 1x28
981.001953125 411.998046875 m 1
 976.334960938 409.331054688 954.002929688 397.998046875 914.002929688 377.998046875 c 2
 838.002929688 343.998046875 l 2
 832.002929688 341.331054688 824.3359375 338.331054688 815.002929688 334.998046875 c 2
 756.002929688 313.998046875 l 2
 743.3359375 309.998046875 729.668945312 305.665039062 715.001953125 300.998046875 c 2
 663.001953125 286.998046875 l 2
 653.001953125 284.331054688 633.001953125 280.6640625 603.001953125 275.997070312 c 2
 590.001953125 273.997070312 l 1
 589.001953125 273.997070312 l 1x48
 572.001953125 270.997070312 l 2
 555.334960938 268.330078125 535.66796875 266.997070312 513.000976562 266.997070312 c 2
 477.000976562 266.997070312 l 2
 452.333984375 266.997070312 429.000976562 268.6640625 407.000976562 271.997070312 c 2
 387.000976562 274.997070312 l 2
 369.000976562 277.6640625 349.000976562 281.997070312 327.000976562 287.997070312 c 2x88
 274.000976562 302.997070312 l 2
 262.66796875 306.997070312 251.000976562 310.997070312 239.000976562 314.997070312 c 2
 167.000976562 341.997070312 l 2
 162.333984375 343.997070312 159.833984375 344.997070312 159.500976562 344.997070312 c 0
 159.16796875 344.997070312 156.66796875 345.997070312 152.000976562 347.997070312 c 2
 88.0009765625 371.997070312 l 2
 82.0009765625 373.997070312 78.333984375 375.330078125 77.0009765625 375.997070312 c 2
 61.0009765625 380.997070312 l 2
 35.0009765625 388.997070312 20.0009765625 393.330078125 16.0009765625 393.997070312 c 1
 28.0009765625 400.6640625 47.0009765625 410.331054688 73.0009765625 422.998046875 c 2
 120.000976562 444.998046875 l 1
 148.000976562 458.998046875 l 2
 158.66796875 463.665039062 167.000976562 467.33203125 173.000976562 469.999023438 c 2
 230.000976562 492.999023438 l 2
 240.000976562 495.666015625 254.000976562 500.666015625 272.000976562 507.999023438 c 0
 290.000976562 515.33203125 301.333984375 519.165039062 306.000976562 519.498046875 c 0
 310.66796875 519.831054688 319.66796875 521.998046875 333.000976562 525.998046875 c 0
 347.000976562 529.998046875 365.333984375 533.998046875 388.000976562 537.998046875 c 2
 412.000976562 541.998046875 l 2
 432.000976562 545.331054688 454.333984375 546.998046875 479.000976562 546.998046875 c 2
 507.000976562 546.998046875 l 2
 534.333984375 546.998046875 560.000976562 544.998046875 584.000976562 540.998046875 c 2
 596.000976562 538.998046875 l 2
 624.66796875 534.331054688 647.334960938 529.331054688 664.001953125 523.998046875 c 2
 683.001953125 517.998046875 l 1
 710.001953125 509.998046875 l 2
 716.001953125 507.998046875 729.668945312 503.331054688 751.001953125 495.998046875 c 2
 816.001953125 472.998046875 l 2
 828.001953125 468.331054688 835.668945312 465.331054688 839.001953125 463.998046875 c 2
 897.001953125 442.998046875 l 2
 899.668945312 441.665039062 902.501953125 440.498046875 905.501953125 439.498046875 c 0
 908.501953125 438.498046875 911.334960938 437.331054688 914.001953125 435.998046875 c 2
 930.001953125 429.998046875 l 2
 946.001953125 423.998046875 963.001953125 417.998046875 981.001953125 411.998046875 c 1
EndSplineSet
Validated: 524289
EndChar

StartChar: z
Encoding: 122 122 89
Width: 1000
GlyphClass: 1
Flags: MW
HStem: 330 15<19 984 19 984> 394 14<19 984 19 984> 457 15<19 984 19 984>
CounterMasks: 1 e0
LayerCount: 2
Fore
SplineSet
19 345 m 1
 984 345 l 1
 984 330 l 1
 19 330 l 1
 19 345 l 1
19 408 m 1
 984 408 l 1
 984 394 l 1
 19 394 l 1
 19 408 l 1
19 472 m 1
 984 472 l 1
 984 457 l 1
 19 457 l 1
 19 472 l 1
EndSplineSet
Validated: 1
EndChar

StartChar: braceleft
Encoding: 123 123 90
Width: 1000
GlyphClass: 1
Flags: MW
HStem: 294.001 27 477.001 27
LayerCount: 2
Fore
SplineSet
224 477 m 1
 18.0009765625 477.000976562 l 1
 18.0009765625 504.000976562 l 1
 983.000976562 504.000976562 l 1
 983.000976562 477.000976562 l 1
 924.000976562 477.000976562 l 1
 884.66796875 413.66796875 848.16796875 375.000976562 814.500976562 361.000976562 c 0
 780.833984375 347.000976562 748.666992188 333.66796875 718 321.000976562 c 1
 983 321.000976562 l 1
 983 294.000976562 l 1
 18 294.000976562 l 1
 18 321.000976562 l 1
 39 321.000976562 l 1
 71.6669921875 376.333984375 101.166992188 412.666992188 127.5 430 c 0
 153.833007812 447.333007812 186 463 224 477 c 1
709.000976562 321.000976562 m 1
 741.66796875 376.333984375 771.16796875 412.66796875 797.500976562 430.000976562 c 0
 823.833984375 447.333984375 856.000976562 463.000976562 894.000976562 477.000976562 c 1
 707.000976562 477.000976562 l 1
 667.66796875 413.66796875 631.16796875 375.000976562 597.500976562 361.000976562 c 0
 563.833984375 347.000976562 532.000976562 333.66796875 502.000976562 321.000976562 c 1
 709.000976562 321.000976562 l 1
909.000976562 473.001953125 m 1
 867.66796875 457.001953125 834.833007812 443.001953125 810.5 431.001953125 c 0
 786.166992188 419.001953125 759 386.334960938 729 333.001953125 c 1
 755 345.668945312 782.833007812 357.168945312 812.5 367.501953125 c 0
 842.166992188 377.834960938 874.333984375 413.001953125 909.000976562 473.001953125 c 1
491.999023438 321.001953125 m 1
 523.999023438 376.334960938 553.333007812 412.668945312 580 430.001953125 c 0
 606.666992188 447.334960938 639 463.001953125 677 477.001953125 c 1
 484 477.001953125 l 1
 444.666992188 413.668945312 408.166992188 375.001953125 374.5 361.001953125 c 0
 340.833007812 347.001953125 308.666015625 333.668945312 277.999023438 321.001953125 c 1
 491.999023438 321.001953125 l 1
693 473.002929688 m 1
 651.666992188 457.002929688 618.833007812 443.002929688 594.5 431.002929688 c 0
 570.166992188 419.002929688 542.666992188 386.3359375 512 333.002929688 c 1
 538 345.669921875 566 357.169921875 596 367.502929688 c 0
 626 377.8359375 658.333007812 413.002929688 693 473.002929688 c 1
268.999023438 321.002929688 m 1
 301.666015625 376.3359375 331 412.669921875 357 430.002929688 c 0
 383 447.3359375 415.333007812 463.002929688 454 477.002929688 c 1
 254 477.002929688 l 1
 214.666992188 413.669921875 178.166992188 375.002929688 144.5 361.002929688 c 0
 110.833007812 347.002929688 78.666015625 333.669921875 47.9990234375 321.002929688 c 1
 268.999023438 321.002929688 l 1
469 473.00390625 m 1
 427.666992188 457.00390625 394.831054688 443.00390625 370.498046875 431.00390625 c 0
 346.165039062 419.00390625 318.665039062 386.336914062 287.998046875 333.00390625 c 1
 314.665039062 345.670898438 342.83203125 357.170898438 372.499023438 367.50390625 c 0
 402.166015625 377.836914062 434.333007812 413.00390625 469 473.00390625 c 1
238.997070312 473.00390625 m 1
 197.6640625 457.00390625 164.830078125 443.00390625 140.497070312 431.00390625 c 0
 116.1640625 419.00390625 88.6640625 386.336914062 57.9970703125 333.00390625 c 1
 83.9970703125 345.670898438 111.997070312 357.170898438 141.997070312 367.50390625 c 0
 171.997070312 377.836914062 204.330078125 413.00390625 238.997070312 473.00390625 c 1
EndSplineSet
Validated: 524289
EndChar

StartChar: bar
Encoding: 124 124 91
Width: 1000
GlyphClass: 1
Flags: MW
HStem: 267.001 248.999
LayerCount: 2
Fore
SplineSet
338 516 m 1
 306.666992188 462.666992188 276.833984375 421.833007812 248.500976562 393.5 c 0
 220.16796875 365.166992188 192.66796875 343.5 166.000976562 328.5 c 0
 139.333984375 313.5 113.500976562 302.333007812 88.5009765625 295 c 0
 63.5009765625 287.666992188 39.333984375 278.333984375 16.0009765625 267.000976562 c 1
 70.66796875 362.333984375 119.66796875 420.666992188 163.000976562 442 c 0
 206.333984375 463.333007812 264.666992188 488 338 516 c 1
305 490.999023438 m 1
 246.333007812 468.999023438 199.83203125 449.5 165.499023438 432.5 c 0
 131.166015625 415.5 92.3330078125 369 49 293 c 1
 86.3330078125 311 126 327.166992188 168 341.5 c 0
 210 355.833007812 255.666992188 405.666015625 305 490.999023438 c 1
561.999023438 516 m 1
 530.666015625 462.666992188 500.668945312 421.833007812 472.001953125 393.5 c 0
 443.334960938 365.166992188 415.66796875 343.5 389.000976562 328.5 c 0
 362.333984375 313.5 336.666992188 302.333007812 312 295 c 0
 287.333007812 287.666992188 263.333007812 278.333984375 240 267.000976562 c 1
 294.666992188 362.333984375 343.666992188 420.666992188 387 442 c 0
 430.333007812 463.333007812 488.666015625 488 561.999023438 516 c 1
529.001953125 490.999023438 m 1
 470.334960938 468.999023438 423.670898438 449.5 389.00390625 432.5 c 0
 354.336914062 415.5 315.336914062 369 272.00390625 293 c 1
 309.336914062 311 349.169921875 327.166992188 391.502929688 341.5 c 0
 433.8359375 355.833007812 479.668945312 405.666015625 529.001953125 490.999023438 c 1
776.004882812 516 m 1
 744.671875 462.666992188 714.838867188 421.833007812 686.505859375 393.5 c 0
 658.172851562 365.166992188 630.672851562 343.5 604.005859375 328.5 c 0
 577.338867188 313.5 551.505859375 302.333007812 526.505859375 295 c 0
 501.505859375 287.666992188 477.338867188 278.333984375 454.005859375 267.000976562 c 1
 508.672851562 362.333984375 557.672851562 420.666992188 601.005859375 442 c 0
 644.338867188 463.333007812 702.671875 488 776.004882812 516 c 1
743.004882812 490.999023438 m 1
 684.337890625 468.999023438 637.836914062 449.5 603.50390625 432.5 c 0
 569.170898438 415.5 530.337890625 369 487.004882812 293 c 1
 524.337890625 311 564.004882812 327.166992188 606.004882812 341.5 c 0
 648.004882812 355.833007812 693.671875 405.666015625 743.004882812 490.999023438 c 1
981.00390625 516 m 1
 949.670898438 462.666992188 919.837890625 421.833007812 891.504882812 393.5 c 0
 863.171875 365.166992188 835.671875 343.5 809.004882812 328.5 c 0
 782.337890625 313.5 756.504882812 302.333007812 731.504882812 295 c 0
 706.504882812 287.666992188 682.337890625 278.333984375 659.004882812 267.000976562 c 1
 713.671875 362.333984375 762.671875 420.666992188 806.004882812 442 c 0
 849.337890625 463.333007812 907.670898438 488 981.00390625 516 c 1
948.00390625 490.999023438 m 1
 889.336914062 468.999023438 842.8359375 449.5 808.502929688 432.5 c 0
 774.169921875 415.5 735.336914062 369 692.00390625 293 c 1
 729.336914062 311 769.00390625 327.166992188 811.00390625 341.5 c 0
 853.00390625 355.833007812 898.670898438 405.666015625 948.00390625 490.999023438 c 1
EndSplineSet
Validated: 524289
EndChar

StartChar: braceright
Encoding: 125 125 92
Width: 1000
GlyphClass: 1
Flags: MW
HStem: 317 156<484.669 517.336> 378 42<145.002 367.002 145.002 145.002 635 855 635 635> 489 20G<794 794>
LayerCount: 2
Fore
SplineSet
635 378 m 1x60
 628.333007812 360.666992188 612.502929688 346.166992188 587.502929688 334.5 c 0
 562.502929688 322.833007812 533.669921875 317 501.002929688 317 c 0xa0
 468.3359375 317 439.668945312 322.833007812 415.001953125 334.5 c 0
 390.334960938 346.166992188 374.334960938 360.666992188 367.001953125 378 c 1
 145.001953125 378 l 1
 245.001953125 325 l 1
 206.001953125 289 l 1
 17.001953125 398 l 1
 17.001953125 420 l 1
 371.001953125 420 l 1x60
 392.334960938 455.333007812 435.66796875 473 501.000976562 473 c 0xa0
 566.333984375 473 609.666992188 455.333007812 631 420 c 1
 855 420 l 1x60
 754 473 l 1xa0
 794 509 l 1
 982 400 l 1
 982 378 l 1
 635 378 l 1x60
EndSplineSet
Validated: 524289
EndChar

StartChar: asciitilde
Encoding: 126 126 93
Width: 1000
GlyphClass: 1
Flags: MW
HStem: 327 156<483.667 516.333 483.667 532.666> 380 42<144 366 144 370> 491 20G<205 205>
LayerCount: 2
Fore
SplineSet
981 422 m 1x60
 980.998046875 400 l 1
 792.998046875 291 l 1
 752.998046875 328 l 1
 853.998046875 381 l 1
 629.998046875 380 l 1x60
 608.665039062 344.666992188 565.33203125 327 499.999023438 327 c 0xa0
 434.666015625 327 391.333007812 344.666992188 370 380 c 1
 16 380 l 1
 16 402 l 1
 205 511 l 1
 244 475 l 1
 144 422 l 1
 366 422 l 1x60
 372.666992188 439.333007812 388.5 453.833007812 413.5 465.5 c 0
 438.5 477.166992188 467.333007812 483 500 483 c 0xa0
 532.666992188 483 561.5 477.166992188 586.5 465.5 c 0
 611.5 453.833007812 627.333007812 439.333007812 634 422 c 1
 981 422 l 1x60
EndSplineSet
Validated: 524289
EndChar

StartChar: uni00A0
Encoding: 160 160 94
Width: 1000
GlyphClass: 1
Flags: MW
HStem: 383 44<287 417 150 449 287 287 583 713> 661 20G<500 500>
LayerCount: 2
Fore
SplineSet
634 269 m 1
 716 16 l 1
 500 172 l 1
 284 16 l 1
 366 270 l 1
 150 427 l 1
 417 427 l 1
 500 681 l 1
 583 427 l 1
 850 427 l 1
 634 269 l 1
550 383 m 1
 500 537 l 1
 449 383 l 1
 287 383 l 1
 419 287 l 1
 369 132 l 1
 500 228 l 1
 632 132 l 1
 581 287 l 1
 713 383 l 1
 550 383 l 1
EndSplineSet
Validated: 1
EndChar

StartChar: exclamdown
Encoding: 161 161 95
Width: 1000
GlyphClass: 1
Flags: MW
HStem: 327 163<480.333 513.667 480.333 529.002> 381 41<161.002 363.002 161.002 369.002 161.002 363.002 630 832>
LayerCount: 2
Fore
SplineSet
832 422 m 1x40
 787.001953125 489 l 1
 979.001953125 402 l 1
 787.001953125 314 l 1
 832.001953125 381 l 1
 625.001953125 381 l 1x40
 603.668945312 345 561.001953125 327 497.001953125 327 c 0x80
 433.001953125 327 390.334960938 345 369.001953125 381 c 1
 161.001953125 381 l 1
 206.001953125 314 l 1
 14.001953125 402 l 1
 206.001953125 489 l 1
 161.001953125 422 l 1
 363.001953125 422 l 1x40
 368.334960938 441.333007812 383.66796875 457.5 409.000976562 470.5 c 0
 434.333984375 483.5 463.666992188 490 497 490 c 0x80
 530.333007812 490 559.5 483.5 584.5 470.5 c 0
 609.5 457.5 624.666992188 441.333007812 630 422 c 1
 832 422 l 1x40
EndSplineSet
Validated: 524289
EndChar

StartChar: cent
Encoding: 162 162 96
Width: 1000
GlyphClass: 1
Flags: MW
HStem: 381 41<165 836 165 836> 469 20G<210 210 791 791>
LayerCount: 2
Fore
SplineSet
836 422 m 1
 791 489 l 1
 983 401 l 1
 791 314 l 1
 836 381 l 1
 165 381 l 1
 210 314 l 1
 18 401 l 1
 210 489 l 1
 165 422 l 1
 836 422 l 1
EndSplineSet
Validated: 1
EndChar

StartChar: sterling
Encoding: 163 163 97
Width: 1000
GlyphClass: 1
Flags: MW
HStem: 75 21G<481.001 518.001 481.001 481.001> 382 37<86 305 86 305 694.002 913.002>
VStem: 481.001 37
LayerCount: 2
Fore
SplineSet
86 419 m 1
 305 419 l 1
 312.333007812 443 332.333007812 463.5 365 480.5 c 0
 397.666992188 497.5 436.333984375 507 481.000976562 509 c 1
 481.000976562 727 l 1
 518.000976562 727 l 1
 518.000976562 509 l 1
 562.66796875 507 601.334960938 497.5 634.001953125 480.5 c 0
 666.668945312 463.5 686.668945312 443 694.001953125 419 c 1
 913.001953125 419 l 1
 913.001953125 382 l 1
 694.001953125 382 l 1
 686.668945312 358 666.668945312 337.666992188 634.001953125 321 c 0
 601.334960938 304.333007812 562.66796875 295 518.000976562 293 c 1
 518.000976562 75 l 1
 481.000976562 75 l 1
 481.000976562 293 l 1
 436.333984375 295 397.666992188 304.333007812 365 321 c 0
 332.333007812 337.666992188 312.333007812 358 305 382 c 1
 86 382 l 1
 86 419 l 1
EndSplineSet
Validated: 524289
EndChar

StartChar: currency
Encoding: 164 164 98
Width: 1000
GlyphClass: 1
Flags: MW
HStem: 83 21G<498 498>
LayerCount: 2
Fore
SplineSet
180 401 m 1
 498 719 l 1
 816 401 l 1
 498 83 l 1
 180 401 l 1
267 401 m 1
 498 170 l 1
 729 401 l 1
 498 632 l 1
 267 401 l 1
EndSplineSet
Validated: 1
EndChar

StartChar: yen
Encoding: 165 165 99
Width: 1000
GlyphClass: 1
Flags: MW
HStem: 295 214<486 512> 381 41<163 393 163 163> 469 20G<208 208 789.001 789.001>
LayerCount: 2
Fore
SplineSet
499 509 m 0x80
 525 509 547.668945312 500.833007812 567.001953125 484.5 c 0
 586.334960938 468.166992188 598.66796875 447.666992188 604.000976562 423 c 1
 834.000976562 422 l 1
 789.000976562 489 l 1
 981.000976562 402 l 1
 789.000976562 314 l 1
 834.000976562 381 l 1
 604.000976562 381 l 1x60
 599.333984375 356.333007812 587.166992188 335.833007812 567.5 319.5 c 0
 547.833007812 303.166992188 525 295 499 295 c 0x80
 473 295 450.166992188 303.166992188 430.5 319.5 c 0
 410.833007812 335.833007812 398.333007812 356.333007812 393 381 c 1
 163 381 l 1
 208 314 l 1
 16 402 l 1
 208 489 l 1
 163 422 l 1x60
 393 423 l 1
 397.666992188 447.666992188 410 468.166992188 430 484.5 c 0
 450 500.833007812 473 509 499 509 c 0x80
EndSplineSet
Validated: 524289
EndChar

StartChar: brokenbar
Encoding: 166 166 100
Width: 1000
GlyphClass: 1
Flags: MW
HStem: 391 38<17 463 17 947 497 947 497 497 981.001 981.501 981.501 982.001 17 981.001> 488 20G<914.001 952.001 952.001 952.001>
VStem: 462 35<319 391> 947 28.001
LayerCount: 2
Fore
SplineSet
17 429 m 1
 947 429 l 1
 945.666992188 439 943.333984375 448.666992188 940.000976562 458 c 0
 934.66796875 474 926.000976562 490.666992188 914.000976562 508 c 1
 952.000976562 508 l 1
 962.000976562 492 969.66796875 476 975.000976562 460 c 0
 978.333984375 450 980.333984375 439.666992188 981.000976562 429 c 1
 981.500976562 429 l 1
 982.000976562 429 l 1
 982.000976562 410 l 1
 982.000976562 391 l 1
 981.000976562 391 l 1
 979.66796875 381 977.66796875 370.666992188 975.000976562 360 c 0
 969.66796875 344 962.000976562 328 952.000976562 312 c 1
 914.000976562 312 l 1
 925.333984375 329.333007812 934.000976562 346 940.000976562 362 c 0
 943.333984375 371.333007812 945.666992188 381 947 391 c 1
 497 391 l 1
 497 319 l 1
 532 319 l 1
 481 254 l 1
 427 319 l 1
 462 319 l 1
 463 391 l 1
 17 391 l 1
 17 429 l 1
EndSplineSet
Validated: 524289
EndChar

StartChar: section
Encoding: 167 167 101
Width: 1000
GlyphClass: 1
Flags: MW
HStem: 381 38<17 462 17 463 497 947 17 497 981.001 981.501 981.501 982.001> 479 21G
VStem: 463 34<419 498 498 498> 947 28.001
LayerCount: 2
Fore
SplineSet
17 419 m 1
 463 419 l 1
 463 498 l 1
 497 499 l 1
 497 419 l 1
 947 419 l 1
 945.666992188 429 943.333984375 438.666992188 940.000976562 448 c 0
 934.66796875 464 926.000976562 480.666992188 914.000976562 498 c 1
 952.000976562 498 l 1
 962.000976562 482 969.66796875 466 975.000976562 450 c 0
 978.333984375 440 980.333984375 429.666992188 981.000976562 419 c 1
 981.500976562 419 l 1
 982.000976562 419 l 1
 982.000976562 400 l 1
 982.000976562 381 l 1
 981.000976562 381 l 1
 979.66796875 371 977.66796875 360.666992188 975.000976562 350 c 0
 969.66796875 334 962.000976562 318 952.000976562 302 c 1
 914.000976562 302 l 1
 925.333984375 319.333007812 934.000976562 336 940.000976562 352 c 0
 943.333984375 361.333007812 945.666992188 371 947 381 c 1
 497 381 l 1
 497 309 l 1
 462 309 l 1
 462 381 l 1
 17 381 l 1
 17 419 l 1
EndSplineSet
Validated: 524289
EndChar

StartChar: dieresis
Encoding: 168 168 102
Width: 1000
GlyphClass: 1
Flags: MW
HStem: 382 40<46 955 46 46>
LayerCount: 2
Fore
SplineSet
955 421 m 1
 955 382 l 1
 46 382 l 1
 46 422 l 1
 955 421 l 1
EndSplineSet
Validated: 1
EndChar

StartChar: copyright
Encoding: 169 169 103
Width: 1000
GlyphClass: 1
Flags: MW
HStem: 279 236<483.667 516.333>
VStem: 382 235.001
LayerCount: 2
Fore
SplineSet
500 279 m 0
 467.333007812 279 439.5 290.5 416.5 313.5 c 0
 393.5 336.5 382 364.333007812 382 397 c 0
 382 429.666992188 393.5 457.5 416.5 480.5 c 0
 439.5 503.5 467.333007812 515 500 515 c 0
 532.666992188 515 560.333984375 503.5 583.000976562 480.5 c 0
 605.66796875 457.5 617.000976562 429.666992188 617.000976562 397 c 0
 617.000976562 364.333007812 605.66796875 336.5 583.000976562 313.5 c 0
 560.333984375 290.5 532.666992188 279 500 279 c 0
EndSplineSet
Validated: 524289
EndChar

StartChar: ordfeminine
Encoding: 170 170 104
Width: 1000
GlyphClass: 1
Flags: MW
HStem: 168 447<279 726 279 726>
VStem: 279 447<168 615 168 615>
LayerCount: 2
Fore
SplineSet
279 168 m 1
 279 615 l 1
 726 615 l 1
 726 168 l 1
 279 168 l 1
EndSplineSet
Validated: 1
EndChar

StartChar: guillemotleft
Encoding: 171 171 105
Width: 1000
GlyphClass: 1
Flags: MW
HStem: 581 20G<483 516 516 516>
VStem: 483 33<195 601>
LayerCount: 2
Fore
SplineSet
516 195 m 1
 483 195 l 1
 483 601 l 1
 516 601 l 1
 516 195 l 1
EndSplineSet
Validated: 1
EndChar

StartChar: logicalnot
Encoding: 172 172 106
Width: 1000
GlyphClass: 1
Flags: MW
HStem: 276 236<468.667 529.333>
VStem: 278 441<377.667 410.333>
LayerCount: 2
Fore
SplineSet
499 276 m 0
 438.333007812 276 386.333007812 287.5 343 310.5 c 0
 299.666992188 333.5 278 361.333007812 278 394 c 0
 278 426.666992188 299.666992188 454.5 343 477.5 c 0
 386.333007812 500.5 438.333007812 512 499 512 c 0
 559.666992188 512 611.5 500.5 654.5 477.5 c 0
 697.5 454.5 719 426.666992188 719 394 c 0
 719 361.333007812 697.5 333.5 654.5 310.5 c 0
 611.5 287.5 559.666992188 276 499 276 c 0
EndSplineSet
Validated: 524289
EndChar

StartChar: registered
Encoding: 174 174 107
Width: 1000
GlyphClass: 1
Flags: MW
HStem: 172 46<321 678 321 723 276 678> 574 45<321 321 321 678>
VStem: 276 45<218 574 218 619> 678 45<218 574 574 574>
LayerCount: 2
Fore
SplineSet
276 619 m 1
 723 619 l 1
 723 172 l 1
 276 172 l 1
 276 619 l 1
321 574 m 1
 321 218 l 1
 678 218 l 1
 678 574 l 1
 321 574 l 1
EndSplineSet
Validated: 1
EndChar

StartChar: macron
Encoding: 175 175 108
Width: 1000
GlyphClass: 1
Flags: MW
HStem: 266 27<231 744 231 777> 505 27<231 231 231 744>
VStem: 198 33<293 505 293 532 293 532> 744 33<293 505 505 505>
LayerCount: 2
Fore
SplineSet
198 532 m 1
 777 532 l 1
 777 266 l 1
 198 266 l 1
 198 532 l 1
231 505 m 1
 231 293 l 1
 744 293 l 1
 744 505 l 1
 231 505 l 1
EndSplineSet
Validated: 1
EndChar

StartChar: degree
Encoding: 176 176 109
Width: 1000
GlyphClass: 1
Flags: MW
HStem: 261 266<201 780 201 780>
LayerCount: 2
Fore
SplineSet
201 261 m 1
 201 527 l 1
 780 527 l 1
 780 261 l 1
 201 261 l 1
EndSplineSet
Validated: 1
EndChar

StartChar: plusminus
Encoding: 177 177 110
Width: 1000
GlyphClass: 1
Flags: MW
HStem: 383 36<137 866 137 868 135 866>
LayerCount: 2
Fore
SplineSet
868 383 m 1
 135 383 l 1
 125 353.666992188 105 339 75 339 c 0
 57.6669921875 339 42.6669921875 345.333007812 30 358 c 0
 17.3330078125 370.666992188 11 386 11 404 c 0
 11 422 17.1669921875 437.333007812 29.5 450 c 0
 41.8330078125 462.666992188 57 469 75 469 c 0
 104.333007812 469 124 455 134 427 c 0
 134.666992188 425 135.666992188 422.333007812 137 419 c 2
 866 419 l 1
 873.333007812 452.333007812 894.333007812 469 929 469 c 0
 946.333007812 469 961.166015625 462.666992188 973.499023438 450 c 0
 985.83203125 437.333007812 991.999023438 422 991.999023438 404 c 0
 991.999023438 386 985.83203125 370.666992188 973.499023438 358 c 0
 961.166015625 345.333007812 946.333007812 339 929 339 c 0
 898.333007812 339 878 353.666992188 868 383 c 1
EndSplineSet
Validated: 524289
EndChar

StartChar: uni00B2
Encoding: 178 178 111
Width: 1000
GlyphClass: 1
Flags: MW
HStem: 294 41.999 380.999 39 430 39.999
VStem: 248.001 44 633 41<470.999 470.999>
LayerCount: 2
Fore
SplineSet
374 430 m 0
 319.333007812 430 292.000976562 392.333007812 292.000976562 317 c 0
 292.000976562 309.666992188 292.333984375 302 293.000976562 294 c 1
 252.000976562 294 l 1
 249.333984375 301.333007812 248.000976562 310.666015625 248.000976562 321.999023438 c 2
 253.000976562 380.999023438 l 1
 15.0009765625 380.999023438 l 1
 15.0009765625 419.999023438 l 1
 274.000976562 419.999023438 l 1
 298.66796875 453.33203125 328.000976562 469.999023438 362.000976562 469.999023438 c 0
 368.66796875 469.999023438 375.66796875 469.33203125 383.000976562 467.999023438 c 0
 427.000976562 459.999023438 464.333984375 435.33203125 495.000976562 393.999023438 c 0
 503.000976562 383.33203125 509.66796875 374.33203125 515.000976562 366.999023438 c 0
 530.333984375 346.33203125 547.666992188 335.999023438 567 335.999023438 c 1
 605 350.999023438 l 1
 627.666992188 368.999023438 639 391.33203125 639 417.999023438 c 2
 633 470.999023438 l 1
 674 470.999023438 l 1
 676 454.999023438 677.333007812 437.999023438 678 419.999023438 c 1
 924 419.999023438 l 1
 924 462.999023438 l 1
 980 401.999023438 l 1
 923 344.999023438 l 1
 923 380.999023438 l 1
 676 379.999023438 l 1
 672 368.999023438 l 2
 661.333007812 337.666015625 638.333007812 315.333007812 603 302 c 0
 589 296.666992188 575.5 294 562.5 294 c 0
 549.5 294 537 296.666992188 525 302 c 0
 494.333007812 316 470 340.833007812 452 376.5 c 0
 434 412.166992188 408 430 374 430 c 0
EndSplineSet
Validated: 524289
EndChar

StartChar: uni00B3
Encoding: 179 179 112
Width: 1000
GlyphClass: 1
Flags: MW
HStem: 278 41<457 591 457 591> 381 39<27 414 27 27> 483 40<301 433 301 497>
LayerCount: 2
Fore
SplineSet
474 420 m 1
 883 419 l 1
 883 464 l 1
 966 402 l 1
 883 343 l 1
 883 381 l 1
 469 381 l 1
 457 319 l 1
 591 319 l 1
 591 278 l 1
 395 278 l 1
 414 381 l 1
 27 381 l 1
 27 420 l 1
 420 418 l 1
 433 483 l 1
 301 483 l 1
 301 523 l 1
 497 523 l 1
 474 420 l 1
EndSplineSet
Validated: 1
EndChar

StartChar: acute
Encoding: 180 180 113
Width: 1000
GlyphClass: 1
Flags: MW
HStem: 382 38.999 464.999 20G
VStem: 467 22<381.999 382>
LayerCount: 2
Fore
SplineSet
0 382 m 1
 -0.001953125 420.999023438 l 1
 468.998046875 420.999023438 l 1
 467.665039062 428.33203125 465.33203125 435.999023438 461.999023438 443.999023438 c 0
 456.666015625 457.33203125 448.333007812 470.999023438 437 484.999023438 c 1
 462 484.999023438 l 1
 472 471.666015625 479.333007812 458.666015625 484 445.999023438 c 0
 486.666992188 437.33203125 489 428.999023438 491 420.999023438 c 1
 909 420.999023438 l 1
 909 463.999023438 l 1
 997 400.999023438 l 1
 908 345.999023438 l 1
 908 381.999023438 l 1
 489 381.999023438 l 1
 487.666992188 375.999023438 486 369.999023438 484 363.999023438 c 0
 479.333007812 350.666015625 472 337.333007812 462 324 c 1
 437 324 l 1
 447.666992188 338 456 351.666992188 462 365 c 0
 464 370.333007812 465.666992188 376 467 382 c 1
 0 382 l 1
EndSplineSet
Validated: 524289
EndChar

StartChar: mu
Encoding: 181 181 114
Width: 1000
GlyphClass: 1
Flags: MW
HStem: 381 39<0 422> 496 20G<335 382 382 382 546 589 589 589>
LayerCount: 2
Fore
SplineSet
0 380 m 1
 0 420 l 1
 419 420 l 1
 335 516 l 1
 382 516 l 1
 461 423 l 1
 546 516 l 1
 589 516 l 1
 501 420 l 1
 907 417 l 1
 907 466 l 1
 1003 402 l 1
 907 339 l 1
 908 381 l 1
 500 381 l 1
 597 270 l 1
 548 270 l 1
 459 374 l 1
 369 270 l 1
 321 270 l 1
 422 381 l 1
 0 380 l 1
EndSplineSet
Validated: 1
EndChar

StartChar: paragraph
Encoding: 182 182 115
Width: 1000
GlyphClass: 1
Flags: MW
HStem: 291 48<159 175 493 509 826 842> 381 40<46 955 46 46> 463 48<159 175 493 509 826 842>
VStem: 143 48<307 323 479 495> 476 49<315 315 487 487> 810 48<307 323 479 495>
CounterMasks: 1 fc
LayerCount: 2
Fore
SplineSet
955 420 m 1
 955 381 l 1
 46 381 l 1
 46 421 l 1
 955 420 l 1
167 511 m 0
 183 511 191 503 191 487 c 0
 191 471 183 463 167 463 c 0
 151 463 143 471 143 487 c 0
 143 503 151 511 167 511 c 0
501 511 m 0
 517 511 525 503 525 487 c 0
 525 471 517 463 501 463 c 0
 485 463 476.666992188 471 476 487 c 0
 476.666992188 503 485 511 501 511 c 0
834 511 m 0
 850 511 858 503 858 487 c 0
 858 471 850 463 834 463 c 0
 818 463 810 471 810 487 c 0
 810 503 818 511 834 511 c 0
167 339 m 0
 183 339 191 331 191 315 c 0
 191 299 183 291 167 291 c 0
 151 291 143 299 143 315 c 0
 143 331 151 339 167 339 c 0
501 339 m 0
 517 339 525 331 525 315 c 0
 525 299 517 291 501 291 c 0
 485 291 476.666992188 299 476 315 c 0
 476.666992188 331 485 339 501 339 c 0
834 339 m 0
 850 339 858 331 858 315 c 0
 858 299 850 291 834 291 c 0
 818 291 810 299 810 315 c 0
 810 331 818 339 834 339 c 0
EndSplineSet
Validated: 524289
EndChar

StartChar: periodcentered
Encoding: 183 183 116
Width: 1000
GlyphClass: 1
Flags: MW
HStem: 288 28<421 706 421 706 437 706 437 763> 483 30<16 229 229 255 16 229>
LayerCount: 2
Fore
SplineSet
16 513 m 1
 229 513 l 1
 572 513 l 1
 737 319 l 1
 981 319 l 1
 981 288 l 1
 763 288 l 1
 425 288 l 1
 421 288 l 1
 255 483 l 1
 16 483 l 1
 16 513 l 1
292 486 m 1
 437 316 l 1
 706 316 l 1
 562 486 l 1
 292 486 l 1
EndSplineSet
Validated: 1
EndChar

StartChar: cedilla
Encoding: 184 184 117
Width: 1000
GlyphClass: 1
Flags: MW
HStem: 209 49<479.333 518.667 479.333 525.667> 545.998 49.002
VStem: 305 50.001 642 50<382.333 421.666>
LayerCount: 2
Fore
SplineSet
499 209 m 0
 445.666992188 209 400 227.833007812 362 265.5 c 0
 324 303.166992188 305 348.666992188 305 402 c 0
 305 455.333007812 324 500.833007812 362 538.5 c 0
 400 576.166992188 445.666992188 595 499 595 c 0
 552.333007812 595 597.833007812 576.166992188 635.5 538.5 c 0
 673.166992188 500.833007812 692 455.333007812 692 402 c 0
 692 348.666992188 673.166992188 303.166992188 635.5 265.5 c 0
 597.833007812 227.833007812 552.333007812 209 499 209 c 0
499 258 m 0
 538.333007812 258 572 272.166992188 600 300.5 c 0
 628 328.833007812 642 362.666015625 642 401.999023438 c 0
 642 441.33203125 628 475.165039062 600 503.498046875 c 0
 572 531.831054688 538.333007812 545.998046875 499 545.998046875 c 0
 459.666992188 545.998046875 425.833984375 531.831054688 397.500976562 503.498046875 c 0
 369.16796875 475.165039062 355.000976562 441.33203125 355.000976562 401.999023438 c 0
 355.000976562 362.666015625 369.16796875 328.833007812 397.500976562 300.5 c 0
 425.833984375 272.166992188 459.666992188 258 499 258 c 0
EndSplineSet
Validated: 524289
EndChar

StartChar: uni00B9
Encoding: 185 185 118
Width: 1000
GlyphClass: 1
Flags: MW
HStem: 202.997 38 387.998 27.002 456 20G<900 900> 560.999 37
VStem: 377.001 48.999 471.001 46.999
LayerCount: 2
Fore
SplineSet
518 313 m 0
 518 287.666992188 533.66796875 269.330078125 565.000976562 257.997070312 c 0
 596.333984375 246.6640625 629.333984375 240.997070312 664.000976562 240.997070312 c 1
 658.000976562 203.997070312 l 1
 652.66796875 203.330078125 647.000976562 202.997070312 641.000976562 202.997070312 c 0
 632.333984375 202.997070312 620.000976562 204.330078125 604.000976562 206.997070312 c 0
 578.66796875 210.997070312 562.000976562 214.330078125 554.000976562 216.997070312 c 0
 540.66796875 220.997070312 527.66796875 228.330078125 515.000976562 238.997070312 c 0
 485.66796875 263.6640625 471.000976562 287.331054688 471.000976562 309.998046875 c 2
 471.000976562 312.998046875 l 2
 471.000976562 338.998046875 484.333984375 363.998046875 511.000976562 387.998046875 c 1
 7.0009765625 387.998046875 l 1
 7.0009765625 414.998046875 l 1
 266.000976562 414.998046875 l 1
 285.333984375 426.331054688 303.333984375 434.998046875 320.000976562 440.998046875 c 0
 336.000976562 446.331054688 347.000976562 451.331054688 353.000976562 455.998046875 c 0
 369.000976562 468.665039062 377.000976562 481.33203125 377.000976562 493.999023438 c 0
 377.000976562 503.33203125 373.333984375 512.999023438 366.000976562 522.999023438 c 0
 346.000976562 548.33203125 318.000976562 560.999023438 282.000976562 560.999023438 c 2
 256.000976562 560.999023438 l 2
 246.000976562 561.666015625 237.333984375 561.999023438 230.000976562 561.999023438 c 1
 236.000976562 597.999023438 l 1
 245.333984375 597.33203125 254.166992188 597.499023438 262.5 598.499023438 c 0
 270.833007812 599.499023438 279.333007812 599.666015625 288 598.999023438 c 0
 297.333007812 598.33203125 315.333007812 594.999023438 342 588.999023438 c 2
 355 583.999023438 l 2
 389.666992188 570.666015625 412 547.666015625 422 514.999023438 c 0
 424.666992188 506.33203125 426 498.33203125 426 490.999023438 c 0
 425.333007812 459.666015625 405 434.333007812 365 415 c 1
 900 415 l 1
 900 476 l 1
 992 401.5 l 1
 900 333 l 1
 900 388 l 1
 590 388 l 1
 584 388 l 1
 566 379.333007812 550.5 369.333007812 537.5 358 c 0
 524.5 346.666992188 518 331.666992188 518 313 c 0
EndSplineSet
Validated: 524289
EndChar

StartChar: ordmasculine
Encoding: 186 186 119
Width: 1000
GlyphClass: 1
Flags: MW
HStem: 267.999 27.001 508.999 30
LayerCount: 2
Fore
SplineSet
993.900390625 407 m 1
 857.733398438 340.333007812 739.615234375 298.666015625 639.548828125 281.999023438 c 0
 583.182617188 272.666015625 538.532226562 267.999023438 505.598632812 267.999023438 c 2
 493.249023438 267.999023438 l 2
 411.548828125 267.999023438 314.333007812 286.999023438 201.598632812 324.999023438 c 0
 104.69921875 356.999023438 38.19921875 378.666015625 2.0986328125 389.999023438 c 1
 125.598632812 451.999023438 224.874023438 492.33203125 299.923828125 510.999023438 c 0
 374.973632812 529.666015625 441.6328125 538.999023438 499.899414062 538.999023438 c 0
 515.732421875 538.999023438 530.616210938 538.33203125 544.549804688 536.999023438 c 0
 620.549804688 529.666015625 691.799804688 515.833007812 758.299804688 495.5 c 0
 824.799804688 475.166992188 903.333984375 445.666992188 993.900390625 407 c 1
957.799804688 406 m 1
 884.333984375 430.666992188 815.142578125 452.499023438 750.225585938 471.499023438 c 0
 685.309570312 490.499023438 615.484375 502.666015625 540.750976562 507.999023438 c 0
 531.884765625 508.666015625 507.659179688 508.999023438 468.076171875 508.999023438 c 0
 428.4921875 508.999023438 373.55078125 501.33203125 303.250976562 485.999023438 c 0
 232.951171875 470.666015625 149.350585938 439.333007812 52.451171875 392 c 1
 82.8505859375 384.666992188 130.034179688 371.333984375 194.000976562 352.000976562 c 0
 253.534179688 333.333984375 309.901367188 318.666992188 363.100585938 308 c 0
 406.166992188 299.333007812 452.083984375 295 500.849609375 295 c 2
 521.75 295 l 2
 624.349609375 295 769.700195312 332 957.799804688 406 c 1
EndSplineSet
Validated: 524289
EndChar

StartChar: guillemotright
Encoding: 187 187 120
Width: 1000
GlyphClass: 1
Flags: MW
HStem: 275 24.999 390.999 24.001 391.999 16.001 502.999 28.001
LayerCount: 2
Fore
SplineSet
990 407 m 1x90
 853.333007812 343 736.333984375 303.333007812 639.000976562 288 c 0
 583.000976562 279.333007812 531.000976562 275 483.000976562 275 c 0
 446.333984375 275 413.333984375 277.333007812 384.000976562 282 c 0
 308.000976562 294 242.000976562 311.666992188 186.000976562 335 c 0
 127.333984375 359 67.0009765625 377.666992188 5.0009765625 391 c 1
 122.333984375 447 225.000976562 485.666992188 313.000976562 507 c 0
 378.333984375 523 439.666992188 531 497 531 c 0
 513.666992188 531 529 530.333007812 543 529 c 0
 618.333007812 521.666992188 687.333007812 507 750 485 c 0
 818.666992188 461.666992188 898.666992188 435.666992188 990 407 c 1x90
922.000976562 415 m 1xd0
 928.001953125 414.999023438 l 1
 860.668945312 436.33203125 795.668945312 455.33203125 733.001953125 471.999023438 c 0
 671.001953125 488.666015625 606.668945312 498.666015625 540.001953125 501.999023438 c 0
 527.334960938 502.666015625 514.334960938 502.999023438 501.001953125 502.999023438 c 0
 447.001953125 502.999023438 390.668945312 497.666015625 332.001953125 486.999023438 c 0
 259.334960938 473.666015625 178.66796875 447.333007812 90.0009765625 408 c 1xb0
 922.000976562 415 l 1xd0
56.001953125 391.999023438 m 2
 52.6689453125 390.666015625 55.001953125 389.33203125 63.001953125 387.999023438 c 0
 111.001953125 377.33203125 163.001953125 362.999023438 219.001953125 344.999023438 c 0
 281.001953125 324.999023438 343.668945312 311.666015625 407.001953125 304.999023438 c 0
 438.334960938 301.666015625 471.334960938 299.999023438 506.001953125 299.999023438 c 0
 546.668945312 299.999023438 590.668945312 302.666015625 638.001953125 307.999023438 c 0
 720.668945312 317.33203125 815.001953125 344.999023438 921.001953125 390.999023438 c 1xd0
 56.001953125 391.999023438 l 2
EndSplineSet
Validated: 524289
EndChar

StartChar: onequarter
Encoding: 188 188 121
Width: 1000
GlyphClass: 1
Flags: MW
HStem: 275 25<450.333 519 474 519> 507 29.001
VStem: 188 26<353.999 450.999 450.999 450.999> 325 26<319.999 488.999 488.999 488.999> 468 26<301 507 300 507> 628 26<310.001 494.001 310.001 498 310.001 498> 784 24<346.001 346.001 346.001 458.001>
LayerCount: 2
Fore
SplineSet
1005 409 m 1
 859 340.333007812 739.666992188 299.666992188 647 287 c 0
 587.666992188 279 534.666992188 275 488 275 c 2
 474 275 l 2
 426.666992188 275 375 282.333007812 319 297 c 0
 192.333007812 330.333007812 125 348.333007812 117 351 c 0
 62.3330078125 367.666992188 23.3330078125 381.666992188 0 393 c 1
 122.666992188 451.666992188 227.333984375 491.333984375 314.000976562 512.000976562 c 0
 381.333984375 528.000976562 444.333984375 536.000976562 503.000976562 536.000976562 c 0
 519.66796875 536.000976562 535.000976562 535.333984375 549.000976562 534.000976562 c 0
 626.333984375 525.333984375 707.666992188 507.666992188 793 481 c 2
 1005 409 l 1
784 464.000976562 m 1
 737.333007812 476.66796875 694 486.66796875 654 494.000976562 c 1
 654 310.000976562 l 1
 696.666992188 316.000976562 740 325.333984375 784 338.000976562 c 1
 784 464.000976562 l 1
808 346.000976562 m 1
 860.666992188 362.66796875 914 383.333984375 968 408.000976562 c 1
 940 416.66796875 912.833007812 425.16796875 886.5 433.500976562 c 0
 860.166992188 441.833984375 834 450.000976562 808 458.000976562 c 1
 808 346.000976562 l 1
628 498 m 1
 586 504 545.333007812 507 506 507 c 2
 494 507 l 1
 494 300 l 1
 519 300 l 1
 642 308 l 1
 628 308 l 1
 628 498 l 1
468 507 m 1
 428.666992188 505.666992188 389.666992188 501.333007812 351 494 c 1
 351 315 l 1
 391 307.666992188 430 303 468 301 c 1
 468 507 l 1
325 488.999023438 m 1
 288.333007812 481.666015625 251.333007812 471.666015625 214 458.999023438 c 1
 214 346.999023438 l 1
 254 335.666015625 291 326.666015625 325 319.999023438 c 1
 325 488.999023438 l 1
188 450.999023438 m 1
 132.666992188 428.999023438 86.3330078125 410.330078125 49 394.997070312 c 1
 66.3330078125 389.6640625 87.5 383.331054688 112.5 375.998046875 c 0
 137.5 368.665039062 162.666992188 361.33203125 188 353.999023438 c 1
 188 450.999023438 l 1
EndSplineSet
Validated: 524289
EndChar

StartChar: onehalf
Encoding: 189 189 122
Width: 1000
GlyphClass: 1
Flags: MW
HStem: 302 42<17 982 17 17> 481 14
LayerCount: 2
Fore
SplineSet
611 496 m 1
 493 345 l 1
 982 344 l 1
 982 302 l 1
 17 302 l 1
 17 344 l 1
 491 345 l 1
 390 495 l 1
 611 496 l 1
578 481 m 1
 417 481 l 1
 493 373 l 1
 578 481 l 1
EndSplineSet
Validated: 1
EndChar

StartChar: threequarters
Encoding: 190 190 123
Width: 1000
GlyphClass: 1
Flags: MW
HStem: 381.999 38 562.999 20G
VStem: 483 33<419.999 582.999 419.999 582.999>
LayerCount: 2
Fore
SplineSet
868 382 m 1
 516.001953125 381.999023438 l 1
 516.001953125 221.999023438 l 1
 483.001953125 222.999023438 l 1
 483.001953125 381.999023438 l 1
 130.001953125 380.999023438 l 1
 119.334960938 350.33203125 98.66796875 334.999023438 68.0009765625 334.999023438 c 2
 66.0009765625 334.999023438 l 2
 47.333984375 334.999023438 31.5009765625 341.83203125 18.5009765625 355.499023438 c 0
 5.5009765625 369.166015625 -0.9990234375 385.333007812 -0.9990234375 404 c 0
 -0.9990234375 423.333007812 5.5009765625 439.833007812 18.5009765625 453.5 c 0
 31.5009765625 467.166992188 47.333984375 474 66.0009765625 474 c 0
 97.333984375 474 118.666992188 458.666992188 130 428 c 0
 131.333007812 425.333007812 132.333007812 422.666015625 133 419.999023438 c 2
 483 419.999023438 l 1
 483 582.999023438 l 1
 516 582.999023438 l 1
 516 419.999023438 l 1
 866 419.999023438 l 1
 874 455.999023438 896 473.999023438 932 473.999023438 c 0
 950.666992188 473.999023438 966.666992188 467.166015625 980 453.499023438 c 0
 993.333007812 439.83203125 1000 423.33203125 1000 403.999023438 c 0
 1000 384.666015625 993.333007812 368.333007812 980 355 c 0
 966.666992188 341.666992188 950.666992188 335 932 335 c 0
 900 335 878.666992188 350.666992188 868 382 c 1
EndSplineSet
Validated: 524289
EndChar

StartChar: questiondown
Encoding: 191 191 124
Width: 1000
GlyphClass: 1
Flags: MW
HStem: 314 37.998 494.998 20G
VStem: 483 33<314 314 351.998 514.998>
LayerCount: 2
Fore
SplineSet
483 314 m 1
 130 313 l 1
 119.333007812 282.333007812 98 267 66 267 c 0
 47.3330078125 267 31.5 273.666992188 18.5 287 c 0
 5.5 300.333007812 -1 316.666015625 -1 335.999023438 c 0
 -1 355.33203125 5.5 371.665039062 18.5 384.998046875 c 0
 31.5 398.331054688 47.3330078125 404.998046875 66 404.998046875 c 0
 102 404.998046875 124.333007812 387.331054688 133 351.998046875 c 1
 483 351.998046875 l 1
 483 514.998046875 l 1
 516 514.998046875 l 1
 516 351.998046875 l 1
 866 351.998046875 l 1
 874 387.331054688 896 404.998046875 932 404.998046875 c 0
 950.666992188 404.998046875 966.666992188 398.331054688 980 384.998046875 c 0
 993.333007812 371.665039062 1000 355.33203125 1000 335.999023438 c 0
 1000 316.666015625 993.333007812 300.333007812 980 287 c 0
 966.666992188 273.666992188 950.666992188 267 932 267 c 0
 900 267 878.666992188 282.333007812 868 313 c 1
 516 314 l 1
 483 314 l 1
EndSplineSet
Validated: 524289
EndChar

StartChar: Agrave
Encoding: 192 192 125
Width: 1000
GlyphClass: 1
Flags: MW
HStem: 69.001 28.999
VStem: 274 37<253.001 255.001 255.001 614.001> 697 36<264 614.001>
LayerCount: 2
Fore
SplineSet
697 264 m 2
 697 614.000976562 l 1
 644 614.000976562 l 1
 717 734.000976562 l 1
 789 614.000976562 l 1
 733 614.000976562 l 1
 733 253.000976562 l 2
 733 223.66796875 727.666992188 198.000976562 717 176.000976562 c 0
 706.333007812 154.000976562 693.333007812 136.000976562 678 122.000976562 c 0
 662.666992188 107.333984375 637 94.833984375 601 84.5009765625 c 0
 565 74.16796875 529.333007812 69.0009765625 494 69.0009765625 c 0
 458.666992188 69.0009765625 426 74.16796875 396 84.5009765625 c 0
 366 94.833984375 343 107.000976562 327 121.000976562 c 0
 291.666992188 152.333984375 274 196.333984375 274 253.000976562 c 2
 274 614.000976562 l 1
 219 614.000976562 l 1
 292 734.000976562 l 1
 365 614.000976562 l 1
 311 614.000976562 l 1
 311 255.000976562 l 2
 311 232.333984375 312 215.666992188 314 205 c 0
 316.666992188 193.666992188 320.666992188 184 326 176 c 0
 342.666992188 151.333007812 363.666992188 132 389 118 c 0
 413 104.666992188 449.333007812 98 498 98 c 2
 505 98 l 2
 555 98 591.666992188 105 615 119 c 0
 637 131.666992188 653.666992188 144 665 156 c 0
 686.333007812 178.666992188 697 214.666992188 697 264 c 2
EndSplineSet
Validated: 524289
EndChar

StartChar: Aacute
Encoding: 193 193 126
Width: 1000
GlyphClass: 1
Flags: MW
HStem: 325 22<24 82 135 227 280 381 434 452 452 523 523 538 538 560 590 705 705 725.667 767 971 24 82> 461 20G<298 313 313 313 443 458 458 458 597 612 612 612 754 768 768 768 916.999 936.999 936.999 936.999>
VStem: 298 15<481 481> 443 15<481 481> 597 15<481 481> 754 14<481 481>
LayerCount: 2
Fore
SplineSet
452 347 m 1
 523 347 l 2
 528.333007812 346.333007812 533.333007812 346.333007812 538 347 c 0
 582 347 627 363.666992188 673 397 c 1
 717.666992188 423 744.666992188 451 754 481 c 1
 768 481 l 1
 764 455 744.166992188 429.166992188 708.5 403.5 c 0
 672.833007812 377.833007812 633.333007812 359 590 347 c 1
 705 347 l 2
 746.333007812 347 786.666015625 361.333007812 825.999023438 390 c 1
 872.666015625 416 902.999023438 446.333007812 916.999023438 481 c 1
 936.999023438 481 l 1
 933.666015625 471.666992188 930.999023438 465.666992188 928.999023438 463 c 0
 926.999023438 460.333007812 925.666015625 458.166015625 924.999023438 456.499023438 c 0
 924.33203125 454.83203125 922.83203125 452.665039062 920.499023438 449.998046875 c 0
 918.166015625 447.331054688 915.333007812 443.6640625 912 438.997070312 c 0
 898 418.997070312 871.666992188 398.330078125 833 376.997070312 c 0
 827 373.6640625 820.166992188 369.831054688 812.5 365.498046875 c 0
 804.833007812 361.165039062 796 357.33203125 786 353.999023438 c 0
 776 350.666015625 769.666992188 348.333007812 767 347 c 1
 971 347 l 1
 971 325 l 1
 24 325 l 1
 24 347 l 1
 82 347 l 1
 127.333007812 354.333007812 172.5 371 217.5 397 c 0
 262.5 423 289.333007812 451 298 481 c 1
 313 481 l 1
 309 455 289 429.166992188 253 403.5 c 0
 217 377.833007812 177.666992188 359 135 347 c 1
 227 347 l 1
 272.333007812 354.333007812 317.5 371 362.5 397 c 0
 407.5 423 434.333007812 451 443 481 c 1
 458 481 l 1
 454 455 434 429.166992188 398 403.5 c 0
 362 377.833007812 322.666992188 359 280 347 c 1
 381 347 l 1
 426.333007812 354.333007812 471.5 371 516.5 397 c 0
 561.5 423 588.333007812 451 597 481 c 1
 612 481 l 1
 608 455 588.166992188 429.166992188 552.5 403.5 c 0
 516.833007812 377.833007812 477.333007812 359 434 347 c 1
 452 347 l 1
EndSplineSet
Validated: 524289
EndChar

StartChar: Acircumflex
Encoding: 194 194 127
Width: 1000
GlyphClass: 1
Flags: MW
HStem: 621 20G<500 500>
VStem: 479 42<219 219>
LayerCount: 2
Fore
SplineSet
479 219 m 1
 480 527 l 1
 431 527 l 1
 500 641 l 1
 568 527 l 1
 520 527 l 1
 521 219 l 1
 479 219 l 1
EndSplineSet
Validated: 1
EndChar

StartChar: Atilde
Encoding: 195 195 128
Width: 1000
GlyphClass: 1
Flags: MW
HStem: 680 20G<479 521 521 521>
VStem: 479 42<105 105>
LayerCount: 2
Fore
SplineSet
479 105 m 1
 480 291 l 1
 431 291 l 1
 499 403 l 1
 431 515 l 1
 479 515 l 1
 479 700 l 1
 521 700 l 1
 519 515 l 1
 568 515 l 1
 501 403 l 1
 568 291 l 1
 520 291 l 1
 521 105 l 1
 479 105 l 1
EndSplineSet
Validated: 1
EndChar

StartChar: Adieresis
Encoding: 196 196 129
Width: 1000
GlyphClass: 1
Flags: MW
HStem: 642 20G<499 499>
VStem: 478 42<251 251>
LayerCount: 2
Fore
SplineSet
478 251 m 1
 479 548 l 1
 430 548 l 1
 499 662 l 1
 567 548 l 1
 519 548 l 1
 520 251 l 1
 567 251 l 1
 499 138 l 1
 430 251 l 1
 478 251 l 1
EndSplineSet
Validated: 1
EndChar

StartChar: Aring
Encoding: 197 197 130
Width: 1000
GlyphClass: 1
Flags: MW
HStem: 509 21G<430 430 567 567> 616 20G<499 499>
VStem: 478 42<214 214>
LayerCount: 2
Fore
SplineSet
478 214 m 1
 479 541 l 1
 430 509 l 1
 499 636 l 1
 567 509 l 1
 519 541 l 1
 520 214 l 1
 478 214 l 1
EndSplineSet
Validated: 1
EndChar

StartChar: AE
Encoding: 198 198 131
Width: 1000
GlyphClass: 1
Flags: MW
HStem: 511 21G<430 430 567 567> 618 20G<499 499>
VStem: 478 42<216 216>
LayerCount: 2
Fore
SplineSet
478 216 m 1
 479 543 l 1
 430 511 l 1
 499 638 l 1
 567 511 l 1
 519 543 l 1
 520 216 l 1
 478 216 l 1
EndSplineSet
Validated: 1
EndChar

StartChar: Ccedilla
Encoding: 199 199 132
Width: 1000
GlyphClass: 1
Flags: MW
HStem: 525 21G<431 431 568 568> 632 20G<500 500>
VStem: 479 42<235 235>
LayerCount: 2
Fore
SplineSet
521 235 m 1
 568 267 l 1
 500 140 l 1
 431 267 l 1
 479 235 l 1
 480 557 l 1
 431 525 l 1
 500 652 l 1
 568 525 l 1
 520 557 l 1
 521 235 l 1
EndSplineSet
Validated: 1
EndChar

StartChar: Egrave
Encoding: 200 200 133
Width: 1000
GlyphClass: 1
Flags: MW
HStem: 297 218<368 499 499 499 499 629>
VStem: 368 261<297 297>
LayerCount: 2
Fore
SplineSet
368 297 m 1
 499 515 l 1
 629 297 l 1
 368 297 l 1
EndSplineSet
Validated: 1
EndChar

StartChar: Eacute
Encoding: 201 201 134
Width: 1000
GlyphClass: 1
Flags: MW
HStem: 64 32<497 509 509 515.667> 683.999 20G
VStem: 278 37<266 267 267 342 461 704> 701 36<278 341 341 341 460.999 703.999>
LayerCount: 2
Fore
SplineSet
634 461 m 1
 701 460.999023438 l 1
 701 703.999023438 l 1
 737 703.999023438 l 1
 737 460.999023438 l 1
 801 460.999023438 l 1
 737 344.999023438 l 1
 737 265.999023438 l 2
 737 233.999023438 731.666992188 205.83203125 721 181.499023438 c 0
 710.333007812 157.166015625 697.333007812 137.333007812 682 122 c 0
 666.666992188 106 641 92.3330078125 605 81 c 0
 569 69.6669921875 533.333007812 64 498 64 c 0
 462.666992188 64 430 69.5 400 80.5 c 0
 370 91.5 347 105 331 121 c 0
 295.666992188 155.666992188 278 204 278 266 c 2
 278 345 l 1
 214 461 l 1
 278 461 l 1
 278 704 l 1
 315 704 l 1
 315 461 l 1
 381 461 l 1
 315 342 l 1
 315 267 l 2
 315 242.333007812 316 224.333007812 318 213 c 0
 320.666992188 200.333007812 324.666992188 189.666015625 330 180.999023438 c 0
 346.666992188 153.666015625 367.666992188 132.333007812 393 117 c 0
 416.333007812 103 451 96 497 96 c 2
 509 96 l 2
 558.333007812 96 595 103.666992188 619 119 c 0
 641 133 657.666992188 146.333007812 669 159 c 0
 690.333007812 184.333007812 701 224 701 278 c 2
 701 341 l 1
 634 461 l 1
EndSplineSet
Validated: 524289
EndChar

StartChar: Ecircumflex
Encoding: 202 202 135
Width: 1000
GlyphClass: 1
Flags: MW
HStem: 288 36<66 859> 467 20G<692 692>
LayerCount: 2
Fore
SplineSet
935 314 m 1
 935 290 l 1
 66 288 l 1
 66 324 l 1
 859 324 l 1
 679 450 l 1
 692 487 l 1
 935 314 l 1
EndSplineSet
Validated: 1
EndChar

StartChar: Edieresis
Encoding: 203 203 136
Width: 1000
GlyphClass: 1
Flags: MW
HStem: 455 35<64 857 64 64>
LayerCount: 2
Fore
SplineSet
933 465 m 1
 690 291 l 1
 677 329 l 1
 857 455 l 1
 64 455 l 1
 64 490 l 1
 933 489 l 1
 933 465 l 1
EndSplineSet
Validated: 1
EndChar

StartChar: Igrave
Encoding: 204 204 137
Width: 1000
GlyphClass: 1
Flags: MW
HStem: 265 25<45 737> 514 24<45 45 45 737 18 760> 652 20G<737 737>
VStem: 18 27<290 514 290 538 290 538> 737 23<180 265 265 265 538 624>
LayerCount: 2
Fore
SplineSet
18 538 m 1
 737 538 l 1
 737 672 l 1
 983 402 l 1
 737 132 l 1
 737 265 l 1
 18 265 l 1
 18 538 l 1
45 514 m 1
 45 290 l 1
 760 290 l 1
 760 180 l 1
 948 402 l 1
 760 624 l 1
 760 514 l 1
 45 514 l 1
EndSplineSet
Validated: 1
EndChar

StartChar: Iacute
Encoding: 205 205 138
Width: 1000
GlyphClass: 1
Flags: MW
HStem: 290 37<18 485 518 983 18 485> 490 20G<485 517 517 517>
VStem: 485 33<327 510>
LayerCount: 2
Fore
SplineSet
18 327 m 1
 485 327 l 1
 485 510 l 1
 517 510 l 1
 518 327 l 1
 983 327 l 1
 983 290 l 1
 18 290 l 1
 18 327 l 1
EndSplineSet
Validated: 1
EndChar

StartChar: Icircumflex
Encoding: 206 206 139
Width: 1000
GlyphClass: 1
Flags: MW
HStem: 347 31<141 154.998 140.998 155 261 274.998 380 393.999 500 513.999 619 632.999 739 753 858 872> 430 31<88.998 95.998 88.998 96 201 214.998 321 334.999 440 453.999 559 572.999 679 692.999 798 812 918 929.333>
VStem: 895 54
LayerCount: 2
Fore
SplineSet
54 424 m 1
 54.998046875 428 l 1
 65.6650390625 449.333007812 76.998046875 460.333007812 88.998046875 461 c 0
 102.998046875 461 112.831054688 447.166992188 118.498046875 419.5 c 0
 124.165039062 391.833007812 133.998046875 378 147.998046875 378 c 0
 161.998046875 378 171.998046875 391.833007812 177.998046875 419.5 c 0
 183.998046875 447.166992188 193.998046875 461 207.998046875 461 c 0
 221.998046875 461 231.998046875 447.166992188 237.998046875 419.5 c 0
 243.998046875 391.833007812 253.998046875 378 267.998046875 378 c 0
 281.998046875 378 291.831054688 391.833007812 297.498046875 419.5 c 0
 303.165039062 447.166992188 313.33203125 461 327.999023438 461 c 0
 341.999023438 461 351.83203125 447.166992188 357.499023438 419.5 c 0
 363.166015625 391.833007812 372.999023438 378 386.999023438 378 c 0
 400.999023438 378 410.999023438 391.833007812 416.999023438 419.5 c 0
 422.999023438 447.166992188 432.999023438 461 446.999023438 461 c 0
 460.999023438 461 470.999023438 447.166992188 476.999023438 419.5 c 0
 482.999023438 391.833007812 492.999023438 378 506.999023438 378 c 0
 520.999023438 378 530.83203125 391.833007812 536.499023438 419.5 c 0
 542.166015625 447.166992188 551.999023438 461 565.999023438 461 c 0
 579.999023438 461 589.999023438 447.166992188 595.999023438 419.5 c 0
 601.999023438 391.833007812 611.999023438 378 625.999023438 378 c 0
 639.999023438 378 649.999023438 391.833007812 655.999023438 419.5 c 0
 661.999023438 447.166992188 671.999023438 461 685.999023438 461 c 0
 699.999023438 461 709.83203125 447.166992188 715.499023438 419.5 c 0
 721.166015625 391.833007812 731.333007812 378 746 378 c 0
 760 378 769.833007812 391.833007812 775.5 419.5 c 0
 781.166992188 447.166992188 791 461 805 461 c 0
 819 461 829 447.166992188 835 419.5 c 0
 841 391.833007812 851 378 865 378 c 0
 879 378 889 391.833007812 895 419.5 c 0
 901 447.166992188 911 461 925 461 c 0
 933.666992188 461 941.666992188 452 949 434 c 1
 949 403 l 1
 941.666992188 421 933.666992188 430 925 430 c 0
 911 430 901 416.166992188 895 388.5 c 0
 889 360.833007812 879 347 865 347 c 0
 851 347 841 360.833007812 835 388.5 c 0
 829 416.166992188 819 430 805 430 c 0
 791 430 781.166992188 416.166992188 775.5 388.5 c 0
 769.833007812 360.833007812 760 347 746 347 c 0
 732 347 722 360.833007812 716 388.5 c 0
 710 416.166992188 700 430 686 430 c 0
 672 430 662 416.166992188 656 388.5 c 0
 650 360.833007812 640 347 626 347 c 0
 612 347 602 360.833007812 596 388.5 c 0
 590 416.166992188 580 430 566 430 c 0
 552 430 542.166992188 416.166992188 536.5 388.5 c 0
 530.833007812 360.833007812 521 347 507 347 c 0
 493 347 483 360.833007812 477 388.5 c 0
 471 416.166992188 461 430 447 430 c 0
 433 430 423 416.166992188 417 388.5 c 0
 411 360.833007812 401 347 387 347 c 0
 373 347 363.166992188 360.833007812 357.5 388.5 c 0
 351.833007812 416.166992188 342 430 328 430 c 0
 314 430 304 416.166992188 298 388.5 c 0
 292 360.833007812 282 347 268 347 c 0
 254 347 244 360.833007812 238 388.5 c 0
 232 416.166992188 222 430 208 430 c 0
 194 430 184 416.166992188 178 388.5 c 0
 172 360.833007812 162 347 148 347 c 0
 134 347 124.166992188 360.833007812 118.5 388.5 c 0
 112.833007812 416.166992188 103 430 89 430 c 0
 77.6669921875 430 66 419.333007812 54 398 c 1
 54 424 l 1
EndSplineSet
Validated: 524289
EndChar

StartChar: Idieresis
Encoding: 207 207 140
Width: 1000
GlyphClass: 1
Flags: MW
HStem: 98 55<499 502 502 506 506 510> 542 21G<701 701 701 770> 647 57<483 502 502 507>
VStem: 206 61<368.333 424.333>
LayerCount: 2
Fore
SplineSet
701 542 m 1
 675.666992188 577.333007812 646.333007812 604 613 622 c 0
 582.333007812 638.666992188 547 647 507 647 c 2
 502 647 l 2
 437.333007812 647 382 623 336 575 c 0
 290 527 267 470 267 404 c 0
 267 332.666992188 289.666992188 273 335 225 c 0
 380.333007812 177 435 153 499 153 c 2
 502 153 l 2
 542 153 578.666992188 161.333007812 612 178 c 0
 644.666992188 194.666992188 673 219.666992188 697 253 c 1
 765 253 l 1
 739 204.333007812 703 166 657 138 c 0
 613.666992188 111.333007812 564.666992188 98 510 98 c 2
 506 98 l 2
 420 98 348.666992188 127 292 185 c 0
 234.666992188 243.666992188 206 316.666992188 206 404 c 0
 206 444.666992188 213.666992188 483.666992188 229 521 c 0
 244.333007812 557.666992188 267 590.666992188 297 620 c 0
 325 648 356.333007812 669 391 683 c 0
 425.666992188 697 463 704 503 704 c 0
 561 704 613 690 659 662 c 0
 705.666992188 634 742.666992188 594 770 542 c 1
 701 542 l 1
EndSplineSet
Validated: 524289
EndChar

StartChar: Eth
Encoding: 208 208 141
Width: 1000
GlyphClass: 1
Flags: MW
HStem: 652 20G<208 308 308 308 696 783 783 783>
VStem: 208 50<136 672> 208 57<598 598 598 672> 727 56<136 584 584 584>
LayerCount: 2
Fore
SplineSet
783 136 m 1xd0
 727 136 l 1
 727 584 l 1
 531 136 l 1
 460 136 l 1
 265 598 l 1xb0
 258 136 l 1xd0
 208 136 l 1xb0
 208 672 l 1
 308 672 l 1
 499 200 l 1
 500 200 l 1
 696 672 l 1
 783 672 l 1
 783 136 l 1xd0
EndSplineSet
Validated: 1
EndChar

StartChar: Ntilde
Encoding: 209 209 142
Width: 1000
GlyphClass: 1
Flags: MW
HStem: 671 20G<377 377 620 620>
VStem: 133 243<258 548 258 549 258 549> 621 244<258 548 548 548>
LayerCount: 2
Fore
SplineSet
377 691 m 1
 499 621 l 1
 620 691 l 1
 865 549 l 1
 865 258 l 1
 620 115 l 1
 499 186 l 1
 377 115 l 1
 133 258 l 1
 133 549 l 1
 377 691 l 1
499 188 m 1
 621 258 l 1
 621 548 l 1
 499 620 l 1
 376 548 l 1
 376 258 l 1
 499 188 l 1
EndSplineSet
Validated: 1
EndChar

StartChar: Ograve
Encoding: 210 210 143
Width: 1000
GlyphClass: 1
Flags: MW
LayerCount: 2
Fore
SplineSet
809 402 m 1
 809 487 l 1
 861 487 l 1
 894 422 l 1
 928 487 l 1
 980 487 l 1
 980 402 l 1
 947 402 l 1
 947 471 l 1
 913 402 l 1
 877 402 l 1
 842 471 l 1
 842 402 l 1
 809 402 l 1
746 402 m 2
 745.333007812 402.666992188 744.001953125 406.000976562 742.001953125 412.000976562 c 2
 742.001953125 421.000976562 l 2
 741.334960938 426.333984375 739.334960938 430.000976562 736.001953125 432.000976562 c 0
 732.001953125 434.000976562 725.668945312 435.000976562 717.001953125 435.000976562 c 2
 679.001953125 435.000976562 l 1
 679.001953125 402.000976562 l 1
 644.001953125 402.000976562 l 1
 644.001953125 487.000976562 l 1
 727.001953125 487.000976562 l 2
 762.334960938 487.000976562 780.66796875 479.000976562 782.000976562 463.000976562 c 0
 782.000976562 452.333984375 773.333984375 445.666992188 756.000976562 443 c 1
 763.333984375 441.666992188 768.666992188 439.666992188 772 437 c 0
 775.333007812 434.333007812 777.333007812 430 778 424 c 2
 778 413 l 2
 778 407.666992188 780.333007812 404.666992188 785 404 c 1
 785 402 l 1
 746 402 l 2
747.001953125 461.000976562 m 0
 747.001953125 469.000976562 738.668945312 473.000976562 722.001953125 473.000976562 c 2
 679.001953125 473.000976562 l 1
 679.001953125 450.000976562 l 1
 721.001953125 450.000976562 l 2
 737.001953125 450.000976562 745.668945312 453.66796875 747.001953125 461.000976562 c 0
621.001953125 460.000976562 m 0
 621.001953125 441.333984375 603.668945312 432.000976562 569.001953125 432.000976562 c 2
 526.001953125 432.000976562 l 1
 526.001953125 402.000976562 l 1
 491.001953125 402.000976562 l 1
 491.001953125 487.000976562 l 1
 567.001953125 487.000976562 l 2
 603.001953125 487.000976562 621.001953125 478.000976562 621.001953125 460.000976562 c 0
587.001953125 460.000976562 m 0
 587.001953125 467.333984375 578.668945312 471.66796875 562.001953125 473.000976562 c 2
 527.001953125 473.000976562 l 1
 527.001953125 448.000976562 l 1
 560.001953125 448.000976562 l 2
 576.668945312 448.000976562 585.668945312 452.000976562 587.001953125 460.000976562 c 0
463.001953125 431.001953125 m 1
 460.334960938 409.668945312 434.669921875 399.001953125 386.002929688 399.001953125 c 0
 362.002929688 399.001953125 343.002929688 403.001953125 329.002929688 411.001953125 c 0
 315.002929688 419.001953125 308.002929688 430.001953125 308.002929688 444.001953125 c 0
 308.002929688 474.668945312 335.669921875 490.001953125 391.002929688 490.001953125 c 0
 436.3359375 490.001953125 460.3359375 479.668945312 463.002929688 459.001953125 c 1
 429.002929688 459.001953125 l 1
 426.3359375 469.001953125 413.668945312 474.001953125 391.001953125 474.001953125 c 0
 359.668945312 474.001953125 344.001953125 464.168945312 344.001953125 444.501953125 c 0
 344.001953125 424.834960938 361.334960938 415.001953125 396.001953125 415.001953125 c 0
 414.001953125 415.001953125 425.001953125 420.334960938 429.001953125 431.001953125 c 1
 463.001953125 431.001953125 l 1
981.00390625 315.001953125 m 1
 968.00390625 315.001953125 l 1
 968.00390625 361.001953125 l 1
 981.00390625 361.001953125 l 1
 981.00390625 315.001953125 l 1
945.00390625 315.001953125 m 1
 945.00390625 350.001953125 l 1
 958.00390625 350.001953125 l 1
 958.00390625 315.001953125 l 1
 945.00390625 315.001953125 l 1
945.00390625 353.001953125 m 1
 945.00390625 362.001953125 l 1
 958.00390625 362.001953125 l 1
 958.00390625 353.001953125 l 1
 945.00390625 353.001953125 l 1
939.00390625 325.001953125 m 0
 939.00390625 317.668945312 933.3359375 314.000976562 922.002929688 314.000976562 c 0
 910.669921875 314.000976562 905.002929688 317.66796875 905.002929688 325.000976562 c 2
 905.002929688 326.000976562 l 1
 917.002929688 326.000976562 l 1
 917.002929688 323.333984375 918.669921875 321.333984375 922.002929688 320.000976562 c 0
 925.3359375 318.66796875 927.002929688 320.000976562 927.002929688 324.000976562 c 0
 927.002929688 326.000976562 926.669921875 327.000976562 926.002929688 327.000976562 c 0
 922.669921875 327.000976562 918.336914062 328.333984375 913.00390625 331.000976562 c 0
 907.670898438 333.66796875 905.00390625 336.66796875 905.00390625 340.000976562 c 0
 905.00390625 347.333984375 910.50390625 351.000976562 921.50390625 351.000976562 c 0
 932.50390625 351.000976562 938.00390625 347.333984375 938.00390625 340.000976562 c 2
 938.00390625 339.000976562 l 1
 926.00390625 340.000976562 l 2
 926.00390625 342.66796875 925.00390625 344.000976562 923.00390625 344.000976562 c 2
 919.00390625 344.000976562 l 2
 918.336914062 343.333984375 918.00390625 342.333984375 918.00390625 341.000976562 c 0
 918.00390625 339.66796875 920.336914062 338.334960938 925.00390625 337.001953125 c 0
 929.670898438 335.668945312 932.170898438 334.8359375 932.50390625 334.502929688 c 0
 932.836914062 334.169921875 934.00390625 333.169921875 936.00390625 331.502929688 c 0
 938.00390625 329.8359375 939.00390625 327.668945312 939.00390625 325.001953125 c 0
881.002929688 351.000976562 m 2
 894.00390625 348.998046875 l 2
 897.336914062 346.998046875 899.00390625 343.331054688 899.00390625 337.998046875 c 2
 899.00390625 317.998046875 l 2
 899.00390625 316.665039062 899.670898438 315.665039062 901.00390625 314.998046875 c 1
 887.00390625 314.998046875 l 1
 886.00390625 317.998046875 l 1
 882.00390625 315.331054688 877.336914062 313.998046875 872.00390625 313.998046875 c 0
 866.670898438 313.998046875 863.50390625 316.331054688 862.50390625 320.998046875 c 0
 861.50390625 325.665039062 862.00390625 328.83203125 864.00390625 330.499023438 c 0
 866.00390625 332.166015625 869.50390625 333.833007812 874.50390625 335.5 c 0
 879.50390625 337.166992188 880.670898438 337.333984375 878.00390625 336.000976562 c 1
 883.336914062 337.333984375 885.669921875 339.000976562 885.002929688 341.000976562 c 0
 885.002929688 343.000976562 883.502929688 344.000976562 880.502929688 344.000976562 c 0
 877.502929688 344.000976562 876.002929688 342.333984375 876.002929688 339.000976562 c 1
 863.002929688 339.000976562 l 1
 863.002929688 347.000976562 869.002929688 351.000976562 881.002929688 351.000976562 c 2
885.00390625 331.998046875 m 1
 878.336914062 330.665039062 875.00390625 328.498046875 875.00390625 325.498046875 c 0
 875.00390625 322.498046875 876.670898438 320.998046875 880.00390625 320.998046875 c 0
 883.336914062 320.998046875 885.00390625 323.331054688 885.00390625 327.998046875 c 2
 885.00390625 331.998046875 l 1
857.00390625 338.998046875 m 1
 853.00390625 339.998046875 l 2
 849.00390625 339.998046875 847.00390625 337.331054688 847.00390625 331.998046875 c 2
 847.00390625 314.998046875 l 1
 834.00390625 314.998046875 l 1
 834.00390625 349.998046875 l 1
 846.00390625 349.998046875 l 1
 846.00390625 344.998046875 l 1
 847.336914062 346.998046875 851.00390625 348.998046875 857.00390625 350.998046875 c 1
 857.00390625 338.998046875 l 1
817.00390625 339.998046875 m 1
 823.00390625 337.331054688 826.00390625 333.166015625 826.00390625 327.499023438 c 0
 826.00390625 321.83203125 823.336914062 318.165039062 818.00390625 316.498046875 c 0
 812.670898438 314.831054688 807.670898438 314.331054688 803.00390625 314.998046875 c 2
 785.00390625 314.998046875 l 1
 785.00390625 360.998046875 l 1
 807.00390625 360.998046875 l 2
 818.336914062 360.998046875 824.00390625 357.331054688 824.00390625 349.998046875 c 0
 824.00390625 345.998046875 821.670898438 342.665039062 817.00390625 339.998046875 c 1
811.00390625 329 m 0
 811.00390625 333 807.670898438 335 801.00390625 335 c 2
 800.00390625 335 l 1
 800.00390625 323 l 1
 801.00390625 323 l 2
 807.670898438 323 811.00390625 325 811.00390625 329 c 0
800.00390625 354 m 1
 800.00390625 343 l 1
 801.00390625 343 l 2
 807.00390625 343 810.00390625 344.666992188 810.00390625 348 c 0
 810.00390625 352 806.670898438 354 800.00390625 354 c 1
718.00390625 332 m 0
 718.00390625 344.666992188 724.004882812 351 736.004882812 351 c 0
 742.671875 351 747.338867188 349.666992188 750.005859375 347 c 0
 752.672851562 344.333007812 754.005859375 339.333007812 754.005859375 332 c 0
 754.005859375 325.333007812 752.672851562 320.666015625 750.005859375 317.999023438 c 0
 747.338867188 315.33203125 742.671875 313.999023438 736.004882812 313.999023438 c 0
 729.337890625 313.999023438 724.670898438 315.33203125 722.00390625 317.999023438 c 0
 719.336914062 320.666015625 718.00390625 325.333007812 718.00390625 332 c 0
736.004882812 321 m 0
 738.671875 321 740.004882812 323.999023438 740.004882812 329.999023438 c 0
 740.004882812 335.999023438 739.671875 339.999023438 739.004882812 341.999023438 c 0
 738.337890625 343.33203125 737.004882812 343.83203125 735.004882812 343.499023438 c 0
 733.004882812 343.166015625 732.004882812 339.333007812 732.004882812 332 c 0
 732.004882812 324.666992188 733.337890625 321 736.004882812 321 c 0
675.004882812 330.999023438 m 0
 675.004882812 344.33203125 679.004882812 350.999023438 687.004882812 350.999023438 c 0
 691.004882812 350.999023438 694.337890625 349.666015625 697.004882812 346.999023438 c 1
 697.004882812 360.999023438 l 1
 710.004882812 360.999023438 l 1
 710.004882812 314.999023438 l 1
 698.004882812 314.999023438 l 1
 698.004882812 317.999023438 l 1
 695.337890625 315.33203125 692.337890625 313.999023438 689.004882812 313.999023438 c 2
 682.004882812 313.999023438 l 2
 678.004882812 315.999023438 675.837890625 318.166015625 675.504882812 320.499023438 c 0
 675.171875 322.83203125 675.004882812 326.33203125 675.004882812 330.999023438 c 0
697.004882812 333.999023438 m 0
 697.004882812 339.33203125 695.504882812 342.000976562 692.504882812 342.000976562 c 0
 689.504882812 342.000976562 688.004882812 339.16796875 688.004882812 333.500976562 c 0
 688.004882812 327.833984375 688.337890625 324.333984375 689.004882812 323.000976562 c 0
 689.671875 321.66796875 691.004882812 321.16796875 693.004882812 321.500976562 c 0
 695.004882812 321.833984375 696.004882812 322.666992188 696.004882812 324 c 0
 696.671875 325.333007812 697.004882812 328.666015625 697.004882812 333.999023438 c 0
610.004882812 332.000976562 m 0
 610.004882812 338.66796875 611.004882812 343.666992188 613.004882812 347 c 0
 615.671875 349.666992188 620.338867188 351 627.005859375 351 c 0
 633.672851562 351 638.33984375 349.666992188 641.006835938 347 c 0
 643.673828125 344.333007812 645.006835938 339.5 645.006835938 332.5 c 0
 645.006835938 325.5 643.673828125 320.666992188 641.006835938 318 c 0
 638.33984375 315.333007812 633.672851562 314 627.005859375 314 c 0
 620.338867188 314 615.671875 315.333007812 613.004882812 318 c 0
 611.004882812 320.666992188 610.004882812 325.333984375 610.004882812 332.000976562 c 0
627.004882812 321 m 0
 630.337890625 321 632.005859375 324.168945312 632.005859375 330.501953125 c 0
 632.005859375 336.834960938 631.672851562 340.66796875 631.005859375 342.000976562 c 0
 630.338867188 343.333984375 628.671875 343.666992188 626.004882812 343 c 0
 624.004882812 343 623.004882812 339.333007812 623.004882812 332 c 0
 623.004882812 324.666992188 624.337890625 321 627.004882812 321 c 0
585.005859375 321.001953125 m 0
 587.672851562 321.001953125 589.005859375 323.000976562 589.005859375 327.000976562 c 2
 589.005859375 328.000976562 l 1
 603.005859375 328.000976562 l 1
 603.005859375 327.000976562 l 2
 603.005859375 318.333984375 598.338867188 314.000976562 589.005859375 314.000976562 c 0
 579.672851562 314.000976562 573.672851562 315.333984375 571.005859375 318.000976562 c 0
 568.338867188 320.66796875 567.005859375 325.334960938 567.005859375 332.001953125 c 0
 567.005859375 344.668945312 572.838867188 351.001953125 584.505859375 351.001953125 c 0
 596.172851562 351.001953125 602.005859375 346.334960938 602.005859375 337.001953125 c 1
 589.005859375 337.001953125 l 1
 589.005859375 342.001953125 l 2
 589.005859375 342.668945312 587.672851562 343.001953125 585.005859375 343.001953125 c 0
 583.005859375 343.001953125 581.838867188 342.501953125 581.505859375 341.501953125 c 0
 581.172851562 340.501953125 581.005859375 336.834960938 581.005859375 330.501953125 c 0
 581.005859375 324.168945312 582.338867188 321.001953125 585.005859375 321.001953125 c 0
546.005859375 315.000976562 m 1
 546.005859375 350.000976562 l 1
 560.005859375 350.000976562 l 1
 560.005859375 315.000976562 l 1
 546.005859375 315.000976562 l 1
546.005859375 353.000976562 m 1
 546.005859375 362.000976562 l 1
 560.005859375 362.000976562 l 1
 560.005859375 353.000976562 l 1
 546.005859375 353.000976562 l 1
513.005859375 351.000976562 m 0
 516.338867188 351.000976562 520.337890625 349.333984375 525.004882812 346.000976562 c 1
 525.004882812 350.000976562 l 1
 537.004882812 350.000976562 l 1
 537.004882812 318.000976562 l 2
 537.004882812 310.000976562 534.837890625 305.500976562 530.504882812 304.500976562 c 0
 526.171875 303.500976562 520.338867188 303.000976562 513.005859375 303.000976562 c 0
 505.672851562 303.000976562 502.005859375 306.333984375 502.005859375 313.000976562 c 1
 515.005859375 313.000976562 l 1
 515.005859375 310.333984375 516.505859375 309.000976562 519.505859375 309.000976562 c 0
 522.505859375 309.000976562 524.005859375 311.000976562 524.005859375 315.000976562 c 2
 524.005859375 319.000976562 l 1
 521.338867188 317.000976562 517.005859375 316.000976562 511.005859375 316.000976562 c 0
 505.005859375 316.000976562 502.005859375 318.66796875 502.005859375 324.000976562 c 2
 502.005859375 339.000976562 l 2
 502.005859375 347.000976562 505.672851562 351.000976562 513.005859375 351.000976562 c 0
523.004882812 341.000976562 m 0
 522.337890625 341.66796875 520.837890625 342.001953125 518.504882812 342.001953125 c 0
 516.171875 342.001953125 515.004882812 340.334960938 515.004882812 337.001953125 c 2
 515.004882812 334.001953125 l 2
 515.004882812 327.334960938 516.004882812 324.001953125 518.004882812 324.001953125 c 0
 520.004882812 324.001953125 521.671875 324.334960938 523.004882812 325.001953125 c 0
 523.671875 326.334960938 524.004882812 328.66796875 524.004882812 332.000976562 c 2
 524.004882812 334.000976562 l 2
 524.004882812 338.000976562 523.671875 340.333984375 523.004882812 341.000976562 c 0
471.004882812 354.001953125 m 1
 479.004882812 362.001953125 l 1
 491.004882812 362.001953125 l 1
 477.004882812 354.001953125 l 1
 471.004882812 354.001953125 l 1
459.004882812 332.001953125 m 0
 459.004882812 344.668945312 465.005859375 351.001953125 477.005859375 351.001953125 c 0
 483.672851562 351.001953125 488.33984375 349.668945312 491.006835938 347.001953125 c 0
 493.673828125 344.334960938 495.006835938 339.334960938 495.006835938 332.001953125 c 0
 495.006835938 325.334960938 493.673828125 320.66796875 491.006835938 318.000976562 c 0
 488.33984375 315.333984375 483.672851562 314.000976562 477.005859375 314.000976562 c 0
 470.338867188 314.000976562 465.671875 315.333984375 463.004882812 318.000976562 c 0
 460.337890625 320.66796875 459.004882812 325.334960938 459.004882812 332.001953125 c 0
481.005859375 342.001953125 m 0
 480.338867188 343.334960938 479.005859375 343.8359375 477.005859375 343.502929688 c 0
 475.005859375 343.169921875 473.838867188 342.502929688 473.505859375 341.502929688 c 0
 473.172851562 340.502929688 473.005859375 336.8359375 473.005859375 330.502929688 c 0
 473.005859375 324.169921875 474.505859375 321.002929688 477.505859375 321.002929688 c 0
 480.505859375 321.002929688 482.005859375 324.169921875 482.005859375 330.502929688 c 0
 482.005859375 336.8359375 481.672851562 340.668945312 481.005859375 342.001953125 c 0
452.005859375 315.002929688 m 1
 438.005859375 315.002929688 l 1
 438.005859375 361.002929688 l 1
 452.005859375 361.002929688 l 1
 452.005859375 315.002929688 l 1
395.005859375 332.002929688 m 0
 395.005859375 344.669921875 401.006835938 351.001953125 413.006835938 351.001953125 c 0
 419.673828125 351.001953125 424.173828125 349.668945312 426.506835938 347.001953125 c 0
 428.83984375 344.334960938 430.006835938 339.334960938 430.006835938 332.001953125 c 0
 430.006835938 320.001953125 424.33984375 314.001953125 413.006835938 314.001953125 c 0
 406.33984375 314.001953125 401.672851562 315.334960938 399.005859375 318.001953125 c 0
 396.338867188 320.668945312 395.005859375 325.3359375 395.005859375 332.002929688 c 0
413.006835938 343.001953125 m 0
 409.673828125 343.001953125 408.006835938 339.336914062 408.006835938 332.00390625 c 0
 408.006835938 324.670898438 409.673828125 321.00390625 413.006835938 321.00390625 c 0
 415.673828125 321.00390625 417.006835938 324.170898438 417.006835938 330.50390625 c 0
 417.006835938 336.836914062 416.673828125 340.669921875 416.006835938 342.002929688 c 0
 415.33984375 343.3359375 414.33984375 343.668945312 413.006835938 343.001953125 c 0
366.006835938 339.00390625 m 2
 366.006835938 337.002929688 l 1
 375.006835938 337.002929688 l 1
 375.006835938 337.669921875 375.33984375 338.336914062 376.006835938 339.00390625 c 0
 376.006835938 342.336914062 374.33984375 344.00390625 371.006835938 344.00390625 c 0
 367.673828125 344.00390625 366.006835938 342.336914062 366.006835938 339.00390625 c 2
366.006835938 327.002929688 m 2
 366.006835938 323.002929688 367.506835938 321.002929688 370.506835938 321.002929688 c 0
 373.506835938 321.002929688 375.006835938 322.3359375 375.006835938 325.002929688 c 2
 375.006835938 327.002929688 l 1
 388.006835938 327.002929688 l 1
 388.006835938 326.002929688 l 2
 388.006835938 318.002929688 382.006835938 314.002929688 370.006835938 314.002929688 c 0
 358.006835938 314.002929688 352.006835938 320.169921875 352.006835938 332.502929688 c 0
 352.006835938 344.8359375 358.33984375 351.002929688 371.006835938 351.002929688 c 0
 381.673828125 351.002929688 387.006835938 348.3359375 387.006835938 343.002929688 c 0
 387.673828125 341.669921875 388.006835938 339.002929688 388.006835938 335.002929688 c 2
 388.006835938 331.002929688 l 1
 366.006835938 331.002929688 l 1
 366.006835938 327.002929688 l 2
330.006835938 330.002929688 m 2
 330.0078125 332.002929688 l 1
 324.0078125 332.002929688 l 1
 324.0078125 340.002929688 l 1
 345.0078125 340.002929688 l 1
 345.0078125 315.002929688 l 1
 334.0078125 315.002929688 l 1
 334.0078125 318.002929688 l 1
 331.340820312 315.3359375 326.673828125 314.002929688 320.006835938 314.002929688 c 0
 312.673828125 314.002929688 308.173828125 316.502929688 306.506835938 321.502929688 c 0
 304.83984375 326.502929688 304.006835938 332.3359375 304.006835938 339.002929688 c 0
 304.006835938 355.002929688 310.673828125 363.002929688 324.006835938 363.002929688 c 0
 337.33984375 363.002929688 344.006835938 358.002929688 344.006835938 348.002929688 c 2
 344.006835938 346.002929688 l 1
 330.006835938 346.002929688 l 1
 330.006835938 351.3359375 328.673828125 354.002929688 326.006835938 354.002929688 c 0
 321.33984375 354.002929688 319.006835938 350.002929688 319.006835938 342.002929688 c 2
 319.006835938 334.002929688 l 2
 319.006835938 326.002929688 320.673828125 322.002929688 324.006835938 322.002929688 c 0
 328.006835938 322.002929688 330.006835938 324.669921875 330.006835938 330.002929688 c 2
238.0078125 332.002929688 m 0
 238.0078125 344.669921875 244.008789062 351.001953125 256.008789062 351.001953125 c 0
 262.67578125 351.001953125 267.342773438 349.668945312 270.009765625 347.001953125 c 0
 272.676757812 344.334960938 274.009765625 339.501953125 274.009765625 332.501953125 c 0
 274.009765625 325.501953125 272.676757812 320.668945312 270.009765625 318.001953125 c 0
 267.342773438 315.334960938 262.67578125 314.001953125 256.008789062 314.001953125 c 0
 249.341796875 314.001953125 244.674804688 315.334960938 242.0078125 318.001953125 c 0
 239.340820312 320.668945312 238.0078125 325.3359375 238.0078125 332.002929688 c 0
256.008789062 321.001953125 m 0
 260.008789062 321.001953125 261.67578125 324.170898438 261.008789062 330.50390625 c 0
 260.341796875 336.836914062 260.008789062 340.669921875 260.008789062 342.002929688 c 0
 259.341796875 343.3359375 258.008789062 343.668945312 256.008789062 343.001953125 c 0
 253.341796875 343.001953125 252.008789062 339.334960938 252.008789062 332.001953125 c 0
 252.008789062 324.668945312 253.341796875 321.001953125 256.008789062 321.001953125 c 0
224.008789062 306.00390625 m 0
 224.008789062 302.00390625 222.0078125 300.002929688 218.0078125 300.002929688 c 2
 208.0078125 300.002929688 l 2
 207.340820312 300.002929688 206.0078125 300.3359375 204.0078125 301.002929688 c 2
 204.0078125 305.002929688 l 1
 206.0078125 304.3359375 207.840820312 304.168945312 209.5078125 304.501953125 c 0
 211.174804688 304.834960938 212.5078125 304.834960938 213.5078125 304.501953125 c 0
 214.5078125 304.168945312 215.340820312 304.168945312 216.0078125 304.501953125 c 0
 216.674804688 304.834960938 217.0078125 305.334960938 217.0078125 306.001953125 c 0
 217.0078125 306.668945312 216.674804688 307.3359375 216.0078125 308.002929688 c 2
 210.0078125 308.002929688 l 1
 210.0078125 314.002929688 l 1
 205.340820312 314.669921875 202.0078125 316.002929688 200.0078125 318.002929688 c 0
 197.340820312 320.669921875 196.0078125 325.336914062 196.0078125 332.00390625 c 0
 196.0078125 344.670898438 201.840820312 351.00390625 213.5078125 351.00390625 c 0
 225.174804688 351.00390625 231.0078125 346.336914062 231.0078125 337.00390625 c 1
 218.0078125 337.00390625 l 1
 218.0078125 338.00390625 l 2
 218.0078125 341.336914062 216.840820312 343.00390625 214.5078125 343.00390625 c 0
 212.174804688 343.00390625 210.841796875 342.50390625 210.508789062 341.50390625 c 0
 210.17578125 340.50390625 210.008789062 336.836914062 210.008789062 330.50390625 c 0
 210.008789062 324.170898438 211.341796875 321.00390625 214.008789062 321.00390625 c 0
 216.67578125 321.00390625 218.008789062 323.00390625 218.008789062 327.00390625 c 2
 218.008789062 328.00390625 l 1
 231.008789062 328.00390625 l 1
 231.008789062 327.00390625 l 2
 231.008789062 318.336914062 226.67578125 314.00390625 218.008789062 314.00390625 c 2
 215.008789062 314.00390625 l 1
 215.008789062 312.00390625 l 1
 221.008789062 312.00390625 224.008789062 310.00390625 224.008789062 306.00390625 c 0
175.0078125 315.002929688 m 1
 175.0078125 350.002929688 l 1
 188.0078125 350.002929688 l 1
 188.0078125 315.002929688 l 1
 175.0078125 315.002929688 l 1
175.0078125 353.002929688 m 1
 175.0078125 362.002929688 l 1
 188.0078125 362.002929688 l 1
 188.0078125 353.002929688 l 1
 175.0078125 353.002929688 l 1
144.0078125 315.002929688 m 1
 134.0078125 350.002929688 l 1
 147.0078125 350.002929688 l 1
 152.0078125 326.002929688 l 1
 157.0078125 350.002929688 l 1
 170.0078125 350.002929688 l 1
 159.0078125 315.002929688 l 1
 144.0078125 315.002929688 l 1
126.0078125 340.002929688 m 2
 122.0078125 340.002929688 120.0078125 337.3359375 120.0078125 332.002929688 c 2
 120.0078125 315.002929688 l 1
 107.0078125 315.002929688 l 1
 107.0078125 350.002929688 l 1
 119.0078125 350.002929688 l 1
 119.0078125 345.002929688 l 1
 120.340820312 347.002929688 124.0078125 349.002929688 130.0078125 351.002929688 c 1
 130.0078125 339.002929688 l 1
 128.0078125 340.002929688 l 1
 126.0078125 340.002929688 l 2
77.0078125 339.002929688 m 2
 77.0078125 337.002929688 l 1
 86.0078125 337.002929688 l 1
 86.0078125 339.002929688 l 2
 86.0078125 342.3359375 84.5078125 344.002929688 81.5078125 344.002929688 c 0
 78.5078125 344.002929688 77.0078125 342.3359375 77.0078125 339.002929688 c 2
99.0078125 335.002929688 m 2
 99.0078125 331.002929688 l 1
 77.0078125 331.002929688 l 1
 77.0078125 327.002929688 l 2
 77.0078125 323.002929688 78.5078125 321.002929688 81.5078125 321.002929688 c 0
 84.5078125 321.002929688 86.0078125 322.3359375 86.0078125 325.002929688 c 2
 86.0078125 327.002929688 l 1
 99.0078125 327.002929688 l 1
 99.0078125 326.002929688 l 2
 99.0078125 318.002929688 93.6748046875 314.002929688 83.0078125 314.002929688 c 0
 72.3408203125 314.002929688 66.3408203125 315.8359375 65.0078125 319.502929688 c 0
 63.6748046875 323.169921875 63.0078125 328.669921875 63.0078125 336.002929688 c 0
 63.0078125 346.002929688 69.0078125 351.002929688 81.0078125 351.002929688 c 0
 93.0078125 351.002929688 99.0078125 345.669921875 99.0078125 335.002929688 c 2
18.0078125 328.002929688 m 1
 19.0087890625 330.004882812 l 1
 32.0087890625 330.004882812 l 1
 32.0087890625 329.004882812 l 2
 32.0087890625 324.337890625 33.67578125 322.004882812 37.0087890625 322.004882812 c 0
 39.67578125 322.004882812 41.67578125 323.671875 43.0087890625 327.004882812 c 0
 43.67578125 329.004882812 42.3427734375 330.671875 39.009765625 332.004882812 c 0
 36.3427734375 332.671875 34.67578125 333.171875 34.0087890625 333.504882812 c 0
 33.341796875 333.837890625 33.341796875 334.004882812 34.0087890625 334.004882812 c 1
 24.0087890625 339.337890625 19.0087890625 344.337890625 19.0087890625 349.004882812 c 0
 19.0087890625 357.004882812 25.341796875 361.671875 38.0087890625 363.004882812 c 0
 50.67578125 363.004882812 57.0087890625 358.337890625 57.0087890625 349.004882812 c 2
 57.0087890625 348.004882812 l 1
 43.0087890625 348.004882812 l 1
 43.0087890625 350.004882812 42.67578125 351.671875 42.0087890625 353.004882812 c 0
 41.341796875 354.337890625 40.0087890625 354.670898438 38.0087890625 354.00390625 c 0
 34.67578125 354.00390625 33.0087890625 352.836914062 33.0087890625 350.50390625 c 0
 33.0087890625 348.170898438 35.67578125 346.00390625 41.0087890625 344.00390625 c 2
 43.0087890625 343.00390625 l 2
 44.341796875 342.336914062 44.6748046875 342.00390625 44.0078125 342.00390625 c 1
 52.6748046875 338.00390625 57.0078125 333.336914062 57.0078125 328.00390625 c 0
 57.0078125 317.336914062 50.6748046875 312.669921875 38.0078125 314.002929688 c 0
 24.6748046875 314.002929688 18.0078125 318.669921875 18.0078125 328.002929688 c 1
EndSplineSet
Validated: 524289
EndChar

